<svg width="16" height="16" viewBox="0 0 16 16" fill="none" xmlns="http://www.w3.org/2000/svg">
<path fill-rule="evenodd" clip-rule="evenodd" d="M9.45837 8.1943C10.0193 7.90519 10.6678 7.83553 11.2766 7.99668C11.7686 8.1373 13.383 8.4586 13.6848 8.504C14.0411 8.5431 14.3855 8.6553 14.6962 8.8336C15.037 9.0293 15.3282 9.2993 15.5479 9.6232C15.7676 9.947 15.9104 10.3167 15.9648 10.7044C16.0723 11.472 15.9295 12.4796 15.5919 13.1722C15.4003 13.5653 15.131 13.9157 14.8004 14.2028C14.3305 14.6665 13.8052 15.0705 13.2365 15.406C12.5538 15.8087 11.7909 15.965 11 15.9947C10.3097 16.0205 9.61692 15.9522 8.9414 15.7901C8.46237 15.6752 7.99728 15.5144 7.55237 15.3108C6.0886 14.641 4.70442 13.5362 3.57761 12.4062C3.2239 12.0515 2.88851 11.6788 2.57283 11.2895C1.88246 10.4382 1.18825 9.4945 0.721163 8.5C0.499865 8.0288 0.326886 7.53509 0.205848 7.0262C0.0475786 6.36078 -0.0195372 5.67928 0.00488925 5C0.0324595 4.23329 0.174242 3.47907 0.560547 2.81296C0.899657 2.22822 1.31141 1.6875 1.78657 1.20363C2.07322 0.870258 2.42573 0.598308 2.82271 0.404778C3.54837 0.0510079 4.61504 -0.091932 5.41264 0.060598C5.79206 0.133148 6.15002 0.288758 6.46071 0.515598C6.77144 0.742478 7.02749 1.03523 7.21016 1.37263C7.36243 1.6539 7.46051 1.96033 7.49994 2.27616C7.53342 2.44373 7.56477 2.60178 7.59461 2.75227L7.59483 2.75336C7.7468 3.51968 7.85991 4.09003 8.01911 4.72308C8.17982 5.31931 8.11405 5.95524 7.83091 6.50833C7.6753 6.81231 7.46044 7.07869 7.2018 7.2939C7.40474 7.59367 7.63396 7.87594 7.88714 8.1373C8.13674 8.3813 8.40634 8.6033 8.69279 8.8011C8.90384 8.5534 9.16313 8.3464 9.45837 8.1943ZM9.32406 11.0949C9.14936 11.164 8.95399 11.1617 8.78045 11.0885C7.93174 10.6957 7.15753 10.1601 6.49221 9.5054C5.83857 8.835 5.30536 8.0586 4.91589 7.21005C4.84325 7.03742 4.8405 6.84386 4.9082 6.66977C5.00378 6.42394 5.23682 6.28381 5.45809 6.15076C5.5032 6.12364 5.54782 6.0968 5.59069 6.06943C5.78916 5.94269 5.9931 5.80177 6.08277 5.62661C6.14765 5.49986 6.16171 5.35326 6.1221 5.21627C5.94697 4.52267 5.82177 3.89099 5.66728 3.11152L5.6665 3.10757C5.63208 2.93392 5.59621 2.75294 5.558 2.5623C5.55338 2.4685 5.52773 2.37682 5.48288 2.29398C5.43804 2.21114 5.37514 2.13923 5.29881 2.08349C5.22248 2.02776 5.13464 1.98961 5.04169 1.97183C4.64894 1.89673 4.03467 1.9824 3.68716 2.15182C3.51407 2.2362 3.36248 2.35827 3.24367 2.50896C2.91027 2.8403 2.61664 3.20799 2.36811 3.60466C2.12593 3.99119 2.0219 4.32681 1.98217 4.78256C1.92985 5.38275 1.97399 5.9892 2.11426 6.57897C2.20476 6.95946 2.33424 7.32865 2.5 7.68099C2.91983 8.5734 3.56867 9.4306 4.19615 10.1858C4.51863 10.5739 4.864 10.9424 5.23032 11.2895C6.09773 12.1113 7.13105 12.9287 8.2091 13.4648C8.58788 13.6532 8.98802 13.7989 9.40212 13.8982C10.036 14.0503 10.69 14.0909 11.3346 14.0194C11.7399 13.9745 12.0335 13.8619 12.3791 13.6449C12.7745 13.3966 13.1403 13.1037 13.469 12.7715C13.6201 12.6506 13.7422 12.4979 13.8268 12.3244C14.0002 11.9688 14.0766 11.358 14.0226 10.9726C14.0094 10.8787 13.9748 10.789 13.9214 10.7103C13.868 10.6316 13.7973 10.566 13.7146 10.5185C13.6318 10.4711 13.5393 10.4429 13.4441 10.4363C13.2069 10.4012 10.9927 10.0053 10.7713 9.8773C10.6339 9.841 10.4879 9.8568 10.3619 9.9217C10.1836 10.0136 10.0406 10.2223 9.91175 10.4229C9.88365 10.4667 9.85618 10.5123 9.82841 10.5585C9.69873 10.7741 9.56252 11.0006 9.32406 11.0949Z" fill="#999999"/>
</svg>
