<svg width="19" height="19" viewBox="0 0 19 19" fill="none" xmlns="http://www.w3.org/2000/svg">
<path fill-rule="evenodd" clip-rule="evenodd" d="M2.563e-06 4C2.98e-06 1.79086 1.79087 0 4.00001 0H15C17.2092 0 19 1.79086 19 4V12C19 14.2091 17.2092 16 15 16H5.38587L2.50758 18.6098C1.54357 19.4839 0 18.7999 0 17.4986L2.563e-06 4ZM4.00001 2C2.89544 2 2.00001 2.89543 2.00001 4L2 16.3703L4.04244 14.5184C4.41036 14.1848 4.88923 14 5.38587 14H15C16.1046 14 17 13.1046 17 12V4C17 2.89543 16.1046 2 15 2H4.00001Z" fill="#999999"/>
</svg>
