<svg width="32" height="32" viewBox="0 0 32 32" fill="none" xmlns="http://www.w3.org/2000/svg">
<g clip-path="url(#clip0_31_3130)">
<mask id="mask0_31_3130" style="mask-type:luminance" maskUnits="userSpaceOnUse" x="0" y="0" width="32" height="32">
<path d="M0 0H31.0255V31.0255H0V0Z" fill="white"/>
</mask>
<g mask="url(#mask0_31_3130)">
<path d="M29.8182 11.7818C30.4873 11.7818 31.0255 11.2291 31.0255 10.56V4.84364C31.0255 2.18182 28.8436 0 26.1818 0H4.84364C3.5602 0.00383689 2.33043 0.515379 1.42291 1.42291C0.515379 2.33043 0.00383689 3.5602 0 4.84364L0 16.5964C0 19.2727 2.18182 21.4545 4.84364 21.4545H14.2982V28.5964H11.2727C10.9506 28.5964 10.6417 28.7243 10.4139 28.9521C10.1861 29.1799 10.0582 29.4888 10.0582 29.8109C10.0582 30.133 10.1861 30.4419 10.4139 30.6697C10.6417 30.8975 10.9506 31.0255 11.2727 31.0255H19.7527C19.9122 31.0255 20.0702 30.994 20.2175 30.933C20.3649 30.872 20.4988 30.7825 20.6115 30.6697C20.7243 30.5569 20.8138 30.423 20.8748 30.2757C20.9359 30.1283 20.9673 29.9704 20.9673 29.8109C20.9673 29.6514 20.9359 29.4935 20.8748 29.3461C20.8138 29.1988 20.7243 29.0649 20.6115 28.9521C20.4988 28.8393 20.3649 28.7498 20.2175 28.6888C20.0702 28.6278 19.9122 28.5964 19.7527 28.5964H16.7273V21.4545H26.1818C28.8582 21.4545 31.0255 19.2727 31.0255 16.5964C31.0255 16.4369 30.994 16.2789 30.933 16.1316C30.872 15.9842 30.7825 15.8503 30.6697 15.7375C30.5569 15.6248 30.423 15.5353 30.2757 15.4743C30.1283 15.4132 29.9704 15.3818 29.8109 15.3818C29.6514 15.3818 29.4935 15.4132 29.3461 15.4743C29.1988 15.5353 29.0649 15.6248 28.9521 15.7375C28.8393 15.8503 28.7498 15.9842 28.6888 16.1316C28.6278 16.2789 28.5964 16.4369 28.5964 16.5964C28.5964 17.9345 27.52 19.0255 26.1818 19.0255H24.96V17.8182C24.96 17.498 24.8328 17.1909 24.6064 16.9645C24.38 16.7381 24.0729 16.6109 23.7527 16.6109C23.4325 16.6109 23.1255 16.7381 22.8991 16.9645C22.6726 17.1909 22.5455 17.498 22.5455 17.8182V19.0255H20.1164V17.8182C20.1164 17.4961 19.9884 17.1871 19.7606 16.9594C19.5329 16.7316 19.2239 16.6036 18.9018 16.6036C18.5797 16.6036 18.2708 16.7316 18.043 16.9594C17.8152 17.1871 17.6873 17.4961 17.6873 17.8182V19.0255H13.3236V17.8182C13.3236 17.498 13.1964 17.1909 12.97 16.9645C12.7436 16.7381 12.4366 16.6109 12.1164 16.6109C11.7962 16.6109 11.4891 16.7381 11.2627 16.9645C11.0363 17.1909 10.9091 17.498 10.9091 17.8182V19.0255H8.48V17.8182C8.48 17.498 8.35281 17.1909 8.1264 16.9645C7.89999 16.7381 7.59292 16.6109 7.27273 16.6109C6.95254 16.6109 6.64546 16.7381 6.41906 16.9645C6.19265 17.1909 6.06545 17.498 6.06545 17.8182V19.0255H4.84364C3.50545 19.0255 2.42909 17.9345 2.42909 16.5964V4.84364C2.42909 3.50545 3.50545 2.42909 4.84364 2.42909H26.1818C27.52 2.42909 28.5964 3.50545 28.5964 4.84364V10.56C28.5964 11.2291 29.1491 11.7673 29.8182 11.7673V11.7818Z" fill="#365EDC"/>
</g>
</g>
<defs>
<clipPath id="clip0_31_3130">
<rect width="32" height="32" fill="white"/>
</clipPath>
</defs>
</svg>
