<svg width="32" height="32" viewBox="0 0 32 32" fill="none" xmlns="http://www.w3.org/2000/svg">
<g clip-path="url(#clip0_31_3136)">
<mask id="mask0_31_3136" style="mask-type:luminance" maskUnits="userSpaceOnUse" x="0" y="0" width="32" height="32">
<path d="M0 0H32V32H0V0Z" fill="white"/>
</mask>
<g mask="url(#mask0_31_3136)">
<path d="M5.00358 10.0072C3.67461 10.0072 2.40006 9.47924 1.46034 8.53951C0.520609 7.59978 -0.00732422 6.32524 -0.00732422 4.99626C-0.00732422 3.66728 0.520609 2.39274 1.46034 1.45301C2.40006 0.513285 3.67461 -0.0146484 5.00358 -0.0146484C6.33256 -0.0146484 7.6071 0.513285 8.54683 1.45301C9.48656 2.39274 10.0145 3.66728 10.0145 4.99626C10.0145 6.32524 9.48656 7.59978 8.54683 8.53951C7.6071 9.47924 6.33256 10.0072 5.00358 10.0072ZM5.00358 2.50172C4.67504 2.50172 4.34972 2.56643 4.04618 2.69215C3.74265 2.81788 3.46685 3.00217 3.23453 3.23448C3.00222 3.4668 2.81793 3.74259 2.69221 4.04613C2.56648 4.34966 2.50177 4.67499 2.50177 5.00353C2.50177 5.33208 2.56648 5.6574 2.69221 5.96094C2.81793 6.26447 3.00222 6.54027 3.23453 6.77259C3.46685 7.0049 3.74265 7.18918 4.04618 7.31491C4.34972 7.44064 4.67504 7.50535 5.00358 7.50535C5.66711 7.50535 6.30346 7.24177 6.77264 6.77259C7.24182 6.3034 7.5054 5.66706 7.5054 5.00353C7.5054 4.34001 7.24182 3.70366 6.77264 3.23448C6.30346 2.7653 5.66711 2.50172 5.00358 2.50172ZM8.42177 30.5599C8.97449 30.0072 9.9054 28.8144 10.8509 27.4472C11.4618 26.5599 12.5963 26.1817 13.5709 26.5308C15.9563 27.3454 18.5454 27.4763 21.0472 26.8944C24.1106 26.192 26.8518 24.4869 28.8359 22.0495C30.8201 19.6122 31.9336 16.5821 31.9999 13.4399C32.0759 10.2346 30.9756 7.1124 28.9067 4.663C26.8379 2.2136 23.9437 0.606543 20.7709 0.145352C18.0109 -0.253793 15.1949 0.197788 12.6981 1.4399C12.4198 1.59714 12.2122 1.85498 12.118 2.16048C12.0238 2.46597 12.0502 2.79594 12.1917 3.08261C12.3331 3.36929 12.579 3.59092 12.8788 3.702C13.1785 3.81308 13.5095 3.80517 13.8036 3.6799C15.8404 2.64914 18.1486 2.28145 20.4049 2.62837C22.6612 2.97528 24.7523 4.01941 26.3854 5.61444C30.6472 9.86172 30.5163 16.9163 26.0945 21.3381C24.5987 22.8515 22.7103 23.9174 20.6417 24.4159C18.5731 24.9144 16.4064 24.8258 14.3854 24.1599C13.3786 23.821 12.2887 23.8194 11.2809 24.1554C10.273 24.4913 9.40209 25.1465 8.79995 26.0217C7.8254 27.4181 7.01086 28.4363 6.66177 28.7854C6.19487 29.1908 5.59163 29.4041 4.97366 29.3824C4.35569 29.3606 3.76894 29.1054 3.3317 28.6681C2.89445 28.2309 2.63923 27.6442 2.61748 27.0262C2.59573 26.4082 2.80907 25.805 3.21449 25.3381C3.56358 24.989 4.58177 24.1744 5.97813 23.1999C6.85336 22.5978 7.50855 21.7268 7.84449 20.719C8.18044 19.7112 8.17884 18.6213 7.83995 17.6144C7.37422 16.2546 7.18144 14.8162 7.27268 13.3817C7.30821 13.2062 7.30563 13.025 7.26511 12.8505C7.22458 12.6761 7.14706 12.5123 7.03778 12.3704C6.9285 12.2285 6.79002 12.1117 6.63169 12.0279C6.47337 11.9441 6.2989 11.8953 6.12009 11.8848C5.94128 11.8743 5.76229 11.9023 5.59524 11.9669C5.42818 12.0316 5.27696 12.1313 5.15179 12.2594C5.02663 12.3876 4.93044 12.5411 4.86974 12.7096C4.80904 12.8781 4.78524 13.0577 4.79995 13.2363C4.69093 14.9914 4.92816 16.7509 5.49813 18.4144C5.83268 19.4035 5.45449 20.5235 4.58177 21.1344C3.19995 22.0799 2.00722 23.0108 1.45449 23.5635C0.991842 24.0196 0.624458 24.5631 0.373699 25.1624C0.122939 25.7616 -0.00619429 26.4048 -0.00619429 27.0544C-0.00619429 27.7041 0.122939 28.3472 0.373699 28.9465C0.624458 29.5458 0.991842 30.0893 1.45449 30.5454C1.91154 31.0062 2.45534 31.3721 3.05449 31.6217C3.65365 31.8714 4.29632 31.9999 4.9454 31.9999C5.59449 31.9999 6.23715 31.8714 6.83631 31.6217C7.43547 31.3721 7.97926 31.0062 8.43631 30.5454L8.42177 30.5599ZM19.9418 15.389C20.0587 15.2727 20.1516 15.1345 20.2149 14.9822C20.2783 14.8299 20.3109 14.6666 20.3109 14.5017C20.3109 14.3368 20.2783 14.1735 20.2149 14.0212C20.1516 13.8689 20.0587 13.7307 19.9418 13.6144L13.629 7.30172C13.5145 7.17749 13.376 7.07775 13.2218 7.00853C13.0677 6.9393 12.9011 6.90203 12.7322 6.89895C12.5632 6.89587 12.3954 6.92705 12.2388 6.99061C12.0823 7.05417 11.9402 7.1488 11.8212 7.26877C11.7022 7.38875 11.6088 7.53158 11.5465 7.68867C11.4842 7.84575 11.4544 8.01382 11.4589 8.18273C11.4634 8.35165 11.502 8.51791 11.5725 8.67148C11.643 8.82505 11.7439 8.96275 11.869 9.07626L18.1818 15.389C18.416 15.6208 18.7322 15.7509 19.0618 15.7509C19.3913 15.7509 19.7076 15.6208 19.9418 15.389ZM19.6363 22.1963C19.8681 21.962 19.9982 21.6458 19.9982 21.3163C19.9982 20.9867 19.8681 20.6705 19.6363 20.4363L10.6327 11.3744C10.3942 11.1765 10.0907 11.0741 9.781 11.0872C9.47132 11.1002 9.17752 11.2278 8.95655 11.4452C8.73558 11.6625 8.60316 11.9542 8.58498 12.2636C8.5668 12.573 8.66414 12.8782 8.85813 13.1199L17.8763 22.1963C18.1099 22.4237 18.423 22.551 18.749 22.551C19.0751 22.551 19.3882 22.4237 19.6218 22.1963H19.6363Z" fill="#365EDC"/>
</g>
</g>
<defs>
<clipPath id="clip0_31_3136">
<rect width="32" height="32" fill="white"/>
</clipPath>
</defs>
</svg>
