<svg width="32" height="32" viewBox="0 0 32 32" fill="none" xmlns="http://www.w3.org/2000/svg">
<g clip-path="url(#clip0_31_3188)">
<mask id="mask0_31_3188" style="mask-type:luminance" maskUnits="userSpaceOnUse" x="0" y="0" width="32" height="32">
<path d="M0.47998 0.47998H31.5054V31.5054H0.47998V0.47998Z" fill="white"/>
</mask>
<g mask="url(#mask0_31_3188)">
<path d="M31.5202 30.298C31.5202 30.778 31.2147 31.5199 30.2984 31.5199C29.7456 31.5199 29.2802 31.0253 29.2802 31.0108C28.2329 29.9635 26.662 29.7017 25.3529 30.3562C23.8256 31.1271 22.1384 31.5199 20.3493 31.5199C18.5987 31.5318 16.8699 31.1311 15.3031 30.3503C13.7362 29.5694 12.3755 28.4303 11.3311 27.0253C11.2356 26.8973 11.1662 26.7518 11.1269 26.597C11.0877 26.4422 11.0793 26.2812 11.1023 26.1232C11.1252 25.9652 11.1791 25.8132 11.2608 25.676C11.3425 25.5388 11.4504 25.419 11.5784 25.3235C11.7063 25.228 11.8519 25.1586 12.0067 25.1194C12.1614 25.0801 12.3224 25.0717 12.4805 25.0947C12.6385 25.1176 12.7905 25.1715 12.9277 25.2532C13.0649 25.3349 13.1847 25.4428 13.2802 25.5708C14.0988 26.6719 15.1656 27.5645 16.3938 28.1761C17.6221 28.7877 18.9772 29.101 20.3493 29.0908C21.7602 29.0908 23.0838 28.7853 24.2765 28.1889C25.0192 27.8149 25.8338 27.6057 26.6647 27.5756C27.4957 27.5455 28.3233 27.6951 29.0911 28.0144V20.3926C29.1002 19.0002 28.781 17.6253 28.1593 16.3793C27.5376 15.1334 26.6309 14.0516 25.5129 13.2217C25.2544 13.0288 25.0832 12.7411 25.0368 12.422C24.9904 12.1028 25.0727 11.7783 25.2656 11.5198C25.4585 11.2614 25.7462 11.0901 26.0653 11.0438C26.3845 10.9974 26.709 11.0797 26.9674 11.2726C28.3905 12.3305 29.5442 13.7089 30.3352 15.2959C31.1262 16.8829 31.5322 18.6339 31.5202 20.4071V30.298ZM11.6365 22.9089C9.89557 22.9211 8.17629 22.5224 6.61835 21.7453C6.15286 21.5141 5.6399 21.3946 5.12017 21.3962C3.62199 21.3962 2.50199 22.5889 2.50199 22.5889C2.32995 22.7515 2.11392 22.8599 1.88076 22.9007C1.6476 22.9414 1.40761 22.9127 1.19062 22.8182C0.973633 22.7236 0.789222 22.5674 0.660321 22.3689C0.53142 22.1704 0.463715 21.9384 0.465626 21.7017V11.8108C0.448033 10.3274 0.727213 8.85556 1.28675 7.4817C1.84629 6.10783 2.67488 4.85972 3.72381 3.81076C4.76328 2.75221 6.00394 1.91222 7.37282 1.34019C8.74169 0.768159 10.2111 0.475644 11.6947 0.479849C13.1806 0.467945 14.6538 0.753766 16.0274 1.32045C17.4011 1.88713 18.6473 2.72319 19.6925 3.77931C20.7378 4.83543 21.561 6.0902 22.1134 7.4696C22.6659 8.849 22.9365 10.3251 22.9093 11.8108C22.8824 14.7736 21.6825 17.6051 19.5724 19.6852C17.4624 21.7653 14.614 22.9245 11.6511 22.9089H11.6365ZM7.70926 19.578C9.04738 20.2384 10.5308 20.5494 12.0215 20.4822C13.5122 20.415 14.9616 19.9716 16.2349 19.1935C17.5081 18.4153 18.5637 17.3276 19.3035 16.0317C20.0432 14.7357 20.443 13.2737 20.4656 11.7817C20.483 10.6203 20.2688 9.46702 19.8355 8.38934C19.4021 7.31166 18.7583 6.33114 17.9418 5.50508C17.1252 4.67902 16.1522 4.02398 15.0795 3.57822C14.0069 3.13247 12.8563 2.90494 11.6947 2.90894C10.5327 2.90794 9.38216 3.13902 8.31063 3.58862C7.23909 4.03821 6.26814 4.69727 5.45472 5.52712C4.63625 6.34831 3.9896 7.32434 3.55256 8.39823C3.11551 9.47212 2.89682 10.6223 2.90926 11.7817V19.418C3.67665 19.0994 4.5034 18.9488 5.33387 18.9764C6.16434 19.004 6.97927 19.2091 7.72381 19.578H7.70926ZM16.4074 10.2399C16.0062 10.2399 15.6215 10.3992 15.3378 10.6829C15.0541 10.9666 14.8947 11.3514 14.8947 11.7526C14.8947 12.1538 15.0541 12.5385 15.3378 12.8222C15.6215 13.1059 16.0062 13.2653 16.4074 13.2653C16.8086 13.2653 17.1934 13.1059 17.4771 12.8222C17.7608 12.5385 17.9202 12.1538 17.9202 11.7526C17.9202 11.3514 17.7608 10.9666 17.4771 10.6829C17.1934 10.3992 16.8086 10.2399 16.4074 10.2399ZM11.6365 10.2399C11.2353 10.2399 10.8506 10.3992 10.5669 10.6829C10.2832 10.9666 10.1238 11.3514 10.1238 11.7526C10.1238 12.1538 10.2832 12.5385 10.5669 12.8222C10.8506 13.1059 11.2353 13.2653 11.6365 13.2653C12.0377 13.2653 12.4225 13.1059 12.7062 12.8222C12.9899 12.5385 13.1493 12.1538 13.1493 11.7526C13.1493 11.3514 12.9899 10.9666 12.7062 10.6829C12.4225 10.3992 12.0377 10.2399 11.6365 10.2399ZM6.83653 10.2399C6.43533 10.2399 6.05057 10.3992 5.76688 10.6829C5.48318 10.9666 5.32381 11.3514 5.32381 11.7526C5.32381 12.1538 5.48318 12.5385 5.76688 12.8222C6.05057 13.1059 6.43533 13.2653 6.83653 13.2653C7.23774 13.2653 7.6225 13.1059 7.90619 12.8222C8.18989 12.5385 8.34926 12.1538 8.34926 11.7526C8.34926 11.3514 8.18989 10.9666 7.90619 10.6829C7.6225 10.3992 7.23774 10.2399 6.83653 10.2399Z" fill="#365EDC"/>
</g>
</g>
<defs>
<clipPath id="clip0_31_3188">
<rect width="32" height="32" fill="white"/>
</clipPath>
</defs>
</svg>
