<svg width="7" height="13" viewBox="0 0 7 13" fill="none" xmlns="http://www.w3.org/2000/svg">
<path fill-rule="evenodd" clip-rule="evenodd" d="M3.25398 0.812529C3.87599 0.816129 4.48307 1.00333 4.99866 1.35163C5.51426 1.69903 5.91526 2.19223 6.15111 2.76823C6.38687 3.34423 6.44696 3.97693 6.32364 4.58713C6.20031 5.19733 5.89916 5.75622 5.45822 6.19542C5.01738 6.63462 4.45635 6.93252 3.84612 7.05312C3.23581 7.17372 2.60364 7.10982 2.0293 6.87132C1.45497 6.63192 0.964294 6.22872 0.619064 5.71122C0.273833 5.19282 0.0896084 4.58443 0.0895185 3.96253C0.0902381 3.54763 0.172728 3.13724 0.33221 2.75384C0.491693 2.37134 0.725111 2.02393 1.01898 1.73143C1.31294 1.43803 1.66159 1.20673 2.04514 1.04923C2.4286 0.89173 2.8394 0.810729 3.25398 0.812529ZM3.26118 2.57292C3.53112 2.57562 3.79413 2.65843 4.01721 2.81053C4.24029 2.96173 4.41344 3.17683 4.51482 3.42703C4.61619 3.67723 4.64129 3.95174 4.58696 4.21634C4.53263 4.48094 4.40121 4.72303 4.20943 4.91293C4.01757 5.10283 3.7739 5.23242 3.509 5.28372C3.24409 5.33502 2.96983 5.30713 2.72084 5.20363C2.47177 5.09923 2.25913 4.92372 2.10954 4.69872C1.96004 4.47372 1.88035 4.21003 1.88053 3.94003C1.88197 3.57553 2.02787 3.22723 2.2863 2.96983C2.54473 2.71333 2.89436 2.57024 3.25857 2.57114L3.26118 2.57292ZM3.25398 8.02692C3.85728 8.02242 4.45527 7.91353 5.0216 7.70563C5.33724 7.50133 5.67375 7.33123 6.02536 7.19803C6.22325 7.20523 6.54977 7.53372 6.494 8.38332C6.46252 8.86842 5.57831 9.06823 5.26708 9.25363C5.06388 9.36433 4.84341 9.43904 4.61494 9.47593C4.61494 9.47593 5.37681 10.2913 5.57111 10.492C5.96572 10.78 6.26319 11.1814 6.42384 11.6422C6.37257 11.8609 6.26121 12.0616 6.10227 12.22C5.94332 12.3793 5.74319 12.4909 5.52434 12.5422C5.04121 12.2947 4.61296 11.9518 4.26512 11.5342C3.74071 11.0338 3.26208 10.5721 3.26208 10.5721C3.26208 10.5721 2.77095 11.0095 2.25913 11.5153C1.91939 11.9338 1.50148 12.283 1.0287 12.5422C0.785471 12.4792 0.565721 12.3478 0.396164 12.1624C0.226517 11.977 0.114347 11.7457 0.0733294 11.4982C0.374664 10.9978 0.751201 10.546 1.18971 10.1599C1.41369 9.91692 1.65412 9.68923 1.90931 9.47863C1.70836 9.45073 1.51407 9.38772 1.33543 9.29142C0.902763 9.05112 -0.0238184 8.79912 0.000468293 8.35272C0.0256545 7.89192 0.143583 7.18273 0.554657 7.18273C0.905824 7.31053 1.24305 7.47432 1.56111 7.67052C2.092 7.91352 2.67039 8.03414 3.25398 8.02514V8.02692Z" fill="white"/>
</svg>
