<svg width="32" height="32" viewBox="0 0 32 32" fill="none" xmlns="http://www.w3.org/2000/svg">
<mask id="mask0_31_4073" style="mask-type:luminance" maskUnits="userSpaceOnUse" x="0" y="0" width="32" height="32">
<path d="M0 0H31.0255V31.0255H0V0Z" fill="white"/>
</mask>
<g mask="url(#mask0_31_4073)">
<path d="M29.3816 20.3636C29.5649 21.0551 29.5409 21.7852 29.3128 22.4632C29.0847 23.1412 28.6624 23.7373 28.0983 24.1773C27.5343 24.6174 26.8535 24.882 26.1404 24.9384C25.4272 24.9948 24.7132 24.8405 24.0871 24.4945L24.0289 24.4655C23.8437 24.3637 23.6321 24.3204 23.4218 24.3412C23.2115 24.3619 23.0124 24.4458 22.8507 24.5818C21.9343 25.3236 20.9016 25.9345 19.8107 26.3709C19.6163 26.4462 19.4488 26.5777 19.3296 26.7487C19.2104 26.9198 19.1449 27.1225 19.1416 27.3309V27.3891C19.1416 28.3535 18.7585 29.2784 18.0765 29.9604C17.3946 30.6423 16.4697 31.0255 15.5053 31.0255C14.5408 31.0255 13.6159 30.6423 12.934 29.9604C12.252 29.2784 11.8689 28.3535 11.8689 27.3891V27.36C11.8737 27.1499 11.8134 26.9434 11.6962 26.7689C11.579 26.5944 11.4107 26.4605 11.2143 26.3855C10.1009 25.9506 9.06085 25.3472 8.13071 24.5964C7.96879 24.4657 7.77165 24.3863 7.5644 24.3682C7.35716 24.35 7.14921 24.394 6.96707 24.4945H6.95252C6.53712 24.7307 6.07926 24.8826 5.60511 24.9417C5.13095 25.0008 4.6498 24.9658 4.18916 24.8388C3.72853 24.7119 3.29743 24.4953 2.92051 24.2017C2.5436 23.908 2.22826 23.5429 1.99252 23.1273C1.75479 22.7135 1.60152 22.2566 1.54161 21.7831C1.4817 21.3097 1.51633 20.829 1.6435 20.369C1.77068 19.9091 1.98786 19.4789 2.28247 19.1034C2.57708 18.728 2.94326 18.4147 3.3598 18.1818L3.38889 18.1673C3.56805 18.0666 3.71256 17.9141 3.80343 17.7298C3.89429 17.5455 3.92725 17.338 3.89798 17.1345C3.73924 16.025 3.73924 14.8986 3.89798 13.7891C3.92493 13.5822 3.88949 13.372 3.79619 13.1854C3.7029 12.9988 3.556 12.8444 3.37434 12.7418C2.95465 12.5102 2.58534 12.1972 2.28799 11.8211C1.99065 11.4451 1.77124 11.0136 1.64259 10.5518C1.51393 10.09 1.47862 9.60718 1.5387 9.13158C1.59878 8.65597 1.75306 8.19711 1.99252 7.78182C2.4713 6.94924 3.25887 6.33886 4.18457 6.08293C5.11026 5.82701 6.09952 5.94615 6.93798 6.41455L7.02525 6.44364C7.20622 6.54812 7.41495 6.5944 7.62312 6.57619C7.83129 6.55797 8.02882 6.47615 8.18889 6.34182C9.10629 5.62255 10.1197 5.03504 11.1998 4.59636C11.3969 4.52343 11.5675 4.39287 11.6895 4.22165C11.8114 4.05044 11.879 3.8465 11.8834 3.63636C11.8834 2.67194 12.2665 1.74702 12.9485 1.06507C13.6304 0.383116 14.5554 0 15.5198 0C16.4842 0 17.4091 0.383116 18.0911 1.06507C18.773 1.74702 19.1562 2.67194 19.1562 3.63636V3.66545C19.1562 4.10182 19.4034 4.46545 19.8107 4.62545C20.8871 5.06182 21.8907 5.64364 22.7925 6.37091C23.1271 6.64727 23.5925 6.67636 23.9562 6.47273L24.0725 6.41455C24.699 6.06405 25.4149 5.90603 26.1307 5.96023C26.8465 6.01444 27.5305 6.27846 28.097 6.71929C28.6636 7.16012 29.0876 7.7582 29.3161 8.43873C29.5446 9.11926 29.5674 9.85204 29.3816 10.5455C29.1198 11.4764 28.5089 12.2618 27.6653 12.7273L27.578 12.7855C27.4 12.8846 27.2553 13.0342 27.1621 13.2153C27.069 13.3965 27.0315 13.6012 27.0543 13.8036C27.2122 14.8934 27.2171 15.9998 27.0689 17.0909C27.0107 17.5127 27.2143 17.92 27.5925 18.1382L27.6653 18.1673C28.5089 18.6473 29.1198 19.4327 29.3816 20.3636ZM27.0543 21.0182C27.0104 20.8645 26.9363 20.721 26.8364 20.5962C26.7365 20.4713 26.6128 20.3676 26.4725 20.2909L26.3853 20.2327C25.7847 19.8947 25.2999 19.3837 24.9937 18.7662C24.6876 18.1488 24.5744 17.4535 24.6689 16.7709C24.7909 15.9024 24.7909 15.0212 24.6689 14.1527C24.5743 13.466 24.6872 12.7668 24.9931 12.1447C25.2989 11.5227 25.7837 11.0063 26.3853 10.6618L26.4725 10.6182C26.7499 10.4596 26.953 10.1976 27.0376 9.88952C27.1221 9.58144 27.081 9.25243 26.9234 8.97455C26.7621 8.69621 26.4975 8.49275 26.187 8.40833C25.8766 8.32391 25.5453 8.36535 25.2653 8.52364L25.1634 8.58182C23.9271 9.28 22.3998 9.16364 21.2653 8.26182C20.5603 7.68363 19.7704 7.21755 18.9234 6.88C18.2772 6.62621 17.7222 6.18398 17.3305 5.61074C16.9389 5.03749 16.7286 4.35973 16.7271 3.66545V3.63636C16.7271 3.31425 16.5991 3.00532 16.3713 2.77755C16.1436 2.54978 15.8346 2.42182 15.5125 2.42182C15.1904 2.42182 14.8815 2.54978 14.6537 2.77755C14.4259 3.00532 14.298 3.31425 14.298 3.63636C14.298 5.07636 13.4253 6.34182 12.0871 6.86545C11.2289 7.2 10.4289 7.66545 9.71616 8.24727C9.1711 8.68145 8.50857 8.94256 7.81385 8.99699C7.11913 9.05143 6.42401 8.8967 5.81798 8.55273L5.7598 8.52364C5.47971 8.36535 5.14849 8.32391 4.83804 8.40833C4.5276 8.49275 4.26297 8.69621 4.10161 8.97455C4.02417 9.11301 3.97477 9.26538 3.95625 9.42295C3.93773 9.58051 3.95044 9.74019 3.99367 9.89284C4.0369 10.0455 4.10979 10.1881 4.20818 10.3126C4.30657 10.437 4.42852 10.5409 4.56707 10.6182L4.58161 10.6327C5.18955 10.9785 5.67959 11.499 5.98821 12.1266C6.29684 12.7543 6.40983 13.4601 6.31252 14.1527C6.1872 15.0307 6.1872 15.922 6.31252 16.8C6.50161 18.1964 5.81798 19.5636 4.56707 20.2764C4.42852 20.3537 4.30657 20.4575 4.20818 20.582C4.10979 20.7064 4.0369 20.8491 3.99367 21.0017C3.95044 21.1544 3.93773 21.314 3.95625 21.4716C3.97477 21.6292 4.02417 21.7815 4.10161 21.92C4.42161 22.5018 5.17798 22.72 5.7598 22.3855C6.36608 22.0396 7.06275 21.8851 7.75841 21.9422C8.45407 21.9993 9.11622 22.2653 9.65798 22.7055C10.3853 23.3018 11.2143 23.7818 12.1016 24.1309C12.7513 24.3839 13.309 24.8279 13.7011 25.4044C14.0933 25.9809 14.3014 26.6628 14.298 27.36V27.3891C14.298 27.7112 14.4259 28.0201 14.6537 28.2479C14.8815 28.4757 15.1904 28.6036 15.5125 28.6036C15.8346 28.6036 16.1436 28.4757 16.3713 28.2479C16.5991 28.0201 16.7271 27.7112 16.7271 27.3891V27.3309C16.7271 25.9055 17.5853 24.64 18.9089 24.1164C19.7816 23.7673 20.5962 23.2873 21.3234 22.7055C21.865 22.26 22.5291 21.9894 23.2278 21.9297C23.9265 21.87 24.6268 22.0238 25.2362 22.3709L25.2653 22.3855C25.4736 22.5002 25.7109 22.5516 25.9481 22.5334C26.1852 22.5152 26.4119 22.4282 26.6004 22.283C26.7888 22.1379 26.9307 21.9409 27.0088 21.7162C27.0868 21.4915 27.0976 21.2489 27.0398 21.0182H27.0543Z" fill="#365EDC"/>
<path d="M8.88718 19.1565C8.96691 19.2946 9.0732 19.4155 9.19989 19.5122C9.32659 19.609 9.47119 19.6797 9.62535 19.7202C9.77951 19.7608 9.94019 19.7704 10.0981 19.7486C10.256 19.7267 10.408 19.6738 10.5454 19.5929L11.6363 18.9674C12.3926 19.7674 13.3817 20.3493 14.4872 20.5965V21.8184C14.4872 21.9778 14.5186 22.1358 14.5796 22.2831C14.6407 22.4305 14.7301 22.5644 14.8429 22.6772C14.9557 22.7899 15.0896 22.8794 15.2369 22.9404C15.3843 23.0015 15.5422 23.0329 15.7017 23.0329C15.8612 23.0329 16.0192 23.0015 16.1665 22.9404C16.3139 22.8794 16.4478 22.7899 16.5605 22.6772C16.6733 22.5644 16.7628 22.4305 16.8238 22.2831C16.8849 22.1358 16.9163 21.9778 16.9163 21.8184V20.5965C17.9878 20.3563 18.9645 19.8047 19.7235 19.0111L20.7126 19.5929C20.85 19.6738 21.002 19.7267 21.1599 19.7486C21.3178 19.7704 21.4785 19.7608 21.6327 19.7202C21.7868 19.6797 21.9314 19.609 22.0581 19.5122C22.1848 19.4155 22.2911 19.2946 22.3708 19.1565C22.7199 18.5747 22.5163 17.8474 21.9345 17.4984L20.989 16.9456C21.3836 15.7855 21.3836 14.5275 20.989 13.3674L21.949 12.7856C22.0856 12.7044 22.2048 12.5972 22.2999 12.4699C22.395 12.3426 22.4642 12.1979 22.5033 12.0439C22.5425 11.8899 22.551 11.7297 22.5282 11.5725C22.5055 11.4152 22.452 11.264 22.3708 11.1274C22.2896 10.9909 22.1824 10.8716 22.0551 10.7765C21.9278 10.6814 21.7831 10.6123 21.6291 10.5731C21.4751 10.5339 21.3149 10.5255 21.1577 10.5482C21.0004 10.571 20.8492 10.6244 20.7126 10.7056L19.7235 11.2874C18.9645 10.4938 17.9878 9.94223 16.9163 9.70199V8.48017C16.9163 8.32067 16.8849 8.16274 16.8238 8.01538C16.7628 7.86803 16.6733 7.73414 16.5605 7.62136C16.4478 7.50858 16.3139 7.41911 16.1665 7.35808C16.0192 7.29704 15.8612 7.26562 15.7017 7.26562C15.5422 7.26562 15.3843 7.29704 15.2369 7.35808C15.0896 7.41911 14.9557 7.50858 14.8429 7.62136C14.7301 7.73414 14.6407 7.86803 14.5796 8.01538C14.5186 8.16274 14.4872 8.32067 14.4872 8.48017V9.70199C13.3817 9.94926 12.3926 10.5311 11.6363 11.3456L10.5599 10.7056C10.2822 10.5397 9.94988 10.491 9.63618 10.5701C9.32249 10.6492 9.05306 10.8497 8.88718 11.1274C8.7213 11.4052 8.67255 11.7375 8.75166 12.0512C8.83076 12.3649 9.03125 12.6343 9.309 12.8002L10.3854 13.4256C10.0199 14.5457 10.0199 15.7529 10.3854 16.8729L9.309 17.4984C9.17096 17.5781 9.05008 17.6844 8.95333 17.8111C8.85658 17.9378 8.78589 18.0824 8.74532 18.2365C8.70475 18.3907 8.69511 18.5514 8.71696 18.7093C8.73882 18.8672 8.79172 19.0192 8.87264 19.1565H8.88718ZM15.709 12.0002C16.5461 12.0021 17.3482 12.3365 17.9388 12.9298C18.5293 13.5231 18.86 14.3267 18.8581 15.1638C18.8562 16.0009 18.5218 16.803 17.9285 17.3936C17.3352 17.9841 16.5316 18.3148 15.6945 18.3129C14.8573 18.3129 14.0545 17.9804 13.4626 17.3884C12.8706 16.7965 12.5381 15.9937 12.5381 15.1565C12.5381 14.3194 12.8706 13.5166 13.4626 12.9246C14.0545 12.3327 14.8573 12.0002 15.6945 12.0002H15.709Z" fill="#365EDC"/>
</g>
</svg>
