<svg width="76" height="76" viewBox="0 0 76 76" fill="none" xmlns="http://www.w3.org/2000/svg">
<mask id="mask0_31_3290" style="mask-type:luminance" maskUnits="userSpaceOnUse" x="0" y="0" width="76" height="76">
<path d="M0 0H76V76H0V0Z" fill="white"/>
</mask>
<g mask="url(#mask0_31_3290)">
<path d="M76 36.8125V38.7434C76 39.5307 75.6872 40.2859 75.1305 40.8426C74.5737 41.3993 73.8186 41.7121 73.0312 41.7121C72.2439 41.7121 71.4888 41.3993 70.932 40.8426C70.3753 40.2859 70.0625 39.5307 70.0625 38.7434V36.8125C70.0625 30.2646 64.7354 24.9375 58.1875 24.9375H17.8125C11.2646 24.9375 5.9375 30.2646 5.9375 36.8125V58.1875C5.9375 64.7354 11.2646 70.0625 17.8125 70.0625H37.5535C38.3409 70.0625 39.096 70.3753 39.6527 70.932C40.2095 71.4888 40.5223 72.2439 40.5223 73.0312C40.5223 73.8186 40.2095 74.5737 39.6527 75.1305C39.096 75.6872 38.3409 76 37.5535 76H17.8125C7.9895 76 0 68.0105 0 58.1875V36.8125C0 26.9919 7.9895 19 17.8125 19H58.1875C68.0081 19 76 26.9895 76 36.8125ZM30.7254 50.0246C28.0098 50.0215 25.4065 48.9412 23.4865 47.0208C21.5666 45.1004 20.4869 42.4968 20.4844 39.7812C20.4844 38.9939 20.1716 38.2388 19.6149 37.682C19.0581 37.1253 18.303 36.8125 17.5156 36.8125C16.7283 36.8125 15.9731 37.1253 15.4164 37.682C14.8597 38.2388 14.5469 38.9939 14.5469 39.7812C14.5513 44.0709 16.2571 48.1837 19.2902 51.2172C22.3232 54.2506 26.4357 55.9571 30.7254 55.9621H36.366C37.1534 55.9621 37.9085 55.6493 38.4652 55.0926C39.022 54.5359 39.3348 53.7807 39.3348 52.9934C39.3348 52.206 39.022 51.4509 38.4652 50.8941C37.9085 50.3374 37.1534 50.0246 36.366 50.0246H30.7254ZM26.866 13.2121C28.5048 13.2121 29.8348 11.8821 29.8348 10.2434C29.8348 7.86837 31.7656 5.9375 34.1406 5.9375H41.8594C44.2344 5.9375 46.1629 7.86837 46.1629 10.2434C46.1629 11.0307 46.4757 11.7859 47.0324 12.3426C47.5891 12.8993 48.3443 13.2121 49.1316 13.2121C49.919 13.2121 50.6741 12.8993 51.2309 12.3426C51.7876 11.7859 52.1004 11.0307 52.1004 10.2434C52.0979 7.52785 51.0182 4.92422 49.0982 3.00383C47.1783 1.08344 44.5749 0.003144 41.8594 0H34.1406C31.4247 0.00251534 28.8207 1.08253 26.9002 3.00299C24.9798 4.92345 23.8998 7.52743 23.8973 10.2434C23.8973 11.8821 25.2273 13.2121 26.866 13.2121ZM38 34.7344C37.5048 34.7218 37.0121 34.8086 36.5509 34.9894C36.0897 35.1703 35.6693 35.4416 35.3146 35.7875C34.96 36.1333 34.6781 36.5466 34.4856 37.0031C34.2931 37.4596 34.194 37.9499 34.194 38.4453C34.194 38.9407 34.2931 39.4311 34.4856 39.8875C34.6781 40.344 34.96 40.7573 35.3146 41.1032C35.6693 41.449 36.0897 41.7203 36.5509 41.9012C37.0121 42.0821 37.5048 42.1688 38 42.1562C38.9679 42.1318 39.888 41.73 40.564 41.0368C41.2399 40.3435 41.6182 39.4136 41.6182 38.4453C41.6182 37.4771 41.2399 36.5471 40.564 35.8538C39.888 35.1606 38.9679 34.7589 38 34.7344ZM75.5772 67.2861C75.1719 67.961 74.515 68.4472 73.7512 68.6378C72.9874 68.8285 72.1791 68.7079 71.5041 68.3026L69.4901 67.0938C67.8498 68.7393 65.7869 69.8998 63.5289 70.4473V73.0312C63.5289 73.8186 63.2161 74.5737 62.6594 75.1305C62.1026 75.6872 61.3475 76 60.5601 76C59.7728 76 59.0177 75.6872 58.4609 75.1305C57.9042 74.5737 57.5914 73.8186 57.5914 73.0312V70.4473C55.2842 69.8851 53.1825 68.6832 51.528 66.9798L49.324 68.3026C48.9897 68.5032 48.6191 68.6359 48.2334 68.6932C47.8478 68.7506 47.4546 68.7314 47.0764 68.6368C46.6982 68.5422 46.3423 68.374 46.0291 68.1418C45.7159 67.9097 45.4514 67.6181 45.2509 67.2838C45.0503 66.9494 44.9176 66.5788 44.8603 66.1932C44.8029 65.8076 44.8221 65.4144 44.9167 65.0362C45.0114 64.658 45.1795 64.3021 45.4117 63.9888C45.6438 63.6756 45.9354 63.4112 46.2697 63.2106L48.4975 61.8759C47.7598 59.4723 47.7598 56.9027 48.4975 54.4991L46.2697 53.162C45.9253 52.9666 45.6235 52.7043 45.3819 52.3905C45.1404 52.0767 44.9641 51.7178 44.8634 51.3348C44.7626 50.9519 44.7396 50.5526 44.7955 50.1606C44.8514 49.7686 44.9851 49.3917 45.1889 49.0522C45.3927 48.7126 45.6623 48.4173 45.9819 48.1835C46.3015 47.9497 46.6647 47.7823 47.05 47.691C47.4353 47.5997 47.835 47.5864 48.2255 47.6519C48.6161 47.7174 48.9896 47.8604 49.324 48.0724L51.528 49.3929C53.1832 47.6891 55.2858 46.4872 57.5938 45.9254V43.3438C57.5938 42.5564 57.9065 41.8013 58.4633 41.2445C59.02 40.6878 59.7751 40.375 60.5625 40.375C61.3499 40.375 62.105 40.6878 62.6617 41.2445C63.2185 41.8013 63.5312 42.5564 63.5312 43.3438V45.9254C65.8231 46.4811 67.8751 47.6615 69.4901 49.2789L71.5041 48.0724C71.8386 47.8604 72.2121 47.7174 72.6026 47.6519C72.9931 47.5864 73.3928 47.5997 73.7781 47.691C74.1634 47.7823 74.5266 47.9497 74.8462 48.1835C75.1658 48.4173 75.4355 48.7126 75.6392 49.0522C75.843 49.3917 75.9768 49.7686 76.0327 50.1606C76.0886 50.5526 76.0655 50.9519 75.9648 51.3348C75.8641 51.7178 75.6877 52.0767 75.4462 52.3905C75.2047 52.7043 74.9028 52.9666 74.5584 53.162L72.58 54.3495C73.3805 56.8456 73.3805 59.5294 72.58 62.0255L74.5584 63.213C74.8927 63.4135 75.1843 63.678 75.4165 63.9912C75.6486 64.3044 75.8168 64.6603 75.9114 65.0385C76.0061 65.4168 76.0252 65.8099 75.9679 66.1956C75.9106 66.5812 75.7778 66.9518 75.5772 67.2861ZM67.241 58.1875C67.2391 56.4166 66.535 54.7188 65.283 53.4663C64.031 52.2139 62.3334 51.5091 60.5625 51.5066C58.7912 51.5085 57.093 52.213 55.8405 53.4655C54.588 54.718 53.8835 56.4162 53.8816 58.1875C53.8835 59.9588 54.588 61.657 55.8405 62.9095C57.093 64.162 58.7912 64.8665 60.5625 64.8684C62.3334 64.8659 64.031 64.1611 65.283 62.9087C66.535 61.6562 67.2391 59.9584 67.241 58.1875Z" fill="#365EDC"/>
</g>
</svg>
