<svg width="32" height="32" viewBox="0 0 32 32" fill="none" xmlns="http://www.w3.org/2000/svg">
<mask id="mask0_31_3209" style="mask-type:luminance" maskUnits="userSpaceOnUse" x="0" y="0" width="32" height="32">
<path d="M0.47998 0.47998H31.5054V31.5054H0.47998V0.47998Z" fill="white"/>
</mask>
<g mask="url(#mask0_31_3209)">
<path d="M23.3453 13.2363C23.4803 12.9432 23.4933 12.6083 23.3815 12.3056C23.2696 12.0028 23.0421 11.7568 22.7489 11.6218C22.4557 11.4868 22.1209 11.4738 21.8181 11.5856C21.5154 11.6974 21.2694 11.925 21.1344 12.2182C20.5745 13.4267 19.614 14.4045 18.4156 14.9859C17.2173 15.5674 15.8548 15.7167 14.559 15.4085C13.2632 15.1004 12.1138 14.3538 11.3054 13.2952C10.4971 12.2367 10.0795 10.9312 10.1235 9.59998C11.835 10.8353 13.8891 11.5064 15.9998 11.52C17.7017 11.52 19.4326 10.9963 20.8871 10.0654C21.8411 9.5141 22.5951 8.67357 23.0398 7.66543C23.2871 7.4618 23.6362 7.17089 23.9853 6.85089C25.0907 5.81816 25.5853 5.00362 25.5853 4.23271C25.5853 3.44725 24.9162 2.96725 24.2035 2.57453C21.6635 1.26237 18.858 0.546066 15.9998 0.47998C13.1346 0.545567 10.319 1.24079 7.75256 2.51634C7.27256 2.77816 6.3562 3.27271 6.3562 4.17453C6.3562 4.75634 6.58893 5.57089 8.20347 7.05452C7.73862 8.29139 7.58163 9.62277 7.74607 10.9338C7.9105 12.2449 8.39141 13.4963 9.14732 14.58C9.90322 15.6638 10.9114 16.5474 12.085 17.1546C13.2585 17.7618 14.5622 18.0744 15.8835 18.0654C19.098 18.0654 22.0362 16.1745 23.3453 13.2218V13.2363ZM11.1998 3.72362C12.858 3.19998 14.5744 2.90907 15.9998 2.90907C18.3704 2.94861 20.7017 3.52026 22.8217 4.5818C22.4726 4.95998 21.9489 5.45453 21.3962 5.89089C19.0512 5.0884 16.5575 4.81519 14.0944 5.09089C13.7761 5.12947 13.4862 5.29289 13.2885 5.54521C13.0907 5.79753 13.0013 6.11808 13.0398 6.43634C13.0784 6.7546 13.2418 7.0445 13.4942 7.24227C13.7465 7.44003 14.067 7.52947 14.3853 7.49089C16.1799 7.27749 17.999 7.42084 19.738 7.91271L19.3453 8.15998C18.0712 8.9027 16.5925 9.21731 15.1265 9.05761C13.6604 8.89791 12.2841 8.27232 11.1998 7.27271C11.1752 6.98687 11.0944 6.7087 10.9621 6.45411C10.8299 6.19953 10.6487 5.97354 10.4289 5.78907C9.96511 5.41215 9.53222 4.99871 9.13438 4.55271C9.61438 4.31998 10.3126 4.02907 11.1998 3.75271V3.72362ZM27.9271 30.2982C27.9271 30.6203 27.7991 30.9292 27.5714 31.157C27.3436 31.3847 27.0347 31.5127 26.7126 31.5127C26.3904 31.5127 26.0815 31.3847 25.8537 31.157C25.626 30.9292 25.498 30.6203 25.498 30.2982C25.498 26.9527 23.6507 23.9854 20.6689 22.5454C20.5257 22.4757 20.3975 22.3785 20.2919 22.2592C20.1862 22.14 20.105 22.0011 20.053 21.8505C20.001 21.6999 19.9792 21.5405 19.9888 21.3815C19.9984 21.2225 20.0392 21.0669 20.1089 20.9236C20.2497 20.6343 20.4997 20.4127 20.8039 20.3077C20.9545 20.2557 21.1138 20.2339 21.2729 20.2435C21.4319 20.2531 21.5875 20.2939 21.7307 20.3636C23.5988 21.2622 25.1731 22.6731 26.2701 24.432C27.3671 26.1909 27.9418 28.2253 27.9271 30.2982ZM11.9271 20.9309C12.218 21.5273 11.9562 22.2545 11.3598 22.5454C9.90225 23.252 8.6718 24.3529 7.80798 25.7232C6.94416 27.0935 6.48154 28.6784 6.47256 30.2982C6.47256 30.6203 6.3446 30.9292 6.11683 31.157C5.88906 31.3847 5.58013 31.5127 5.25802 31.5127C4.9359 31.5127 4.62697 31.3847 4.3992 31.157C4.17143 30.9292 4.04347 30.6203 4.04347 30.2982C4.04012 28.2166 4.6292 26.1771 5.74189 24.4179C6.85458 22.6588 8.44493 21.2525 10.3271 20.3636C10.471 20.2922 10.6277 20.2502 10.7881 20.2401C10.9484 20.23 11.1092 20.252 11.2609 20.3049C11.4126 20.3577 11.5522 20.4403 11.6716 20.5478C11.791 20.6553 11.8878 20.7855 11.9562 20.9309H11.9271ZM15.9998 31.52C15.6838 31.5185 15.3809 31.3932 15.1562 31.1709L13.7598 29.8182C13.272 29.3468 12.9282 28.7465 12.7686 28.0872C12.6089 27.4279 12.6399 26.7368 12.858 26.0945L14.8653 20.6691C14.95 20.4362 15.1043 20.235 15.3073 20.0929C15.5102 19.9507 15.752 19.8745 15.9998 19.8745C16.2476 19.8745 16.4894 19.9507 16.6924 20.0929C16.8954 20.235 17.0497 20.4362 17.1344 20.6691L19.1417 26.0509V26.0945C19.578 27.4036 19.2435 28.8436 18.2398 29.8182L16.8435 31.1709C16.6188 31.3932 16.3159 31.5185 15.9998 31.52ZM15.4471 28.0872L15.9998 28.6109L16.5526 28.0872C16.7101 27.934 16.821 27.7393 16.8725 27.5257C16.924 27.312 16.9139 27.0881 16.8435 26.88L15.9998 24.5818L15.1417 26.88C15.0107 27.3163 15.1271 27.7527 15.4471 28.0872Z" fill="#365EDC"/>
</g>
</svg>
