<svg width="76" height="76" viewBox="0 0 76 76" fill="none" xmlns="http://www.w3.org/2000/svg">
<g clip-path="url(#clip0_31_3259)">
<path d="M40.375 32.6562C40.375 31.0175 39.045 29.6875 37.4062 29.6875H8.90625C7.2675 29.6875 5.9375 28.3575 5.9375 26.7188C5.9375 25.08 7.2675 23.75 8.90625 23.75H37.4062C38.1936 23.75 38.9487 23.4372 39.5055 22.8805C40.0622 22.3237 40.375 21.5686 40.375 20.7812C40.375 19.9939 40.0622 19.2388 39.5055 18.682C38.9487 18.1253 38.1936 17.8125 37.4062 17.8125H8.90625C6.54494 17.815 4.28106 18.7542 2.61136 20.4239C0.941657 22.0936 0.00251471 24.3574 0 26.7188C0.00251471 29.0801 0.941657 31.3439 2.61136 33.0136C4.28106 34.6833 6.54494 35.6225 8.90625 35.625H37.4062C39.045 35.625 40.375 34.295 40.375 32.6562Z" fill="#365EDC"/>
<path d="M71.2358 16.7913C72.6746 16.0378 73.8794 14.9044 74.7193 13.5143C75.5593 12.1241 76.0022 10.5304 76 8.90625C75.9975 6.54494 75.0583 4.28106 73.3886 2.61136C71.7189 0.941657 69.4551 0.00251471 67.0938 0L49.2813 0C46.9199 0.00251471 44.6561 0.941657 42.9864 2.61136C41.3167 4.28106 40.3775 6.54494 40.375 8.90625C40.375 12.2241 42.199 15.2475 45.1393 16.7913C45.8399 17.1618 46.3125 18.1141 46.3125 19.1615V34.276C46.3125 35.3234 45.8399 36.2757 45.1393 36.6463C43.7004 37.3997 42.4956 38.5331 41.6557 39.9232C40.8157 41.3134 40.3728 42.9071 40.375 44.5312C40.3775 46.8926 41.3167 49.1564 42.9864 50.8261C44.6561 52.4958 46.9199 53.435 49.2813 53.4375H67.0938C69.4551 53.435 71.7189 52.4958 73.3886 50.8261C75.0583 49.1564 75.9975 46.8926 76 44.5312C76 41.2134 74.176 38.19 71.2358 36.6463C70.5351 36.2757 70.0625 35.3234 70.0625 34.276V19.1615C70.0625 18.1141 70.5351 17.1618 71.2358 16.7913ZM68.4713 41.8997C69.0623 42.206 69.5333 42.7021 69.8082 43.3084C70.0832 43.9146 70.1463 44.5957 69.9872 45.2422C69.8282 45.8886 69.4564 46.4628 68.9316 46.8723C68.4068 47.2818 67.7595 47.5029 67.0938 47.5H49.2813C48.6178 47.4986 47.974 47.2751 47.4522 46.8653C46.9305 46.4554 46.561 45.8828 46.4026 45.2385C46.2441 44.5943 46.3058 43.9156 46.5779 43.3105C46.8499 42.7054 47.3167 42.2088 47.9038 41.8997C50.5851 40.489 52.25 37.5677 52.25 34.276V19.1615C52.25 15.8697 50.5851 12.9485 47.9038 11.5377C47.3127 11.2315 46.8418 10.7354 46.5668 10.1291C46.2918 9.52288 46.2288 8.84175 46.3878 8.19532C46.5468 7.54889 46.9186 6.97473 47.4434 6.56521C47.9682 6.15568 48.6156 5.93459 49.2813 5.9375H67.0938C67.7572 5.93893 68.4011 6.16237 68.9228 6.57222C69.4445 6.98206 69.814 7.55473 69.9725 8.19896C70.1309 8.84319 70.0692 9.52193 69.7971 10.127C69.5251 10.7321 69.0583 11.2287 68.4713 11.5377C65.7899 12.9485 64.125 15.8697 64.125 19.1615V34.276C64.125 37.5677 65.7899 40.489 68.4713 41.8997ZM67.0938 58.1875H49.2813C46.9199 58.19 44.6561 59.1292 42.9864 60.7989C41.3167 62.4686 40.3775 64.7324 40.375 67.0938C40.3775 69.4551 41.3167 71.7189 42.9864 73.3886C44.6561 75.0583 46.9199 75.9975 49.2813 76H67.0938C69.4551 75.9975 71.7189 75.0583 73.3886 73.3886C75.0583 71.7189 75.9975 69.4551 76 67.0938C75.9975 64.7324 75.0583 62.4686 73.3886 60.7989C71.7189 59.1292 69.4551 58.19 67.0938 58.1875ZM67.0938 70.0625H49.2813C47.6425 70.0625 46.3125 68.7325 46.3125 67.0938C46.3125 65.455 47.6425 64.125 49.2813 64.125H67.0938C68.7325 64.125 70.0625 65.455 70.0625 67.0938C70.0625 68.7325 68.7325 70.0625 67.0938 70.0625Z" fill="#365EDC"/>
</g>
<defs>
<clipPath id="clip0_31_3259">
<rect width="76" height="76" fill="white"/>
</clipPath>
</defs>
</svg>
