<svg width="32" height="32" viewBox="0 0 32 32" fill="none" xmlns="http://www.w3.org/2000/svg">
<g clip-path="url(#clip0_31_3303)">
<path d="M24.563 16.875C24.563 17.565 24.003 18.125 23.313 18.125H8.688C8.35648 18.125 8.03854 17.9933 7.80412 17.7589C7.5697 17.5245 7.438 17.2065 7.438 16.875C7.438 16.5435 7.5697 16.2255 7.80412 15.9911C8.03854 15.7567 8.35648 15.625 8.688 15.625H14.75V6.25C14.75 5.91848 14.8817 5.60054 15.1161 5.36612C15.3505 5.1317 15.6685 5 16 5C16.3315 5 16.6495 5.1317 16.8839 5.36612C17.1183 5.60054 17.25 5.91848 17.25 6.25V15.625H23.313C24.003 15.625 24.563 16.185 24.563 16.875ZM32 16.875C32 17.565 31.44 18.125 30.75 18.125H29.5V24.5C29.4986 25.6391 29.109 26.7436 28.3954 27.6315C27.6819 28.5193 26.6871 29.1375 25.575 29.384C25.3332 30.1426 24.8566 30.8048 24.2141 31.275C23.5715 31.7451 22.7962 31.999 22 32C21.2246 31.9992 20.4685 31.7585 19.8354 31.3109C19.2023 30.8633 18.7233 30.2307 18.464 29.5H13.536C13.2767 30.2307 12.7977 30.8633 12.1646 31.3109C11.5315 31.7585 10.7754 31.9992 10 32C9.20379 31.999 8.42848 31.7451 7.78592 31.275C7.14337 30.8048 6.66681 30.1426 6.425 29.384C5.31294 29.1375 4.31811 28.5193 3.60458 27.6315C2.89104 26.7436 2.50143 25.6391 2.5 24.5V18.125H1.25C0.918479 18.125 0.600537 17.9933 0.366117 17.7589C0.131696 17.5245 0 17.2065 0 16.875C0 16.5435 0.131696 16.2255 0.366117 15.9911C0.600537 15.7567 0.918479 15.625 1.25 15.625H2.5V8.056C2.50263 6.35292 3.08252 4.70103 4.145 3.37C5.21096 2.04064 6.69674 1.11264 8.359 0.738C10.547 0.248 13.14 0 16.063 0C18.924 0 21.46 0.238 23.599 0.708C25.2693 1.07652 26.7647 2.00179 27.84 3.332C28.9122 4.66519 29.4978 6.32414 29.5 8.035V15.625H30.75C31.44 15.625 32 16.185 32 16.875ZM27 8.035C27.0049 6.89226 26.6162 5.78269 25.8992 4.89287C25.1822 4.00304 24.1806 3.38723 23.063 3.149C21.1 2.719 18.744 2.5 16.063 2.5C13.323 2.5 10.914 2.728 8.905 3.178C7.79427 3.42166 6.80069 4.03884 6.09004 4.92657C5.37938 5.81429 4.99464 6.91887 5 8.056V24.5C5 25.878 6.122 27 7.5 27C8.19 27 8.75 27.56 8.75 28.25C8.75 28.94 9.31 29.5 10 29.5C10.69 29.5 11.25 28.94 11.25 28.25C11.25 27.56 11.81 27 12.5 27H19.5C20.19 27 20.75 27.56 20.75 28.25C20.75 28.94 21.31 29.5 22 29.5C22.69 29.5 23.25 28.94 23.25 28.25C23.25 27.56 23.81 27 24.5 27C25.878 27 27 25.878 27 24.5V8.035Z" fill="#365EDC"/>
<path d="M10.563 22.25C10.563 22.4553 10.5226 22.6585 10.444 22.8481C10.3655 23.0378 10.2504 23.2101 10.1052 23.3552C9.96008 23.5004 9.78778 23.6155 9.59815 23.694C9.40851 23.7726 9.20527 23.813 9.00001 23.813C8.79476 23.813 8.59151 23.7726 8.40188 23.694C8.21225 23.6155 8.03994 23.5004 7.8948 23.3552C7.74967 23.2101 7.63454 23.0378 7.55599 22.8481C7.47744 22.6585 7.43701 22.4553 7.43701 22.25C7.44732 21.8425 7.61647 21.4551 7.90837 21.1704C8.20027 20.8858 8.59182 20.7265 8.99951 20.7265C9.4072 20.7265 9.79875 20.8858 10.0907 21.1704C10.3826 21.4551 10.5527 21.8425 10.563 22.25ZM22.937 20.687C22.5225 20.687 22.1249 20.8517 21.8318 21.1448C21.5387 21.4379 21.374 21.8355 21.374 22.25C21.374 22.6645 21.5387 23.0621 21.8318 23.3552C22.1249 23.6483 22.5225 23.813 22.937 23.813C23.3446 23.8027 23.732 23.6336 24.0166 23.3417C24.3012 23.0498 24.4605 22.6582 24.4605 22.2505C24.4605 21.8428 24.3012 21.4513 24.0166 21.1594C23.732 20.8675 23.3446 20.6973 22.937 20.687Z" fill="#365EDC"/>
</g>
<defs>
<clipPath id="clip0_31_3303">
<rect width="32" height="32" fill="white"/>
</clipPath>
</defs>
</svg>
