<svg width="19" height="20" viewBox="0 0 19 20" fill="none" xmlns="http://www.w3.org/2000/svg">
<g clip-path="url(#clip0_3_2672)">
<path d="M10 8.45994V9.5C10 10.3284 10.6716 11 11.5 11H12.5C13.3284 11 14 10.3284 14 9.5V5.36498C14 5.16341 13.8366 5 13.635 5C13.5479 5 13.4636 5.03117 13.3975 5.08787L10.3492 7.70068C10.1276 7.89066 10 8.16801 10 8.45994Z" fill="#999999"/>
<path d="M5 9.5V8.45994C5 8.16801 5.12756 7.89066 5.34921 7.70068L8.39749 5.08787C8.46364 5.03117 8.54789 5 8.63502 5C8.83659 5 9 5.16341 9 5.36498V9.5C9 10.3284 8.32843 11 7.5 11H6.5C5.67157 11 5 10.3284 5 9.5Z" fill="#999999"/>
<path fill-rule="evenodd" clip-rule="evenodd" d="M2.563e-06 4C2.98e-06 1.79086 1.79087 0 4.00001 0H15C17.2092 0 19 1.79086 19 4V12C19 14.2091 17.2092 16 15 16H5.38587L2.50758 18.6098C1.54357 19.4839 0 18.7999 0 17.4986L2.563e-06 4ZM4.00001 2C2.89544 2 2.00001 2.89543 2.00001 4L2 16.3703L4.04244 14.5184C4.41036 14.1848 4.88923 14 5.38587 14H15C16.1046 14 17 13.1046 17 12V4C17 2.89543 16.1046 2 15 2H4.00001Z" fill="#999999"/>
</g>
<defs>
<clipPath id="clip0_3_2672">
<rect width="19" height="20" fill="white"/>
</clipPath>
</defs>
</svg>
