<svg width="291" height="228" viewBox="0 0 291 228" fill="none" xmlns="http://www.w3.org/2000/svg">
<g clip-path="url(#clip0_7_979)">
<path d="M34.8267 226.299C34.2713 223.574 34.1047 220.903 32.9938 218.287C31.994 215.889 30.4387 213.654 28.328 212.074C26.9393 211.038 24.7731 209.894 22.9957 210.547C22.8845 210.384 22.7179 210.22 22.5512 210.112C21.5514 209.294 19.3296 208.858 18.1076 209.403C16.6634 210.056 16.6635 211.637 16.5524 213C16.4412 214.09 16.3301 215.126 16.2746 216.216C15.5525 215.071 14.7193 214.308 13.7751 214.689C13.3862 212.182 12.8308 209.511 11.1645 207.495C9.94241 206.023 8.38712 205.043 7.05403 206.896C5.38766 209.294 5.72094 212.564 6.05422 215.29C6.38748 217.742 6.99849 220.139 7.72058 222.538C5.49876 219.977 2.88811 217.742 2.05492 219.868C1.38838 221.557 3.55467 224.718 4.49895 225.918C5.44322 227.116 6.60966 228.152 7.88721 229.078C9.3314 230.168 11.22 231.041 11.7199 232.949C11.7199 232.949 11.7198 233.003 11.7755 233.003C11.4976 233.275 11.6087 233.766 12.0532 233.766C14.997 233.548 17.33 235.51 20.1628 235.837C21.8847 236.055 23.6622 235.62 25.3841 235.51C27.106 235.401 28.8279 235.62 30.5498 235.401C32.6605 235.183 34.9378 234.366 35.9377 232.404C37.1597 229.951 35.3268 228.643 34.8267 226.299Z" fill="#3C7A59"/>
<path d="M289.39 195.122C289.168 194.958 288.89 194.85 288.557 194.741C287.334 194.413 285.558 194.686 283.003 195.831C277.67 198.284 273.338 202.862 270.06 207.768C266.061 213.817 263.061 220.522 259.117 226.625C255.396 232.403 250.675 237.581 248.342 244.122C246.953 247.937 246.342 251.915 246.009 255.894C245.787 258.401 244.564 261.399 246.565 262.216C246.786 262.326 247.12 262.38 247.453 262.434C247.786 262.489 248.176 262.489 248.564 262.434C252.452 262.108 256.563 254.913 258.729 252.243C263.673 246.248 267.227 239.161 272.17 233.166C275.615 228.969 279.725 225.317 282.725 220.848C285.39 216.979 294.334 198.393 289.39 195.122Z" fill="#3C7A59"/>
<path d="M289.39 195.122L272.17 218.723C267.06 225.754 261.116 232.785 258.339 241.124C256.951 245.32 255.784 249.027 253.34 252.788C251.286 255.948 249.286 259.164 247.508 262.489C247.286 262.925 247.064 263.362 246.786 263.797C238.788 279.168 234.733 296.554 236.788 313.832C236.844 314.377 235.954 314.377 235.899 313.832C234.788 304.457 235.455 294.973 237.621 285.762C239.565 277.587 242.676 269.684 246.62 262.272C246.675 262.216 246.675 262.108 246.73 262.053C248.786 258.293 251.174 254.75 253.396 251.098C255.895 247.01 256.673 242.487 258.562 238.126C262.006 230.005 268.004 222.974 273.17 215.889C278.28 208.858 283.446 201.827 288.557 194.796C288.89 194.85 289.168 194.959 289.39 195.122Z" fill="#3C7A59"/>
<path d="M287.225 162.583C286.836 161.82 286.281 161.221 285.614 160.73C285.392 160.512 285.115 160.349 284.837 160.239C283.448 159.422 281.782 159.149 280.059 159.313C276.561 159.75 273.839 161.82 271.562 164.273C268.673 167.326 266.173 170.378 262.618 172.776C259.563 174.847 256.231 176.646 253.509 179.153C247.51 184.657 246.621 192.778 245.455 200.354C244.121 209.13 240.789 215.671 237.345 223.682C233.846 231.913 230.125 240.307 228.736 249.19C228.181 252.624 227.958 256.112 228.402 259.601C228.68 261.781 229.347 264.615 230.624 264.941C230.901 264.997 231.179 264.997 231.513 264.833C231.957 264.669 232.402 264.233 232.957 263.525C234.734 261.236 234.846 257.911 236.179 255.403C238.345 251.37 240.844 247.555 243.844 244.066C246.455 241.069 248.732 237.962 250.288 234.311C251.898 230.495 252.953 226.463 254.286 222.483C257.064 214.254 260.674 206.133 266.34 199.374C269.117 196.048 272.505 193.269 275.616 190.271C278.449 187.492 281.004 184.44 283.059 181.06C286.003 176.265 290.336 168.252 287.225 162.583Z" fill="#3C7A59"/>
<path d="M285.614 160.73C283.114 170.105 275.283 177.299 268.284 183.895C264.174 187.765 260.063 191.744 257.064 196.485C253.898 201.445 252.787 206.95 251.62 212.618C250.509 218.069 248.954 223.029 245.622 227.607C242.122 232.403 238.567 236.818 236.29 242.323C233.345 249.518 232.069 257.148 231.513 264.887C231.235 268.594 231.124 272.245 231.068 275.952C230.846 289.142 231.457 302.277 232.902 315.413C232.957 315.958 232.069 315.958 232.013 315.413C230.458 300.914 229.847 286.307 230.29 271.7C230.346 269.466 230.458 267.231 230.624 265.051C231.235 256.712 232.624 248.428 236.012 240.742C238.344 235.456 241.956 231.258 245.232 226.626C248.732 221.666 249.953 216.106 251.121 210.329C252.175 205.097 253.62 200.082 256.62 195.559C259.563 191.089 263.451 187.274 267.339 183.623C274.339 176.973 282.393 169.833 284.837 160.295C285.115 160.349 285.392 160.512 285.614 160.73Z" fill="#3C7A59"/>
<path d="M246.455 152.501C246.455 152.391 246.455 152.228 246.399 152.118C245.899 147.431 244.455 142.853 243.789 138.22C242.844 131.026 243.733 123.668 242.234 116.582C240.845 110.042 237.457 103.937 232.569 99.2502C230.958 97.724 228.848 96.2524 226.625 96.5794C226.514 96.5794 226.347 96.6339 226.236 96.6885C225.959 96.743 225.681 96.852 225.403 96.961C223.737 97.7785 222.571 99.5772 221.793 101.321C218.96 107.698 218.683 115.165 221.015 121.706C222.515 126.012 225.07 129.936 226.181 134.351C227.68 140.292 226.459 146.56 226.292 152.719C226.126 159.368 227.847 165.908 227.958 172.558C228.07 179.262 226.014 185.803 225.348 192.452C225.015 195.722 224.292 204.498 227.57 204.933C227.847 204.987 228.125 204.933 228.513 204.879C229.291 204.66 230.292 204.061 231.458 202.971C237.512 197.357 239.234 187.656 241.623 180.134C244.511 171.141 247.4 161.875 246.455 152.501Z" fill="#3C7A59"/>
<path d="M231.679 179.698C232.068 186.511 232.624 193.269 230.457 199.865C229.902 201.554 229.235 203.244 228.569 204.933C228.069 206.241 227.568 207.495 227.125 208.802C225.957 212.291 225.514 215.834 225.458 219.486C225.402 222.974 225.514 226.463 225.069 229.896C224.681 232.893 223.903 235.891 223.07 238.834C221.125 245.703 219.459 252.406 219.071 259.547C218.293 273.936 219.682 288.597 221.015 302.932C221.07 303.477 220.181 303.477 220.125 302.932C219.347 294.701 218.737 286.417 218.348 278.132C218.015 270.338 217.681 262.435 218.571 254.64C219.292 248.046 221.403 241.886 223.07 235.51C223.958 232.076 224.458 228.643 224.569 225.1C224.625 221.612 224.458 218.123 224.903 214.635C225.347 211.255 226.513 208.095 227.735 204.933C228.791 202.208 229.902 199.483 230.568 196.649C232.179 189.726 230.901 182.587 230.735 175.556C230.568 168.416 231.791 161.385 232.679 154.3C233.568 147.595 233.901 140.837 233.568 134.078C233.012 121.379 230.235 108.788 225.514 96.961C225.791 96.852 226.069 96.743 226.347 96.6885C231.624 109.824 234.456 123.886 234.568 138.002C234.623 152.01 230.846 165.691 231.679 179.698Z" fill="#3C7A59"/>
<path d="M147.529 60.1166C147.974 58.9176 147.974 57.6095 147.807 56.3014C147.419 53.0857 146.751 49.2159 145.53 46.2182C144.474 43.711 141.919 41.6399 139.531 40.3318C137.975 39.5142 136.253 39.4597 134.476 39.6777C132.588 37.6066 130.421 35.6989 127.644 34.9359C125.81 34.4454 124.033 34.8814 122.145 34.7724C119.868 34.6089 118.091 33.3008 115.924 32.8102C110.813 31.6656 104.815 34.7724 102.037 39.2417C97.0385 39.8412 92.5948 43.1115 91.7061 48.3438C91.3728 50.2515 91.9283 52.1591 92.2616 54.0667C92.4282 54.9933 92.5393 55.9744 92.4837 56.901C92.4282 57.882 91.9838 58.5906 91.7061 59.5171C91.4284 60.4437 91.4839 61.5883 91.3728 62.5694C91.2618 63.7139 91.1507 64.913 91.0396 66.0576C90.8174 68.4013 90.5952 70.7994 90.5952 73.1432C90.5952 76.4133 90.7062 83.3898 90.7062 83.3898C90.7062 83.3898 92.5393 82.9538 93.2058 82.7903C97.705 81.6457 102.26 80.8827 106.87 80.4467C110.869 80.0651 114.979 80.3376 118.924 79.6836C120.978 79.3566 122.867 78.539 124.867 77.9939C127.255 77.3399 129.7 77.2309 132.143 77.0674C133.976 76.9584 136.087 77.0129 137.809 76.3588C138.864 75.9773 139.142 75.3233 139.586 74.6692C141.142 74.6147 142.697 74.2877 143.696 73.0342C144.364 72.2165 144.364 70.9629 145.307 70.3634C146.085 69.8729 146.974 69.8184 147.696 69.1098C151.14 66.2756 149.529 63.0054 147.529 60.1166Z" fill="#351429"/>
<path d="M115.145 114.13L100.871 145.251L62.6553 116.474C62.6553 116.474 74.0421 110.805 79.0968 106.227C82.0406 103.611 87.0397 92.3829 90.7057 83.4442C92.1499 79.956 93.3719 76.7948 94.2606 74.6146C94.9827 72.7614 95.3715 71.6714 95.3715 71.6714L96.538 73.3611L112.98 97.1248C112.98 97.1248 111.702 99.4139 110.591 101.867C110.313 102.412 110.091 103.011 109.813 103.556C109.147 105.137 108.703 106.608 108.814 107.317C108.925 107.971 109.536 108.789 110.313 109.715C112.257 111.841 115.145 114.13 115.145 114.13Z" fill="#FFB292"/>
<path d="M115.59 118.49C115.479 116.964 115.423 112.931 113.702 112.277C112.757 111.95 111.035 113.04 110.202 113.421C108.147 114.402 106.203 115.601 103.925 116.146C99.2039 117.237 94.0937 116.201 89.4279 115.22C85.1509 114.348 80.8738 113.149 77.5966 110.097C77.2078 109.715 76.5413 110.315 76.9856 110.696C78.4854 112.113 80.2073 113.149 81.9847 113.966C81.8181 114.021 81.707 114.13 81.6515 114.348C81.4293 115.874 82.0403 117.019 82.7624 118.327C83.9844 120.507 84.7621 122.741 85.3731 125.14C86.1507 128.355 87.5948 130.481 90.3721 132.389C93.3716 134.405 96.8154 135.822 100.37 136.367C103.037 136.803 106.814 137.349 109.147 135.659C111.535 133.969 113.091 130.754 114.09 128.083C115.368 125.031 115.868 121.706 115.59 118.49Z" fill="white"/>
<path d="M108.869 107.371C108.981 108.025 109.591 108.843 110.369 109.77C107.259 109.007 102.315 107.045 100.427 101.867C97.5937 94.018 100.427 85.0793 100.427 85.0793L110.591 101.921C109.591 104.047 108.703 106.336 108.869 107.371Z" fill="#DF7B53" fill-opacity="0.6"/>
<path d="M141.808 70.2543C141.753 70.4178 141.753 70.5268 141.753 70.5268C141.753 70.5268 140.697 73.143 138.975 76.7403C138.586 77.6123 138.142 78.5389 137.697 79.4654C134.81 85.4608 130.865 92.8734 127.477 96.6341C122.811 101.758 115.979 104.483 109.869 103.556C107.758 103.284 105.759 102.521 103.926 101.376C97.4269 97.1792 95.0385 89.6577 94.2053 81.1551C94.1498 80.283 94.0386 79.4654 94.0386 78.5934C93.983 77.5033 94.0386 76.1407 94.2608 74.5601C95.9828 62.4057 106.314 38.3695 124.922 44.6919C144.418 51.3414 142.252 67.8561 141.808 70.2543Z" fill="#FFB292"/>
<path d="M115.757 74.2877C115.701 74.1242 115.59 74.0152 115.479 73.9062C114.312 73.0886 112.868 74.9962 112.424 75.8683C112.147 76.4133 112.035 77.1219 112.48 77.5034C112.757 77.7759 113.146 77.8304 113.535 77.7214C113.924 77.6124 114.201 77.3944 114.479 77.1219C114.979 76.6858 115.368 76.0863 115.645 75.4868C115.757 75.2143 115.868 74.9417 115.868 74.6147C115.812 74.5602 115.812 74.4512 115.757 74.2877Z" fill="#2E1607"/>
<path d="M131.586 78.7025C131.531 78.539 131.42 78.43 131.308 78.321C130.142 77.5034 128.698 79.411 128.253 80.2832C127.976 80.8282 127.865 81.5368 128.31 81.9183C128.588 82.1908 128.976 82.2453 129.364 82.1363C129.754 82.0273 130.031 81.8093 130.309 81.5368C130.809 81.1007 131.198 80.5012 131.475 79.9017C131.586 79.629 131.698 79.3565 131.698 79.0295C131.642 78.975 131.642 78.866 131.586 78.7025Z" fill="#2E1607"/>
<path d="M118.923 69.0555C118.255 68.7829 117.589 68.6194 116.979 68.4559C115.145 67.9654 113.256 67.6929 111.369 67.9654C110.757 68.0744 110.146 68.2379 109.647 68.5104C109.424 68.6194 109.258 68.7284 109.147 68.9465C108.924 69.328 109.147 69.9275 109.48 70.2001C109.869 70.4726 110.369 70.5816 110.813 70.6907C113.146 71.1267 115.478 71.5627 117.589 72.6528C118.423 73.0888 119.367 73.6883 120.256 73.3068C121.2 72.9253 121.422 71.6172 120.977 70.7452C120.534 69.9275 119.756 69.437 118.923 69.0555Z" fill="#351429"/>
<path d="M134.92 74.1785C134.309 73.9059 133.699 73.6334 132.976 73.4154C132.088 73.1429 131.199 73.0339 130.311 73.4154C129.366 73.7969 128.7 74.9416 129.2 75.8681C129.643 76.6857 130.754 76.8492 131.699 77.0672C133.809 77.5032 135.81 78.5388 137.697 79.5198C138.142 78.5388 138.587 77.6667 138.975 76.7947C137.809 75.6501 136.365 74.8326 134.92 74.1785Z" fill="#351429"/>
<path d="M121.422 92.8733C116.701 95.4894 110.98 93.2003 109.48 88.0769C109.314 87.5319 108.48 87.7499 108.647 88.2949C110.258 93.9634 116.645 96.525 121.867 93.5818C122.367 93.3638 121.922 92.6008 121.422 92.8733Z" fill="#DF7B53" fill-opacity="0.6"/>
<path d="M125.144 43.1115C106.759 36.244 94.872 61.2613 93.1501 73.4156C92.317 75.5958 92.2059 79.9561 90.7617 83.4444C91.8726 83.1174 92.8724 82.5177 93.7611 81.6457C93.9278 81.4822 94.0388 81.3732 94.2055 81.2097C95.0943 80.3376 95.8163 79.5201 96.8162 78.757C97.3716 78.321 97.4272 78.4845 97.5938 77.776C97.7604 77.0128 96.9828 75.7048 96.8162 74.9417C96.7051 74.4512 96.594 73.9062 96.594 73.4156C96.4829 72.2166 96.5385 70.9629 96.9273 69.7639C97.4272 68.1833 98.4825 66.3847 99.9823 65.567C100.704 65.1855 101.704 64.9675 102.482 64.9675C104.37 64.9675 103.593 67.9653 105.759 67.6382C106.648 67.4747 107.314 66.7117 107.814 66.0577C108.87 64.6405 109.592 63.0599 110.758 61.6973C111.313 61.0433 111.869 60.4438 112.48 59.8441C113.758 58.6451 114.535 58.8631 116.257 59.2446C117.59 59.5171 118.312 59.2446 119.59 58.9176C120.534 58.6996 121.478 58.5905 122.422 58.536C122.589 58.5905 122.7 58.6996 122.812 58.6996C123.7 59.0266 124.589 59.0266 125.477 59.2446C126.755 59.6261 127.478 60.4438 128.311 61.3703C129.144 62.2969 129.7 63.9864 130.81 64.6405C132.032 65.349 134.143 65.2945 135.809 65.349C136.142 66.0032 136.643 66.5482 137.309 66.9842C138.031 67.4747 138.642 67.4747 139.364 67.7472C140.531 68.1833 140.531 69.1643 141.364 69.8184C141.53 69.9819 141.752 70.0909 141.919 70.1454C142.252 67.8562 147.363 51.3961 125.144 43.1115Z" fill="#351429"/>
<path d="M122.2 78.7022C122.2 81.155 122.033 83.5531 121.589 86.0058C121.367 87.3684 120.978 88.731 119.534 89.385C118.533 89.821 116.201 89.603 115.423 88.949C114.979 88.622 114.368 89.2215 114.812 89.5485C116.423 90.8566 119.923 90.8566 121.367 89.3305C122.423 88.2404 122.423 86.4419 122.644 85.0793C122.978 82.9536 123.089 80.8279 123.089 78.7022C123.089 78.1572 122.2 78.1572 122.2 78.7022Z" fill="#DF7B53" fill-opacity="0.6"/>
<path d="M148.863 190.708C148.195 199.538 149.64 214.58 149.64 215.126C149.64 221.339 149.584 227.498 149.584 233.712C149.584 244.558 146.862 252.896 143.141 252.678C133.365 254.532 120.534 254.041 110.869 254.096C110.536 254.096 110.202 254.096 109.869 254.096C106.759 254.096 103.648 254.096 100.482 254.041C93.3723 253.986 86.2623 253.333 79.1525 254.096C74.1534 254.641 52.8239 253.496 52.8239 253.496C52.8239 253.496 38.8265 256.712 45.2697 231.749C46.6028 226.625 44.3255 221.231 44.2144 215.943C44.1033 210.984 44.7143 206.023 45.7141 201.173C44.992 194.85 44.2699 188.528 43.4923 182.206C42.9368 177.736 41.6037 173.702 40.4373 169.396C39.3264 165.418 40.3262 161.712 40.715 157.733C41.4926 150.156 37.5489 142.417 39.2708 134.95C40.0484 131.517 42.3814 129.554 45.0476 127.429L55.4346 119.144C58.3785 116.801 61.2669 114.402 64.6552 112.658C68.2101 110.805 71.9316 109.17 75.4866 107.262C75.5977 107.099 75.8199 106.99 76.0421 107.099C80.0413 109.115 83.6518 111.786 86.5957 115.111C89.5951 118.436 91.3726 122.305 93.5944 126.066C94.9831 128.41 96.6494 129.936 98.7601 131.626C99.6488 132.334 100.427 133.097 101.038 133.915C101.426 133.315 101.815 132.716 102.204 132.116C103.648 129.827 104.537 127.102 106.092 124.922C106.814 123.995 107.759 123.286 108.481 122.36C109.369 121.27 109.869 119.962 110.203 118.654C110.813 116.365 110.981 114.021 111.647 111.786C111.702 111.568 111.869 110.314 112.424 110.532C117.423 112.985 122.478 115.438 127.533 117.891C129.255 118.763 130.866 119.907 132.588 120.67C134.309 121.433 135.865 122.796 137.697 123.177C143.696 124.486 148.973 129.936 153.194 134.024C157.583 138.22 159.971 144.87 159.971 150.811C159.971 155.552 152.861 159.75 153.084 164.491C153.639 173.866 149.584 181.442 148.863 190.708Z" fill="#FFE0D4"/>
<path d="M59.6558 185.039C58.3227 179.643 56.6007 174.357 55.712 168.851C54.7677 162.966 54.6566 157.025 54.5456 151.084C54.4345 145.633 54.3789 140.183 53.6013 134.787C53.3236 133.097 53.268 130.263 52.0461 128.846C51.6017 128.301 51.1018 128.192 50.4352 128.138C48.8799 128.029 47.6024 128.356 45.9916 127.92C45.825 127.865 45.6583 127.92 45.5472 128.029C45.1029 128.574 44.603 129.01 44.1031 129.446C43.992 129.282 43.7698 129.228 43.5476 129.337C36.4377 133.261 34.4381 141.491 33.3272 148.849C32.6052 153.482 31.9385 158.061 30.1611 162.421C27.4394 168.961 26.9951 175.447 26.1063 182.314C25.1064 189.89 23.4956 197.412 22.3847 204.988C21.1628 213.272 22.107 220.522 23.9955 228.534C24.8287 232.131 27.1061 235.183 29.439 238.072C30.6054 239.489 31.9385 241.233 33.6605 241.996C35.1602 242.651 36.9932 242.595 38.6041 242.595C40.9925 242.651 43.3809 242.595 45.7139 242.269C49.2687 241.778 52.7126 240.579 55.3232 238.127C61.8221 232.022 61.4333 222.484 61.3778 214.417C61.2667 204.662 61.9887 194.85 59.6558 185.039Z" fill="#FFE0D4"/>
<path d="M236.013 149.067C234.569 147.541 230.237 150.593 228.903 151.192C226.071 152.5 222.35 152.937 219.906 155.007C219.628 155.007 219.405 155.171 219.35 155.498C219.128 155.771 219.295 156.153 219.572 156.316C220.349 158.223 222.405 158.768 224.404 158.605C224.515 158.823 224.737 158.986 225.015 158.878C227.959 157.951 231.07 156.261 233.403 154.299C234.402 153.428 237.457 150.593 236.013 149.067Z" fill="#FFB292"/>
<path d="M176.302 142.581L178.579 140.074L178.246 133.697C178.246 133.697 174.746 132.116 174.08 132.28C173.414 132.443 172.136 132.661 172.246 133.533C172.358 134.405 176.302 142.581 176.302 142.581Z" fill="#FFA480"/>
<path d="M222.405 156.425C222.405 156.425 215.239 161.221 208.351 167.272C203.852 171.195 199.464 175.719 197.242 179.753C191.577 189.945 190.411 195.286 182.356 198.174C174.302 201.063 170.747 211.855 166.526 201.5C162.249 191.144 160.083 172.285 156.528 167.272C155.917 166.344 155.75 165.09 155.972 163.619C156.305 161.439 157.361 158.823 158.694 156.316C160.305 153.264 162.249 150.266 163.693 148.304C164.692 146.942 165.415 146.069 165.637 145.96C165.748 145.906 166.082 145.742 166.581 145.524C166.804 145.415 167.137 145.306 167.414 145.143C171.025 143.507 178.524 140.074 178.524 140.074L189.911 135.332L198.631 131.189C198.631 131.189 200.742 134.732 204.575 139.256C204.797 139.529 205.019 139.747 205.241 140.019C206.464 141.436 207.852 142.908 209.352 144.434C209.629 144.706 209.907 144.979 210.185 145.251C211.018 146.014 211.906 146.886 212.796 147.704C217.35 151.901 222.405 156.425 222.405 156.425Z" fill="#FFB292"/>
<path d="M205.295 140.019C200.573 148.304 194.964 156.098 188.243 162.856C186.021 165.092 183.688 167.272 180.855 168.743C179.411 169.506 177.522 170.051 176.134 169.179C175.411 168.743 174.968 168.034 174.578 167.326C173.134 164.928 171.913 162.421 170.968 159.804C170.579 158.66 167.968 152.501 168.801 151.574C169.746 150.539 171.079 156.752 171.357 157.678C172.246 160.404 173.301 163.074 174.578 165.637C175.189 166.944 176.078 168.362 177.522 168.634C178.523 168.851 179.522 168.416 180.467 167.98C182.577 166.835 184.41 165.254 186.132 163.565C193.52 156.48 199.462 148.086 204.629 139.202C204.851 139.474 205.073 139.747 205.295 140.019Z" fill="white"/>
<path d="M176.302 142.581L178.579 140.074L178.246 133.697C178.246 133.697 174.746 132.116 174.08 132.28C173.414 132.443 172.136 132.661 172.246 133.533C172.358 134.405 176.302 142.581 176.302 142.581Z" fill="#FFA480"/>
<path d="M213.239 191.199C213.127 190.872 212.794 190.817 212.571 190.981C211.85 188.8 209.684 187.165 208.628 185.094C207.74 183.35 206.906 181.605 206.017 179.862C206.017 178.936 206.073 178.063 206.129 177.137C206.351 174.902 207.295 172.94 207.795 170.759C208.073 169.615 208.183 168.47 208.295 167.326C208.35 166.781 208.406 166.236 208.461 165.691C209.016 162.203 211.405 159.423 211.961 155.935C212.405 153.21 212.128 150.375 212.739 147.759C211.85 146.942 210.96 146.069 210.127 145.307C209.85 145.034 209.572 144.762 209.294 144.489C208.239 146.069 207.295 147.759 206.572 149.503C205.573 152.01 205.518 155.771 203.74 157.842C202.073 159.804 199.296 160.131 197.963 162.475C196.908 164.328 197.574 167.435 196.075 168.961C194.853 170.16 192.02 170.814 190.464 171.578C188.354 172.668 186.298 173.921 184.41 175.393C182.633 176.81 180.911 178.335 179.411 180.08C178.855 180.679 174.967 184.931 175.357 185.585C172.745 180.952 169.246 177.028 165.469 173.267C165.192 172.995 164.914 172.668 164.802 172.34C164.414 171.141 165.525 169.506 165.692 168.306C166.025 165.309 164.636 162.584 164.247 159.696C163.748 155.771 165.969 152.392 166.913 148.74C167.302 148.685 167.691 148.631 168.079 148.577C168.635 148.467 168.412 147.65 167.857 147.759C167.636 147.814 167.358 147.814 167.136 147.868C167.302 146.996 167.358 146.179 167.302 145.251C167.302 144.979 167.246 144.706 167.191 144.434C167.191 144.379 167.191 144.379 167.191 144.325C167.08 143.834 166.302 143.944 166.302 144.434C166.302 144.706 166.302 144.979 166.358 145.251C166.358 145.361 166.413 145.415 166.468 145.47C166.468 145.524 166.468 145.579 166.468 145.633C166.525 146.451 166.413 147.214 166.247 147.978C165.358 148.14 164.469 148.25 163.581 148.413C163.413 148.413 163.248 148.467 163.08 148.467C161.97 148.631 160.47 148.631 159.415 149.068C157.914 149.667 158.249 150.866 158.359 152.282C158.47 153.7 158.582 155.063 158.526 156.425C158.47 158.169 158.192 159.804 157.248 161.439C156.803 162.203 156.304 162.966 155.804 163.729C154.971 165.036 154.138 166.345 153.527 167.871C151.583 172.668 151.249 177.846 151.749 182.914C152.082 186.184 150.305 188.8 149.194 191.744C148.306 194.088 147.639 196.485 147.083 198.883C146.861 198.938 146.695 199.156 146.75 199.374C146.805 199.538 146.805 199.755 146.861 199.919C146.805 200.137 146.75 200.356 146.695 200.573C146.64 200.791 146.75 200.955 146.861 201.009C146.805 203.244 145.75 205.479 145.306 207.659C144.861 209.948 144.695 212.346 145.028 214.689C145.306 217.033 146.417 219.213 146.861 221.503C147.361 223.956 147.361 226.517 147.972 228.97C148.917 232.731 151.028 236.219 154.249 238.508C155.804 239.653 157.581 240.471 159.359 241.179C161.581 242.106 163.969 243.14 166.358 243.359C167.746 243.468 169.024 243.25 170.413 243.468C171.69 243.685 172.912 244.122 174.134 244.394C176.578 244.939 179.133 244.831 181.577 244.831C186.41 244.885 191.242 244.831 196.019 244.122C198.575 243.741 201.074 243.196 203.462 242.378C204.685 241.996 206.85 241.561 207.462 240.361C207.628 240.034 207.572 239.217 207.628 238.89C207.74 238.127 207.961 237.582 208.183 236.818C208.516 235.783 208.683 234.747 208.795 233.712C209.073 231.15 208.794 228.534 208.683 225.918C208.35 219.758 209.794 213.817 211.017 207.822C212.461 202.59 214.683 196.54 213.239 191.199Z" fill="#FF6048"/>
<path d="M192.853 79.9015C191.687 78.7025 190.576 77.3944 189.077 76.5768C188.354 76.1953 187.577 75.9228 186.743 75.8137C186.3 75.7592 185.689 75.9772 185.244 75.7592C184.689 75.4867 184.522 74.8326 184.133 74.4511C182.967 73.3066 181.301 72.7615 179.745 72.271C176.579 71.2355 173.246 70.4723 170.135 71.5625C168.969 71.399 167.803 71.399 166.637 71.6715C164.859 72.053 163.47 72.925 161.638 72.9795C158.416 73.1431 155.361 74.0151 152.806 75.9772C150.862 77.4489 149.862 79.52 148.473 81.3731C147.862 81.9181 147.307 82.4633 146.807 83.0628C146.751 83.1173 146.695 83.2264 146.64 83.2809C146.584 83.3354 146.529 83.3899 146.529 83.4444C144.751 85.9516 144.363 88.8402 144.585 91.7289C142.863 94.0181 141.863 96.7433 141.974 99.6866C142.085 102.194 143.085 104.265 144.195 106.499C145.306 108.734 144.918 109.497 144.14 111.841C143.807 112.876 143.696 113.748 143.918 114.784C144.252 116.474 145.251 117.618 144.973 119.308C144.807 120.344 144.307 121.27 144.14 122.306C143.807 124.159 144.307 126.175 145.584 127.593C146.362 128.465 147.528 129.173 148.418 127.974C148.751 127.538 148.751 126.993 148.695 126.448C148.639 126.066 148.584 125.739 148.528 125.412C148.751 125.576 148.973 125.685 149.194 125.794C152.083 126.938 151.528 122.796 151.25 121.379C151.083 120.453 150.695 119.58 150.417 118.654C150.028 117.128 150.362 116.092 150.862 114.675C151.417 113.04 151.861 111.296 152.139 109.606C153.472 110.042 154.861 110.478 155.916 111.132C157.082 111.895 157.693 113.258 158.804 114.076C160.915 115.493 163.525 115.765 166.025 115.929C173.802 116.419 181.467 118.327 189.077 119.798C189.355 119.853 190.466 120.343 190.466 120.343C190.466 120.343 195.02 109.933 195.575 104.483C195.798 102.466 196.853 100.559 195.853 98.8143C194.409 96.2527 195.687 93.9091 196.575 91.4563C198.242 87.532 195.965 83.1173 192.853 79.9015Z" fill="#4D2E18"/>
<path d="M181.134 68.7828C180.801 67.9108 180.189 67.5292 179.633 66.8206C178.579 65.567 178.912 64.586 178.467 63.2234C177.634 60.8797 174.412 59.4626 171.469 59.4081C168.636 57.337 163.525 57.664 160.859 59.7896C159.915 60.4982 159.527 61.4247 159.192 62.5149C158.804 63.6594 158.526 64.5315 157.693 65.5125C157.305 65.9485 156.86 66.3846 156.582 66.9296C156.027 68.2378 156.527 69.2733 157.415 70.0364C157.138 70.8539 157.193 71.726 157.693 72.489C158.804 74.1787 161.193 73.9062 162.915 73.5792C164.414 73.3065 165.636 72.707 167.025 72.271C169.302 71.5079 170.468 72.707 172.468 73.252C174.69 73.8517 177.356 73.7972 179.412 72.6525C180.856 71.835 181.689 70.3634 181.134 68.7828Z" fill="#4D2E18"/>
<path d="M202.908 138.221L201.131 142.69L191.576 153.372L182.079 151.737L180.635 145.143L178.301 139.474L175.857 133.533L175.246 132.007C175.246 132.007 180.856 124.322 181.967 122.796C183.022 121.379 184.856 112.004 185.023 109.715C185.023 109.551 185.023 109.388 185.023 109.333C184.966 108.679 186.689 108.788 188.188 108.952C189.355 109.115 190.41 109.333 190.41 109.333C190.41 109.333 190.521 110.206 190.743 111.459C191.021 113.04 191.41 115.274 191.909 117.237C192.187 118.327 192.465 119.308 192.743 120.071C194.021 123.559 202.908 138.221 202.908 138.221Z" fill="#FFB292"/>
<path d="M186.189 132.498C183.189 136.422 180.19 138.548 178.357 139.529L175.301 132.062C175.301 132.062 180.912 124.377 182.023 122.85C183.079 121.433 184.911 112.059 185.078 109.77C187.466 109.77 189.91 111.296 190.465 113.094C191.355 115.983 190.91 126.23 186.189 132.498Z" fill="#DF7B53" fill-opacity="0.6"/>
<path d="M137.03 118.654C137.03 118.654 134.086 111.241 131.864 109.77C130.642 108.952 129.199 107.262 127.698 106.99C127.032 106.881 126.365 106.826 125.699 106.826C125.254 106.881 124.255 107.317 123.865 107.262C122.922 107.044 121.921 107.099 120.867 107.262C119.7 107.426 118.533 107.589 117.422 107.971C116.144 108.407 114.978 109.225 113.645 109.497C111.868 109.824 110.702 109.879 109.368 111.241C109.091 111.568 108.813 111.895 108.535 112.222C106.591 112.386 105.925 115.819 104.425 117.073C102.425 118.817 100.648 121.052 100.37 123.723C100.259 124.867 100.37 125.903 100.814 126.993C101.425 128.573 101.203 129.991 101.537 131.626C101.814 132.988 102.647 134.351 103.647 135.659C103.981 139.365 105.758 142.417 109.091 144.87C110.979 146.287 113.257 147.704 115.478 148.522C117.089 149.122 118.033 148.086 119.199 146.996C121.145 145.143 122.811 143.071 124.81 141.273C126.92 139.474 129.309 138.112 131.476 136.477C133.475 135.005 134.475 132.77 135.586 130.699C136.197 129.555 136.808 128.41 137.475 127.265C138.03 126.938 138.474 126.502 138.863 126.012C138.641 124.704 137.03 118.654 137.03 118.654Z" fill="#4D2E18"/>
<path d="M133.031 148.904L131.754 156.48L131.199 160.077L124.422 162.639L116.035 157.352L116.868 145.197L133.031 148.904Z" fill="#FFAD8C"/>
<path d="M124.7 153.863C127.31 155.063 129.644 155.281 132.031 154.845L133.032 148.904L117.146 145.197V145.361C118.423 149.068 121.089 152.228 124.7 153.863Z" fill="#EE8155"/>
<path d="M142.141 138.657C142.03 139.856 141.863 141.055 141.473 142.254C140.697 145.034 138.863 147.214 136.253 148.631C133.697 149.994 130.143 150.484 127.31 149.994C124.977 149.557 120.144 148.74 116.478 144.924C116.256 144.706 111.479 144.434 109.98 141.109C108.813 138.439 108.035 135.604 107.869 132.716C107.813 131.68 107.813 130.59 107.869 129.555C108.202 125.794 109.591 121.815 112.202 118.981C114.701 116.31 118.367 115.329 121.867 114.675C125.755 113.966 129.921 113.585 133.364 115.493C134.808 116.256 136.919 118.708 136.919 118.708C136.919 118.708 138.696 122.851 139.529 125.031C141.363 129.118 142.529 134.024 142.141 138.657Z" fill="#FFAD8C"/>
<path d="M124.367 132.28C124.09 132.062 123.645 132.061 123.312 132.116C122.534 132.225 121.313 132.716 121.145 133.588C121.09 133.86 121.201 134.133 121.423 134.242C121.59 134.296 121.812 134.296 121.979 134.187C122.146 134.078 122.312 133.969 122.423 133.86C122.867 133.533 123.423 133.315 124.033 133.206C124.256 133.206 124.478 133.152 124.589 132.988C124.756 132.77 124.645 132.498 124.423 132.334C124.423 132.28 124.423 132.28 124.367 132.28Z" fill="#2E1607"/>
<path d="M137.863 128.083C137.585 127.865 137.142 127.865 136.808 127.919C136.031 128.028 134.808 128.519 134.642 129.391C134.587 129.664 134.697 129.936 134.92 130.045C135.086 130.1 135.308 130.1 135.475 129.991C135.641 129.882 135.808 129.773 135.919 129.664C136.364 129.337 136.919 129.119 137.53 129.009C137.752 129.009 137.975 128.955 138.085 128.791C138.252 128.573 138.141 128.301 137.919 128.137C137.919 128.137 137.863 128.137 137.863 128.083Z" fill="#2E1607"/>
<path d="M133.753 135.332C133.53 134.133 132.309 133.424 131.42 132.716C130.976 132.334 130.365 132.988 130.81 133.315C131.365 133.751 132.086 134.242 132.531 134.787C132.92 135.277 133.253 136.694 132.587 137.13C132.142 137.457 132.587 138.221 133.031 137.894C133.753 137.349 133.92 136.149 133.753 135.332Z" fill="#EE8155"/>
<path d="M128.032 140.673C128.032 140.673 130.699 140.183 132.532 139.583C134.365 138.984 136.476 138.221 136.476 138.221C136.476 138.221 136.919 140.946 133.476 142.145C129.921 143.344 128.032 140.673 128.032 140.673Z" fill="white"/>
<path d="M124.477 128.41C124.422 128.083 124.144 127.811 123.811 127.647C123.144 127.375 122.367 127.647 121.7 127.811C120.756 128.029 119.868 128.519 119.2 129.173C118.756 129.664 118.423 130.209 118.312 130.863C118.257 131.135 118.312 131.462 118.534 131.517C118.7 131.571 118.867 131.517 118.978 131.462C119.867 131.081 120.644 130.481 121.534 130.1C122.422 129.718 123.644 129.827 124.255 129.01C124.477 128.792 124.477 128.628 124.477 128.41Z" fill="#8C422A"/>
<path d="M132.921 126.393C133.92 126.666 134.81 125.794 135.753 125.576C136.697 125.358 137.697 125.358 138.586 125.085C138.753 125.031 138.919 124.976 138.975 124.867C139.086 124.649 138.919 124.377 138.753 124.213C138.253 123.777 137.642 123.505 137.031 123.45C136.086 123.287 135.086 123.505 134.198 123.886C133.587 124.159 132.809 124.486 132.476 125.031C132.309 125.358 132.309 125.739 132.421 126.012C132.531 126.23 132.698 126.339 132.921 126.393Z" fill="#8C422A"/>
<path d="M133.809 114.62C130.365 112.713 125.421 112.876 121.533 113.585C118.034 114.239 114.034 116.092 111.59 118.763C108.98 121.597 107.647 125.903 107.314 129.663C107.203 130.699 107.258 132.116 107.314 133.152C107.48 136.04 108.536 138.984 109.758 141.654C111.257 144.979 113.591 147.431 116.534 149.611C116.756 148.086 117.422 145.579 116.146 144.379C115.59 143.889 114.812 143.726 114.201 143.344C113.479 142.908 112.924 142.309 112.313 141.708C111.535 140.891 110.646 140.237 110.258 139.147C109.258 136.476 110.869 133.37 113.757 133.479C113.812 133.206 113.812 132.879 113.757 132.552C113.534 131.08 112.535 129.827 112.035 128.464C111.313 126.557 111.535 125.467 113.368 124.05C114.201 123.395 114.59 122.251 115.478 121.651C116.423 120.997 117.312 120.18 118.257 119.58C119.145 119.035 120.256 118.272 121.312 117.945C122.478 117.564 123.977 117.291 125.2 117.237C126.366 117.237 128.643 116.255 129.809 116.201C131.753 116.092 132.365 117.291 134.309 117.237C135.142 117.237 135.809 117.346 136.419 117.564C135.586 116.419 134.865 115.22 133.809 114.62Z" fill="#4D2E18"/>
<path d="M179.19 224.391C175.136 217.47 168.081 215.78 160.805 215.671C160.638 214.635 160.472 213.545 160.249 212.51C159.971 211.092 159.86 207.768 158.416 207.004C156.972 206.187 153.972 207.004 152.417 207.331C150.029 207.822 147.695 208.639 145.418 209.567C140.031 211.747 134.975 214.418 129.366 215.997C128.422 216.27 127.421 216.542 126.478 216.761C126.421 216.706 126.366 216.652 126.255 216.652C124.422 216.542 122.923 217.251 121.367 217.96C119.368 218.45 117.368 218.941 115.368 219.486C113.757 219.54 111.591 219.758 111.091 220.848C110.813 221.121 110.979 221.612 111.369 221.612C111.424 221.666 111.535 221.666 111.591 221.666C112.313 227.334 112.424 234.039 115.368 239.108C118.201 244.067 124.033 245.975 129.476 246.411C136.309 246.957 143.086 245.103 149.529 243.032C156.749 240.688 163.804 238.018 170.913 235.347C171.136 235.293 171.191 235.074 171.191 234.911C171.358 234.856 171.524 234.856 171.691 234.802C174.191 234.203 177.19 233.929 179.579 232.894C182.855 231.422 180.523 226.681 179.19 224.391Z" fill="white"/>
<path d="M156.805 208.094C160.249 206.786 163.748 205.696 167.303 204.661C173.192 202.971 183.3 200.845 188.077 206.623C192.077 211.474 191.799 217.524 190.743 223.192C189.132 231.695 187.966 237.309 187.966 237.309C187.966 237.309 177.08 230.877 174.246 229.678C171.414 228.534 153.862 219.977 154.084 218.287C154.305 216.598 156.805 208.094 156.805 208.094Z" fill="white"/>
<path d="M127.365 224.882C129.532 224.283 130.587 222.92 132.365 221.776C133.754 220.903 135.364 220.467 136.642 219.486C137.808 218.56 138.586 217.251 139.919 216.38C143.085 214.417 147.362 214.526 150.917 213.436C154.195 212.455 159.194 211.529 161.415 208.531C164.636 204.171 158.638 197.739 157.527 193.487C156.638 190.217 157.138 186.784 157.25 183.35C157.416 175.175 155.083 167.216 152.584 159.423C151.528 156.207 150.362 152.883 147.862 150.593C146.973 149.775 145.918 149.176 144.751 148.849C143.862 148.631 142.919 148.577 141.974 148.685C135.753 149.449 131.42 155.28 125.2 155.335C121.978 155.335 119.033 154.408 116.201 152.883C114.034 151.737 110.979 150.266 108.425 150.865C105.925 151.465 107.258 155.063 106.481 157.188C105.814 158.987 104.592 160.622 104.203 162.475C103.37 166.508 106.37 170.869 104.703 174.575C104.092 175.882 102.981 176.918 102.481 178.281C101.426 181.006 98.8154 177.627 98.8154 177.627C98.8154 177.627 102.204 191.58 102.037 193.978C101.815 196.649 102.481 199.592 102.704 202.263C103.037 205.806 103.37 209.349 103.703 212.891C103.981 216.161 103.87 219.54 105.536 222.484C105.981 223.301 106.592 224.119 107.48 224.337C107.925 224.445 108.369 224.391 108.814 224.283C109.147 225.046 109.48 225.808 109.869 226.517C110.313 227.389 110.813 228.751 111.702 229.352C113.313 230.442 115.701 228.316 117.089 227.607C118.645 226.789 120.311 226.08 122.033 225.699C123.644 225.373 125.533 225.373 127.365 224.882Z" fill="#3A5CA5"/>
<path d="M79.5412 134.133L74.9864 130.481L70.4873 131.571L71.3205 137.021L76.375 142.417L80.3188 136.912L79.5412 134.133Z" fill="#FFAD8C"/>
<path d="M117.591 154.899C114.758 149.449 107.815 149.611 103.149 146.559C100.76 144.979 100.038 142.254 97.2056 141.327C93.484 140.074 90.5956 137.567 87.0962 135.822C85.5965 135.114 84.0968 134.46 82.5415 133.806C81.5417 133.37 80.2087 132.389 79.1532 133.043C78.32 133.533 77.6535 135.386 77.2091 136.204C76.3204 137.73 75.2651 139.256 74.5429 140.837C73.432 143.235 74.8763 144.762 76.6537 146.341C77.6535 147.214 78.5977 148.086 79.542 148.958C80.153 150.429 80.9307 151.793 81.6528 153.046C82.486 154.518 83.5969 155.662 84.7078 156.915C86.3742 158.768 87.2629 161.275 88.5404 163.401C90.3179 166.29 92.5953 168.851 94.5393 171.632C96.5389 174.411 97.7609 177.845 100.149 180.298C104.815 185.148 110.648 182.042 113.147 176.81C114.646 173.648 115.147 170.105 115.424 166.617C115.757 162.475 115.924 158.333 116.147 154.245C116.425 154.572 116.647 154.953 116.869 155.39C117.091 155.825 117.868 155.39 117.591 154.899Z" fill="#3A5CA5"/>
<path d="M77.0958 127.81C76.9847 126.72 77.0402 124.867 76.2071 124.05C74.7074 122.578 74.5407 125.303 74.5407 126.829C73.7631 125.794 72.9855 124.758 72.0411 123.832C71.319 123.123 70.2082 121.597 69.0417 121.706C68.2086 121.76 67.9864 122.251 68.0419 122.851C67.1532 122.524 65.9867 122.796 65.5979 123.832C65.5423 123.995 65.5424 124.213 65.5424 124.377C65.4313 125.031 65.3201 125.521 65.098 126.175C64.9869 126.557 64.8202 126.884 64.8758 127.32C64.9313 128.083 65.3202 128.9 65.8201 129.609C65.7646 129.664 65.7645 129.718 65.7089 129.773C64.7647 131.408 67.5976 133.751 68.4863 134.623C69.7638 135.822 71.208 137.621 73.1521 137.24C74.9851 136.913 76.4293 135.168 76.4848 133.37C76.5959 133.315 76.707 133.261 76.7625 133.097C77.0958 131.299 77.2069 129.555 77.0958 127.81Z" fill="#FFAD8C"/>
<path d="M73.8198 127.647C73.3754 128.464 73.0422 129.336 72.9866 130.263C72.9311 131.353 73.2643 132.334 73.4865 133.37C73.5976 133.915 74.4308 133.697 74.3197 133.152C73.9309 131.298 73.5421 129.827 74.5419 128.083C74.8751 127.592 74.0975 127.156 73.8198 127.647Z" fill="#EE8155"/>
<path d="M71.262 125.903C70.4842 125.031 69.7621 124.104 69.0401 123.123C68.7068 122.687 67.9292 123.123 68.2624 123.559C68.9846 124.595 69.7621 125.576 70.5954 126.502C70.9842 126.938 71.6508 126.339 71.262 125.903Z" fill="#EE8155"/>
<path d="M69.3198 127.81C68.3756 127.047 67.709 125.793 66.9869 124.812C66.6537 124.376 65.8759 124.813 66.2092 125.249C66.9868 126.284 67.6535 127.592 68.6533 128.41C69.0976 128.791 69.7642 128.192 69.3198 127.81Z" fill="#EE8155"/>
<path d="M69.2083 131.734C68.5973 130.917 67.9307 130.154 67.2087 129.391C66.8198 129.009 66.2089 129.609 66.5977 129.99C67.2642 130.699 67.8752 131.407 68.4862 132.116C68.7639 132.607 69.5415 132.171 69.2083 131.734Z" fill="#EE8155"/>
<path d="M137.698 150.102C137.698 150.102 144.419 144.87 149.918 143.017C155.417 141.164 157.75 137.894 160.138 136.804C162.583 135.714 167.247 132.607 168.359 131.68C169.47 130.699 171.858 130.59 172.969 132.062C174.08 133.533 176.357 142.582 176.357 142.582C176.357 142.582 169.859 151.683 167.748 156.098C165.638 160.513 162.583 163.457 159.305 167.653C155.973 171.85 151.307 178.499 151.251 178.663C151.195 178.826 141.475 174.684 140.809 174.357C140.141 174.03 137.698 150.102 137.698 150.102Z" fill="#3A5CA5"/>
<path d="M190.854 111.568C190.688 112.331 190.521 113.04 190.355 113.803C189.244 118.163 187.355 122.415 184.856 126.284C182.412 130.045 179.357 132.552 175.968 133.588C171.691 134.896 166.97 133.86 162.415 130.045C158.471 126.72 155.916 122.088 154.195 117.291C153.417 115.22 152.028 110.533 150.806 106.281C150.64 105.627 150.473 104.973 150.307 104.374C149.695 102.139 149.251 100.177 149.029 98.978C148.973 98.542 148.918 98.2149 148.918 97.9969C148.918 97.9969 148.918 97.8879 148.918 97.7244C148.918 95.4352 149.917 79.7381 169.192 76.9039C180.135 75.3233 186.911 83.9894 189.966 93.2006C191.854 99.0325 192.077 105.409 190.854 111.568Z" fill="#FFB292"/>
<path d="M156.251 109.334C156.083 109.279 155.918 109.279 155.75 109.334C154.362 109.824 155.195 112.059 155.695 112.931C155.973 113.421 156.528 113.912 157.139 113.803C157.529 113.748 157.806 113.421 157.917 113.094C158.028 112.767 158.029 112.386 157.972 112.004C157.862 111.35 157.639 110.696 157.251 110.151C157.084 109.879 156.918 109.661 156.64 109.497C156.473 109.388 156.361 109.334 156.251 109.334Z" fill="#2E1607"/>
<path d="M170.97 106.499C170.803 106.445 170.637 106.445 170.47 106.499C169.081 106.99 169.914 109.225 170.414 110.097C170.692 110.587 171.248 111.078 171.858 110.969C172.248 110.914 172.525 110.587 172.636 110.26C172.747 109.933 172.748 109.552 172.691 109.17C172.581 108.516 172.358 107.862 171.97 107.317C171.803 107.044 171.636 106.826 171.358 106.663C171.248 106.608 171.08 106.554 170.97 106.499Z" fill="#2E1607"/>
<path d="M171.079 100.559C170.246 100.559 169.413 100.668 168.635 100.831C167.802 100.995 164.303 102.248 165.692 103.611C166.025 103.884 166.469 103.993 166.913 103.884C167.358 103.829 167.747 103.611 168.135 103.447C170.191 102.575 172.523 102.303 174.745 102.684C174.912 102.739 175.134 102.739 175.3 102.684C175.635 102.521 175.578 101.976 175.357 101.703C174.967 101.213 174.357 100.995 173.746 100.886C172.856 100.668 171.968 100.559 171.079 100.559Z" fill="#4D2E18"/>
<path d="M153.917 104.428C153.139 104.701 152.416 105.082 151.75 105.518C151.195 105.845 150.75 106.227 150.25 106.663C150.417 107.263 150.584 107.917 150.75 108.571C152.194 107.426 153.972 106.663 155.804 106.336C156.249 106.282 156.638 106.173 157.027 106.009C157.415 105.845 157.749 105.518 157.86 105.137C158.36 103.229 154.694 104.101 153.917 104.428Z" fill="#4D2E18"/>
<path d="M168.19 118.817C166.636 119.853 164.358 119.09 164.081 117.237C163.969 116.528 163.914 115.765 163.858 115.002C163.691 113.258 163.525 111.568 163.358 109.824C163.303 109.279 162.414 109.279 162.47 109.824C162.692 111.786 162.858 113.749 163.081 115.765C163.191 116.746 163.136 117.945 163.581 118.872C164.469 120.562 167.246 120.562 168.635 119.635C169.08 119.254 168.635 118.49 168.19 118.817Z" fill="#DF7B53" fill-opacity="0.6"/>
<path d="M164.693 123.341C165.082 123.341 166.804 122.851 168.914 122.197C171.08 121.543 174.858 119.581 174.858 119.581C174.858 119.581 174.303 123.614 170.692 124.867C167.082 126.176 164.693 123.341 164.693 123.341Z" fill="white"/>
<path d="M190.854 93.2005C187.854 83.9894 179.745 74.7782 168.803 76.3588C149.529 79.1385 148.918 95.3807 148.918 97.6698C148.918 97.8333 148.918 97.9423 148.918 97.9423C148.918 98.1604 148.973 98.4874 149.029 98.9234C150.195 94.7811 154.75 92.9825 158.749 92.0014C162.915 90.9659 167.192 90.2573 171.469 89.7123C171.581 89.7123 172.58 90.6934 172.747 90.8024C173.302 91.1294 173.913 91.2929 174.524 91.5109C175.746 91.8924 177.135 92.2194 177.912 93.255C178.912 94.5631 179.412 97.8333 181.411 98.3784C181.411 98.3784 181.801 97.9423 181.856 97.8878C182.079 97.7243 182.412 97.6153 182.634 97.5608C183.19 97.3973 183.8 97.2883 184.411 97.2338C186.966 97.0703 188.744 99.1414 189.132 101.54C189.966 106.172 188.41 109.497 188.41 109.497C188.41 109.497 189.522 112.168 190.243 113.749C191.076 115.547 191.799 117.073 191.91 117.291C191.521 115.384 192.798 99.0869 190.854 93.2005Z" fill="#4D2E18"/>
<path d="M222.405 156.425C222.405 156.425 232.513 163.02 233.402 174.247C233.735 178.39 232.68 182.751 231.903 186.784C230.625 193.324 229.07 199.755 227.347 206.187C224.126 218.45 220.794 230.823 216.183 242.651C214.85 246.029 213.628 248.428 209.795 249.408C206.296 250.281 202.352 250.335 198.742 250.554C194.742 250.826 190.743 250.935 186.743 250.989C173.524 251.317 160.249 251.153 147.029 250.935C141.585 250.826 136.141 250.716 130.699 250.554L132.31 238.181C132.31 238.181 193.853 229.242 195.909 228.098C197.964 226.953 202.519 174.575 207.907 165.364C213.295 156.153 222.405 156.425 222.405 156.425Z" fill="#FFB292"/>
<path d="M238.346 169.179C239.234 167.544 239.345 165.581 238.401 163.783C237.956 162.911 237.568 162.583 237.568 161.549C237.568 160.894 237.845 160.513 237.512 159.858C237.178 159.041 236.29 159.041 235.901 158.496C234.846 157.025 235.624 155.771 233.402 155.226C231.679 154.79 229.624 155.662 228.18 156.534C228.069 156.642 227.958 156.752 227.958 156.861C228.013 156.48 227.625 156.043 227.18 156.316C223.682 158.768 222.071 161.439 221.57 165.691C221.126 169.342 223.903 174.139 227.125 175.938C229.957 177.463 234.623 177.3 237.012 175.011C238.567 173.539 240.178 170.542 238.346 169.179Z" fill="#FFB292"/>
<path d="M230.737 154.845C228.626 155.444 226.626 156.261 224.682 157.297C224.182 157.57 224.627 158.278 225.127 158.061C227.015 157.079 228.959 156.316 230.959 155.716C231.514 155.553 231.292 154.681 230.737 154.845Z" fill="#DF7B53" fill-opacity="0.6"/>
<path d="M223.571 156.807C223.237 156.534 222.959 156.316 222.571 156.153C222.071 155.88 221.46 155.716 221.015 155.444C220.905 155.39 220.794 155.28 220.627 155.226C220.294 155.117 220.071 155.498 220.182 155.771C220.238 155.935 220.349 156.043 220.46 156.098C221.127 156.588 222.015 156.643 222.571 157.188C222.849 157.406 223.071 157.788 223.404 157.788C223.571 157.788 223.737 157.733 223.849 157.624C223.959 157.516 223.959 157.352 223.904 157.188C223.849 157.079 223.737 156.97 223.626 156.915C223.571 156.861 223.571 156.807 223.571 156.807Z" fill="#DF7B53" fill-opacity="0.6"/>
<path d="M236.069 164.655C233.181 166.182 230.292 167.653 227.404 169.179C226.626 169.615 225.793 170.051 225.07 170.486C224.682 170.705 224.293 170.977 223.96 171.25C223.404 171.686 223.294 171.959 222.571 171.85C221.96 171.795 221.405 171.686 221.072 171.141C220.461 170.16 221.182 169.07 221.793 168.252C222.183 167.761 222.571 167.38 223.071 166.999C224.127 166.182 225.293 165.473 226.404 164.764C228.57 163.456 230.847 162.311 233.124 161.331C233.625 161.112 233.181 160.349 232.681 160.567C230.237 161.657 227.848 162.856 225.626 164.219C224.404 164.928 223.071 165.691 222.016 166.671C221.96 166.617 221.85 166.563 221.682 166.563C218.683 166.508 221.46 163.511 221.905 163.074C222.626 162.421 223.404 161.766 224.237 161.167C225.571 160.186 227.015 159.313 228.458 158.55C228.959 158.278 228.515 157.515 228.015 157.788C225.348 159.205 222.016 161.058 220.239 163.565C219.238 164.982 219.405 167.108 221.294 167.435C221.182 167.544 221.127 167.653 221.016 167.761C219.683 169.506 219.738 172.83 222.349 172.885C222.238 173.049 222.127 173.213 222.071 173.376C221.627 174.357 221.793 175.61 222.849 176.101C224.071 176.7 225.848 176.046 227.348 175.393C227.126 175.72 226.959 176.101 226.849 176.483C226.126 179.208 230.681 177.954 231.848 177.463C232.348 177.245 232.125 176.427 231.625 176.646C230.792 176.972 229.959 177.245 229.015 177.3C228.515 177.355 227.626 177.518 227.682 176.7C227.682 176.373 228.07 175.938 228.237 175.72C229.07 174.575 230.237 173.594 231.57 173.103C231.792 172.994 232.014 172.94 232.181 172.776C232.348 172.612 232.348 172.285 232.181 172.177C232.014 172.067 231.848 172.123 231.681 172.177C230.737 172.449 229.904 173.049 229.07 173.594C228.182 174.139 227.237 174.575 226.237 174.848C225.515 175.065 224.737 175.447 223.96 175.337C223.516 175.283 222.96 175.12 222.793 174.684C222.626 174.303 222.793 173.812 222.849 173.376C222.904 173.103 223.071 172.885 223.294 172.776C224.293 171.74 226.737 170.488 227.404 170.16C230.347 168.525 233.402 166.999 236.346 165.473C237.013 165.146 236.569 164.383 236.069 164.655Z" fill="#DF7B53" fill-opacity="0.6"/>
<path d="M236.845 169.452C235.568 169.943 234.401 170.542 233.235 171.25C232.791 171.578 233.179 172.286 233.68 172.013C234.735 171.305 235.901 170.76 237.068 170.269C237.623 170.105 237.401 169.234 236.845 169.452Z" fill="#DF7B53" fill-opacity="0.6"/>
<path d="M178.246 171.795C178.134 173.103 177.523 174.139 176.857 174.085C176.19 174.03 175.746 172.94 175.912 171.578C176.024 170.269 176.635 169.234 177.301 169.288C177.968 169.342 178.357 170.488 178.246 171.795Z" fill="white"/>
<path d="M107.869 210.657L105.092 211.747C105.092 211.747 103.092 212.891 99.8706 214.635C99.093 215.071 98.2598 215.508 97.3156 216.053C96.149 216.706 94.8716 217.36 93.5384 218.123C93.4829 218.123 93.4273 218.178 93.3718 218.178C84.5401 222.92 72.6533 229.134 64.8769 232.512C51.1015 238.399 38.0484 241.451 32.0495 234.202C26.0505 226.899 25.7173 214.308 31.4385 211.747C37.1597 209.185 62.2108 206.732 76.8747 204.716C81.3184 204.116 85.651 203.298 89.4836 202.426C90.9834 202.099 92.4275 201.772 93.7606 201.39C94.5938 201.173 95.4269 200.955 96.2046 200.791C101.537 199.374 105.092 198.23 105.092 198.23L107.869 210.657Z" fill="#FFB292"/>
<path d="M142.362 192.779C141.306 192.724 128.864 195.177 128.864 195.177C128.864 195.177 134.253 193.215 136.752 191.852C137.418 191.525 138.086 191.035 138.196 190.327C138.308 189.509 137.53 188.8 136.697 188.692C135.864 188.582 135.031 188.854 134.253 189.127C128.754 191.035 115.534 191.962 115.534 191.962C115.534 191.962 122.144 190.926 124.421 189.618C124.976 189.291 125.532 188.909 125.588 188.255C125.643 187.329 124.421 186.893 123.477 186.784C113.812 185.803 100.759 189.018 99.9811 200.355C99.7034 204.171 104.203 212.346 104.203 212.346C104.203 212.346 116.089 211.256 120.533 210.275C122.754 209.784 124.976 209.294 127.198 208.803C129.254 208.367 131.364 208.04 133.364 207.385C134.308 207.059 135.641 206.678 136.307 205.914C136.808 205.261 136.863 204.225 136.364 203.57C137.418 203.081 138.641 202.917 139.752 202.59C141.196 202.208 142.695 201.336 142.973 199.919C143.085 199.32 142.862 197.248 143.085 196.649C143.362 195.94 144.084 195.449 144.251 194.741C144.473 193.76 143.418 192.834 142.362 192.779Z" fill="#FFB292"/>
<path d="M127.588 195.014C126.199 195.286 124.643 195.723 123.199 195.667C122.644 195.667 122.644 196.485 123.199 196.54C124.699 196.595 126.31 196.104 127.81 195.831C128.421 195.777 128.143 194.905 127.588 195.014Z" fill="#DF7B53" fill-opacity="0.6"/>
<path d="M141.085 196.595C135.587 198.829 129.976 199.919 124.089 200.845C123.533 200.955 123.756 201.772 124.311 201.663C130.143 200.791 135.808 199.646 141.308 197.412C141.808 197.194 141.585 196.376 141.085 196.595Z" fill="#DF7B53" fill-opacity="0.6"/>
<path d="M134.697 203.189C131.808 204.77 127.976 205.042 124.755 205.479C124.199 205.533 124.422 206.405 124.977 206.296C128.31 205.806 132.142 205.533 135.141 203.898C135.641 203.68 135.198 202.917 134.697 203.189Z" fill="#DF7B53" fill-opacity="0.6"/>
<path d="M99.8705 214.69C99.0928 215.126 98.2597 215.562 97.3154 216.107C96.149 216.761 94.8714 217.415 93.5384 218.178C93.4828 218.178 93.4272 218.233 93.3716 218.233C91.8164 213.054 90.5944 207.822 89.5391 202.481C91.0388 202.154 92.4829 201.827 93.8161 201.446C94.6493 201.227 95.4824 201.009 96.2601 200.845C97.1488 204.988 98.6485 210.493 99.8705 214.69Z" fill="#4D2E18"/>
<path d="M97.3121 214.807C99.8744 213.647 100.993 210.668 99.8098 208.153C98.627 205.639 95.591 204.541 93.0286 205.702C90.4663 206.862 89.348 209.841 90.5308 212.356C91.7136 214.87 94.7497 215.968 97.3121 214.807Z" fill="white"/>
<path d="M190.855 119.526V119.471C190.3 116.419 189.022 113.585 188.356 110.587C188.244 110.097 187.633 106.99 186.855 108.08C186.8 108.189 186.745 108.298 186.745 108.407C186.134 112.222 185.467 116.038 184.856 119.798C184.8 120.016 184.8 120.235 184.968 120.398C185.078 120.507 185.244 120.507 185.411 120.507C187.022 120.453 188.689 120.289 190.3 120.125C190.522 120.125 190.743 120.071 190.855 119.907C190.91 119.744 190.91 119.635 190.855 119.526ZM187.355 110.042C187.966 113.149 189.244 116.092 189.967 119.253C188.578 119.417 187.189 119.526 185.801 119.58C186.3 116.419 186.8 113.204 187.355 110.042Z" fill="white"/>
</g>
<defs>
<clipPath id="clip0_7_979">
<rect width="291" height="228" fill="white"/>
</clipPath>
</defs>
</svg>
