<svg width="32" height="32" viewBox="0 0 32 32" fill="none" xmlns="http://www.w3.org/2000/svg">
<g clip-path="url(#clip0_31_3702)">
<path d="M30.75 17.875C31.44 17.875 32 17.315 32 16.625V9.375C32 6.618 29.757 4.375 27 4.375H8.806V1.25C8.806 0.56 8.246 0 7.556 0H5C2.243 0 0 2.243 0 5V23.188C0 25.945 2.243 28.188 5 28.188H9.5V30.75C9.5 31.44 10.06 32 10.75 32H30.75C31.44 32 32 31.44 32 30.75V22.875C32 22.185 31.44 21.625 30.75 21.625H10.75C10.06 21.625 9.5 22.185 9.5 22.875V25.688H5C4.3372 25.6872 3.70178 25.4236 3.23311 24.9549C2.76444 24.4862 2.50079 23.8508 2.5 23.188V23.063C2.5 21.684 3.622 20.563 5 20.563H7.556C8.246 20.563 8.806 20.003 8.806 19.313V6.874H27C28.378 6.874 29.5 7.996 29.5 9.374V16.624C29.5 17.314 30.06 17.875 30.75 17.875ZM12 24.125H14.5V26.375C14.5 26.7065 14.6317 27.0245 14.8661 27.2589C15.1005 27.4933 15.4185 27.625 15.75 27.625C16.0815 27.625 16.3995 27.4933 16.6339 27.2589C16.8683 27.0245 17 26.7065 17 26.375V24.125H19.5V26.375C19.5 26.7065 19.6317 27.0245 19.8661 27.2589C20.1005 27.4933 20.4185 27.625 20.75 27.625C21.0815 27.625 21.3995 27.4933 21.6339 27.2589C21.8683 27.0245 22 26.7065 22 26.375V24.125H24.5V26.375C24.5 26.7065 24.6317 27.0245 24.8661 27.2589C25.1005 27.4933 25.4185 27.625 25.75 27.625C26.0815 27.625 26.3995 27.4933 26.6339 27.2589C26.8683 27.0245 27 26.7065 27 26.375V24.125H29.5V29.5H12V24.125ZM6.306 18.062H5C4.12203 18.0609 3.25944 18.2924 2.5 18.733V5C2.5 3.622 3.622 2.5 5 2.5H6.306V18.062Z" fill="#365EDC"/>
</g>
<defs>
<clipPath id="clip0_31_3702">
<rect width="32" height="32" fill="white"/>
</clipPath>
</defs>
</svg>
