<svg width="76" height="76" viewBox="0 0 76 76" fill="none" xmlns="http://www.w3.org/2000/svg">
<path d="M56.6841 73.2974H19C9.8325 73.2974 2.375 65.8399 2.375 56.6724V33.3617C2.38181 30.8043 2.97522 28.2825 4.10956 25.9903C5.2439 23.6982 6.88894 21.6968 8.91812 20.1401L27.759 5.769C30.6584 3.56614 34.1995 2.37354 37.8409 2.37354C41.4822 2.37354 45.0233 3.56614 47.9227 5.769L53.9125 10.3314V6.79737C54.0597 3.12087 59.3085 3.12562 59.4534 6.79737V15.9292C59.4528 16.4452 59.3083 16.9507 59.036 17.389C58.7637 17.8272 58.3745 18.1808 57.9122 18.4099C57.4499 18.6389 56.9328 18.7344 56.4192 18.6855C55.9056 18.6366 55.4158 18.4454 55.005 18.1333L44.5645 10.177C42.6315 8.70843 40.2708 7.91336 37.8432 7.91336C35.4157 7.91336 33.055 8.70843 31.122 10.177L12.2787 24.5481C10.9262 25.5854 9.82957 26.9191 9.07322 28.4467C8.31686 29.9742 7.92093 31.6549 7.91587 33.3594V56.6724C7.91839 59.6115 9.08691 62.4296 11.165 64.5081C13.243 66.5866 16.0609 67.7557 19 67.7589H56.6841C59.6224 67.7551 62.4393 66.586 64.5168 64.5081C66.5943 62.4302 67.7627 59.6131 67.7659 56.6748V33.3641C67.7659 29.8848 66.1556 26.5811 63.4529 24.5196C63.1569 24.3013 62.9073 24.0262 62.7187 23.7105C62.5301 23.3947 62.4062 23.0445 62.3542 22.6804C62.3023 22.3163 62.3234 21.9455 62.4162 21.5895C62.5091 21.2336 62.6718 20.8998 62.895 20.6074C63.1182 20.315 63.3973 20.07 63.7161 19.8866C64.035 19.7032 64.3871 19.5851 64.7521 19.5392C65.117 19.4933 65.4874 19.5205 65.8417 19.6191C66.1961 19.7178 66.5272 19.886 66.8159 20.114C70.8819 23.2157 73.3091 28.1676 73.3091 33.3641V56.6748C73.3091 65.8423 65.8516 73.2998 56.6841 73.2998V73.2974ZM32.3 34.3687C30.3881 34.3687 28.8372 35.9196 28.8372 37.8315C29.0201 42.4271 35.5822 42.4248 35.7627 37.8315C35.7627 35.9173 34.2119 34.3687 32.3 34.3687ZM46.8469 37.8315C46.664 42.4271 40.1019 42.4224 39.919 37.8315C40.1019 33.2359 46.664 33.2383 46.8469 37.8315ZM35.7627 48.9156C35.5799 53.5089 29.0177 53.5065 28.8372 48.9156C29.0201 44.32 35.5822 44.3224 35.7627 48.9156ZM46.8469 48.9156C46.664 53.5089 40.1019 53.5065 39.919 48.9156C40.1019 44.32 46.664 44.3224 46.8469 48.9156Z" fill="#365EDC"/>
</svg>
