<svg width="32" height="32" viewBox="0 0 32 32" fill="none" xmlns="http://www.w3.org/2000/svg">
<g clip-path="url(#clip0_31_3592)">
<path d="M30.836 17.6632C30.146 19.9342 28.816 22.0232 27.53 24.0432C26.003 26.4402 24.562 28.7032 24.562 30.7492C24.562 31.0807 24.4303 31.3986 24.1959 31.6331C23.9615 31.8675 23.6435 31.9992 23.312 31.9992C22.9805 31.9992 22.6625 31.8675 22.4281 31.6331C22.1937 31.3986 22.062 31.0807 22.062 30.7492C22.062 27.9752 23.694 25.4132 25.421 22.7012C26.617 20.8232 27.854 18.8812 28.443 16.9382C30.017 11.7482 29.546 6.62817 28.873 3.24717C28.8242 3.00784 28.6833 2.79726 28.4808 2.66074C28.2782 2.52421 28.0302 2.47266 27.79 2.51717L27.765 2.52217C27.21 2.62617 26.992 3.17217 27.023 3.63417C27.042 3.90117 27.068 4.20317 27.098 4.55217C27.383 7.81917 27.912 13.9002 24.371 19.5402C24.337 19.5942 24.167 19.8402 24.12 19.9162C23.9434 20.1968 23.6625 20.3957 23.3392 20.4692C23.0159 20.5427 22.6766 20.4848 22.396 20.3082C22.1154 20.1315 21.9165 19.8507 21.843 19.5274C21.7694 19.204 21.8274 18.8648 22.004 18.5842C22.78 17.3522 23.164 16.2322 23.114 15.3442C23.085 14.8402 22.913 14.4292 22.628 14.1842C22.396 13.9852 22.098 13.9022 21.741 13.9372C21.281 13.9812 21.01 14.2662 20.863 14.4972C20.77 14.6442 20.697 14.9102 20.619 15.1932L20.556 15.4212C19.577 18.8592 18.069 20.9052 16.857 22.5492C16.007 23.7032 15.271 24.7022 14.89 25.9342C14.737 26.5882 14.67 27.2742 14.682 28.0892C14.69 28.6001 14.5955 29.1075 14.4042 29.5814C14.2129 30.0553 13.9285 30.486 13.568 30.8482C13.2117 31.213 12.786 31.5028 12.3159 31.7005C11.8458 31.8981 11.341 31.9997 10.831 31.9992C9.13501 31.9992 7.62201 30.8492 7.15201 29.2032C6.68701 27.5732 5.59601 25.8482 4.44001 24.0222C3.16801 22.0102 1.85101 19.9292 1.16401 17.6632C-0.559988 11.9772 -0.0529876 6.42017 0.675012 2.75817C0.854521 1.87444 1.37387 1.09654 2.12124 0.591935C2.86861 0.0873281 3.78424 -0.103631 4.67101 0.0601679L4.69501 0.0641679C6.43001 0.390168 7.59701 1.96317 7.47101 3.80417C7.45101 4.09117 7.42301 4.41417 7.39301 4.75717C7.23401 6.59517 6.99101 9.41217 7.55801 12.4602C7.61801 12.4002 7.68001 12.3422 7.74401 12.2872C8.49101 11.6462 9.47001 11.3482 10.501 11.4482C11.0585 11.5038 11.5959 11.6865 12.0717 11.9822C12.5476 12.278 12.9493 12.6789 13.246 13.1542C13.542 13.6202 13.675 14.1042 13.792 14.5332L13.848 14.7362C14.06 15.4792 14.329 16.1492 14.588 16.7632C14.7101 17.0671 14.7079 17.4068 14.5821 17.7092C14.4563 18.0116 14.2168 18.2525 13.9151 18.3802C13.6135 18.5078 13.2738 18.5119 12.9691 18.3917C12.6645 18.2714 12.4192 18.0364 12.286 17.7372C11.9271 16.9106 11.6248 16.0607 11.381 15.1932C11.303 14.9102 11.231 14.6432 11.137 14.4962C10.99 14.2662 10.719 13.9812 10.259 13.9362C9.90201 13.9022 9.60401 13.9862 9.37201 14.1842C9.08701 14.4282 8.91501 14.8402 8.88601 15.3442C8.83601 16.2242 9.22301 17.3442 10.004 18.5842C10.0954 18.723 10.1583 18.8788 10.1888 19.0422C10.2193 19.2057 10.2168 19.3736 10.1817 19.5361C10.1465 19.6986 10.0792 19.8525 9.98381 19.9887C9.88841 20.1248 9.76681 20.2406 9.62611 20.3293C9.48541 20.4179 9.32844 20.4775 9.1644 20.5047C9.00036 20.5319 8.83255 20.5261 8.67078 20.4876C8.50902 20.4492 8.35655 20.3788 8.22231 20.2807C8.08807 20.1825 7.97476 20.0586 7.88901 19.9162C7.84101 19.8402 7.67201 19.5942 7.63901 19.5392C4.09201 13.8952 4.61801 7.81017 4.90201 4.54317C4.93201 4.19717 4.95801 3.89917 4.97601 3.63517C5.00701 3.17217 4.78901 2.62717 4.23301 2.52217L4.21001 2.51817C3.96995 2.47305 3.72177 2.52408 3.51899 2.66027C3.31621 2.79645 3.17507 3.00688 3.12601 3.24617C2.45301 6.62817 1.98201 11.7482 3.55601 16.9392C4.14501 18.8792 5.36801 20.8152 6.55201 22.6862C7.80601 24.6692 8.99101 26.5422 9.55501 28.5182C9.72001 29.0962 10.245 29.5002 10.83 29.5002C11.189 29.5002 11.528 29.3562 11.787 29.0932C12.047 28.8302 12.187 28.4862 12.182 28.1262C12.167 27.0822 12.257 26.1892 12.466 25.3162C12.472 25.2922 12.478 25.2692 12.486 25.2452C12.989 23.5852 13.89 22.3622 14.844 21.0672C16.049 19.4322 17.296 17.7402 18.151 14.7372C18.171 14.6692 18.189 14.6012 18.207 14.5342C18.324 14.1062 18.457 13.6212 18.753 13.1552C19.0497 12.6799 19.4514 12.279 19.9273 11.9832C20.4032 11.6875 20.9405 11.5048 21.498 11.4492C22.528 11.3492 23.508 11.6472 24.255 12.2882C24.321 12.3452 24.385 12.4052 24.446 12.4662C25.011 9.42117 24.766 6.60717 24.606 4.77017C24.576 4.42317 24.548 4.09617 24.528 3.80617C24.403 1.96317 25.57 0.390168 27.305 0.0651679L27.329 0.0601679C28.2159 -0.103604 29.1317 0.0874907 29.8791 0.592302C30.6265 1.09711 31.1457 1.87526 31.325 2.75917C32.053 6.42017 32.56 11.9782 30.835 17.6632H30.836ZM16 9.06317C16.4144 9.06317 16.8118 8.89855 17.1049 8.60552C17.3979 8.3125 17.5625 7.91507 17.5625 7.50067C17.5625 7.08627 17.3979 6.68884 17.1049 6.39581C16.8118 6.10279 16.4144 5.93817 16 5.93817C15.5856 5.93817 15.1882 6.10279 14.8952 6.39581C14.6021 6.68884 14.4375 7.08627 14.4375 7.50067C14.4375 7.91507 14.6021 8.3125 14.8952 8.60552C15.1882 8.89855 15.5856 9.06317 16 9.06317ZM22.437 7.81317V5.86317C22.4351 5.22878 22.2886 4.60318 22.0086 4.03394C21.7286 3.46471 21.3224 2.96683 20.821 2.57817L18.59 0.860168C17.8587 0.304439 16.9655 0.00356295 16.047 0.00356295C15.1285 0.00356295 14.2353 0.304439 13.504 0.860168L13.492 0.869168L11.218 2.64617C10.7203 3.03265 10.3179 3.52813 10.0418 4.09451C9.76561 4.66088 9.62303 5.28305 9.62501 5.91317V7.81317C9.62501 8.14469 9.75671 8.46263 9.99113 8.69705C10.2255 8.93147 10.5435 9.06317 10.875 9.06317C11.2065 9.06317 11.5245 8.93147 11.7589 8.69705C11.9933 8.46263 12.125 8.14469 12.125 7.81317V5.91317C12.125 5.40317 12.355 4.93017 12.758 4.61517L15.025 2.84417C15.3193 2.62175 15.6781 2.5014 16.047 2.5014C16.4159 2.5014 16.7747 2.62175 17.069 2.84417L19.296 4.55917C19.698 4.86917 19.937 5.35617 19.937 5.86317V7.81317C19.937 8.14469 20.0687 8.46263 20.3031 8.69705C20.5375 8.93147 20.8555 9.06317 21.187 9.06317C21.5185 9.06317 21.8365 8.93147 22.0709 8.69705C22.3053 8.46263 22.437 8.14469 22.437 7.81317Z" fill="#365EDC"/>
</g>
<defs>
<clipPath id="clip0_31_3592">
<rect width="32" height="32" fill="white"/>
</clipPath>
</defs>
</svg>
