<svg width="32" height="32" viewBox="0 0 32 32" fill="none" xmlns="http://www.w3.org/2000/svg">
<g clip-path="url(#clip0_31_3573)">
<path d="M32 13.063V27.5C32 29.981 29.981 32 27.5 32C26.3591 32.0015 25.2605 31.5681 24.428 30.788C24.3048 30.6768 24.205 30.5421 24.1344 30.3919C24.0638 30.2417 24.0238 30.079 24.0168 29.9131C24.0098 29.7473 24.0359 29.5817 24.0935 29.4261C24.1511 29.2704 24.2392 29.1278 24.3525 29.0066C24.4659 28.8854 24.6022 28.7879 24.7537 28.7199C24.9051 28.6519 25.0685 28.6148 25.2344 28.6106C25.4003 28.6065 25.5654 28.6354 25.7201 28.6957C25.8747 28.7561 26.0157 28.8466 26.135 28.962C26.4202 29.2271 26.7765 29.4033 27.1603 29.469C27.5441 29.5346 27.9387 29.487 28.2958 29.3318C28.6529 29.1767 28.957 28.9208 29.1709 28.5954C29.3848 28.27 29.4992 27.8894 29.5 27.5C29.5 26.397 28.603 25.5 27.5 25.5H4.5C3.30693 25.4987 2.16311 25.0242 1.31948 24.1805C0.475854 23.3369 0.00132343 22.1931 0 21L0 1.25001C0 0.918494 0.131696 0.600551 0.366117 0.366131C0.600537 0.13171 0.918479 1.4279e-05 1.25 1.4279e-05C1.58152 1.4279e-05 1.89946 0.13171 2.13388 0.366131C2.3683 0.600551 2.5 0.918494 2.5 1.25001C2.5 2.35301 3.397 3.25001 4.5 3.25001H16C16.3315 3.25001 16.6495 3.38171 16.8839 3.61613C17.1183 3.85055 17.25 4.16849 17.25 4.50001C17.25 4.83153 17.1183 5.14948 16.8839 5.3839C16.6495 5.61832 16.3315 5.75001 16 5.75001H4.5C3.8059 5.75065 3.12117 5.58974 2.5 5.28001V21C2.5 22.103 3.397 23 4.5 23H27.5C28.218 23 28.897 23.17 29.5 23.47V13.064C29.5 12.7325 29.6317 12.4146 29.8661 12.1801C30.1005 11.9457 30.4185 11.814 30.75 11.814C31.0815 11.814 31.3995 11.9457 31.6339 12.1801C31.8683 12.4146 32 12.7325 32 13.064V13.063ZM17.212 13.318L17.92 9.77601C18.2681 8.02513 19.1285 6.41712 20.392 5.15601L24.212 1.33601C24.6346 0.911234 25.1372 0.574447 25.6907 0.345128C26.2443 0.11581 26.8378 -0.00148958 27.437 1.4279e-05C28.655 1.4279e-05 29.801 0.475014 30.663 1.33601C31.0882 1.75875 31.4253 2.26164 31.6548 2.81556C31.8843 3.36948 32.0016 3.96343 32 4.56301C32.0017 5.16237 31.8845 5.7561 31.6552 6.30984C31.4258 6.86359 31.0889 7.36635 30.664 7.78901L26.844 11.608C25.5829 12.8715 23.9749 13.7318 22.224 14.08L18.683 14.788C18.4813 14.8283 18.2727 14.8183 18.0759 14.7587C17.879 14.6991 17.6998 14.5919 17.5543 14.4465C17.4088 14.3011 17.3014 14.122 17.2417 13.9251C17.182 13.7283 17.1718 13.5198 17.212 13.318ZM20.031 11.969L21.734 11.629C23.0006 11.3769 24.1638 10.7542 25.076 9.84001L28.896 6.02001C29.286 5.63101 29.5 5.11301 29.5 4.56201C29.5 4.01201 29.285 3.49401 28.896 3.10401C28.7048 2.91188 28.4774 2.75957 28.227 2.6559C27.9766 2.55222 27.708 2.49924 27.437 2.50001C26.887 2.50001 26.368 2.71501 25.979 3.10401L22.159 6.92401C21.2451 7.83631 20.6228 8.99949 20.371 10.266L20.031 11.969ZM21.75 19.063C21.75 18.373 21.19 17.813 20.5 17.813H8.75C8.41848 17.813 8.10054 17.9447 7.86612 18.1791C7.6317 18.4136 7.5 18.7315 7.5 19.063C7.5 19.3945 7.6317 19.7125 7.86612 19.9469C8.10054 20.1813 8.41848 20.313 8.75 20.313H20.5C21.19 20.313 21.75 19.753 21.75 19.063ZM12.937 15.625H8.75C8.41848 15.625 8.10054 15.4933 7.86612 15.2589C7.6317 15.0245 7.5 14.7065 7.5 14.375C7.5 14.0435 7.6317 13.7256 7.86612 13.4911C8.10054 13.2567 8.41848 13.125 8.75 13.125H12.938C13.2695 13.125 13.5875 13.2567 13.8219 13.4911C14.0563 13.7256 14.188 14.0435 14.188 14.375C14.188 14.7065 14.0563 15.0245 13.8219 15.2589C13.5875 15.4933 13.2685 15.625 12.937 15.625Z" fill="#365EDC"/>
</g>
<defs>
<clipPath id="clip0_31_3573">
<rect width="32" height="32" fill="white"/>
</clipPath>
</defs>
</svg>
