<svg width="81" height="76" viewBox="0 0 81 76" fill="none" xmlns="http://www.w3.org/2000/svg">
<g clip-path="url(#clip0_31_3783)">
<path d="M15.8033 19.0003C16.6415 19.0003 17.4455 18.6667 18.0382 18.0728C18.631 17.479 18.964 16.6735 18.964 15.8337C18.964 14.9938 18.631 14.1884 18.0382 13.5945C17.4455 13.0006 16.6415 12.667 15.8033 12.667C14.965 12.667 14.1611 13.0006 13.5683 13.5945C12.9756 14.1884 12.6426 14.9938 12.6426 15.8337C12.6426 16.6735 12.9756 17.479 13.5683 18.0728C14.1611 18.6667 14.965 19.0003 15.8033 19.0003Z" fill="#365EDC"/>
<path d="M22.1249 76C24.6388 75.9973 27.0491 74.9956 28.8268 73.2145C30.6044 71.4335 31.6043 69.0187 31.607 66.5V9.5C31.6043 6.98127 30.6044 4.56646 28.8268 2.78545C27.0491 1.00443 24.6388 0.00268236 22.1249 0H9.48209C6.9681 0.00268236 4.55785 1.00443 2.7802 2.78545C1.00254 4.56646 0.0026773 6.98127 0 9.5L0 66.5C0.0026773 69.0187 1.00254 71.4335 2.7802 73.2145C4.55785 74.9956 6.9681 75.9973 9.48209 76H22.1249ZM6.32139 66.5V9.5C6.32139 7.752 7.73738 6.33333 9.48209 6.33333H22.1249C23.8696 6.33333 25.2856 7.752 25.2856 9.5V66.5C25.2856 68.248 23.8696 69.6667 22.1249 69.6667H9.48209C7.73738 69.6667 6.32139 68.248 6.32139 66.5ZM56.2604 9.5C56.2577 6.98127 55.2578 4.56646 53.4802 2.78545C51.7025 1.00443 49.2923 0.00268236 46.7783 0L39.3747 0C38.5364 0 37.7325 0.33363 37.1397 0.927495C36.547 1.52136 36.214 2.32681 36.214 3.16667C36.214 4.00652 36.547 4.81197 37.1397 5.40584C37.7325 5.9997 38.5364 6.33333 39.3747 6.33333H46.7783C48.523 6.33333 49.939 7.752 49.939 9.5V66.5C49.939 68.248 48.523 69.6667 46.7783 69.6667H39.3747C38.5364 69.6667 37.7325 70.0003 37.1397 70.5942C36.547 71.188 36.214 71.9935 36.214 72.8333C36.214 73.6732 36.547 74.4786 37.1397 75.0725C37.7325 75.6664 38.5364 76 39.3747 76H46.7783C49.2923 75.9973 51.7025 74.9956 53.4802 73.2145C55.2578 71.4335 56.2577 69.0187 56.2604 66.5V9.5ZM71.4317 0H64.0281C63.1898 0 62.3859 0.33363 61.7931 0.927495C61.2004 1.52136 60.8674 2.32681 60.8674 3.16667C60.8674 4.00652 61.2004 4.81197 61.7931 5.40584C62.3859 5.9997 63.1898 6.33333 64.0281 6.33333H71.4317C73.1764 6.33333 74.5924 7.752 74.5924 9.5V66.5C74.5924 68.248 73.1764 69.6667 71.4317 69.6667H64.0281C63.1898 69.6667 62.3859 70.0003 61.7931 70.5942C61.2004 71.188 60.8674 71.9935 60.8674 72.8333C60.8674 73.6732 61.2004 74.4786 61.7931 75.0725C62.3859 75.6664 63.1898 76 64.0281 76H71.4317C73.9457 75.9973 76.3559 74.9956 78.1336 73.2145C79.9113 71.4335 80.9111 69.0187 80.9138 66.5V9.5C80.9111 6.98127 79.9113 4.56646 78.1336 2.78545C76.3559 1.00443 73.9457 0.00268236 71.4317 0Z" fill="#365EDC"/>
<path d="M40.4567 19.0003C41.295 19.0003 42.0989 18.6667 42.6916 18.0728C43.2844 17.479 43.6174 16.6735 43.6174 15.8337C43.6174 14.9938 43.2844 14.1884 42.6916 13.5945C42.0989 13.0006 41.295 12.667 40.4567 12.667C39.6184 12.667 38.8145 13.0006 38.2217 13.5945C37.629 14.1884 37.296 14.9938 37.296 15.8337C37.296 16.6735 37.629 17.479 38.2217 18.0728C38.8145 18.6667 39.6184 19.0003 40.4567 19.0003ZM37.296 28.5003V60.167C37.296 61.0068 37.629 61.8123 38.2217 62.4062C38.8145 63 39.6184 63.3337 40.4567 63.3337C41.295 63.3337 42.0989 63 42.6916 62.4062C43.2844 61.8123 43.6174 61.0068 43.6174 60.167V28.5003C43.6174 27.6605 43.2844 26.855 42.6916 26.2612C42.0989 25.6673 41.295 25.3337 40.4567 25.3337C39.6184 25.3337 38.8145 25.6673 38.2217 26.2612C37.629 26.855 37.296 27.6605 37.296 28.5003ZM65.1101 19.0003C65.9484 19.0003 66.7523 18.6667 67.3451 18.0728C67.9378 17.479 68.2708 16.6735 68.2708 15.8337C68.2708 14.9938 67.9378 14.1884 67.3451 13.5945C66.7523 13.0006 65.9484 12.667 65.1101 12.667C64.2719 12.667 63.4679 13.0006 62.8752 13.5945C62.2824 14.1884 61.9494 14.9938 61.9494 15.8337C61.9494 16.6735 62.2824 17.479 62.8752 18.0728C63.4679 18.6667 64.2719 19.0003 65.1101 19.0003ZM61.9494 28.5003V60.167C61.9494 61.0068 62.2824 61.8123 62.8752 62.4062C63.4679 63 64.2719 63.3337 65.1101 63.3337C65.9484 63.3337 66.7523 63 67.3451 62.4062C67.9378 61.8123 68.2708 61.0068 68.2708 60.167V28.5003C68.2708 27.6605 67.9378 26.855 67.3451 26.2612C66.7523 25.6673 65.9484 25.3337 65.1101 25.3337C64.2719 25.3337 63.4679 25.6673 62.8752 26.2612C62.2824 26.855 61.9494 27.6605 61.9494 28.5003ZM15.8033 25.3337C14.0586 25.3337 12.6426 26.7523 12.6426 28.5003V60.167C12.6426 61.0068 12.9756 61.8123 13.5683 62.4062C14.1611 63 14.965 63.3337 15.8033 63.3337C16.6415 63.3337 17.4455 63 18.0382 62.4062C18.631 61.8123 18.964 61.0068 18.964 60.167V28.5003C18.964 26.7523 17.548 25.3337 15.8033 25.3337Z" fill="#365EDC"/>
</g>
<defs>
<clipPath id="clip0_31_3783">
<rect width="80.9138" height="76" fill="white"/>
</clipPath>
</defs>
</svg>
