<svg width="18" height="18" viewBox="0 0 18 18" fill="none" xmlns="http://www.w3.org/2000/svg">
<path fill-rule="evenodd" clip-rule="evenodd" d="M8.99701 18.0024C4.02692 18.0019 -0.00195312 13.9727 -0.00195312 9.00244C-0.00195312 4.03188 4.02748 0.00244141 8.99805 0.00244141C13.9686 0.00244141 17.998 4.03188 17.998 9.00244C17.998 13.9716 13.9709 18.0001 9.0024 18.0024H8.99701ZM11.5158 2.46887C11.9826 3.30341 12.4175 4.38411 12.6939 5.75706C13.3976 5.64376 14.1089 5.48466 14.9189 5.26672C14.1203 4.00358 12.9286 3.01368 11.5158 2.46887ZM10.6938 5.96391C10.4281 4.74804 10.0259 3.85761 9.6433 3.2273C9.4147 2.85079 9.1896 2.56147 8.99805 2.34713C8.80649 2.56147 8.58143 2.85079 8.35283 3.2273C7.97646 3.84721 7.58129 4.7187 7.31553 5.90395C7.91012 5.96487 8.48521 6.00244 8.99805 6.00244C9.6175 6.00244 10.1733 5.99096 10.6938 5.96391ZM7.03511 7.88552C7.71373 7.95687 8.38619 8.00244 8.99805 8.00244C9.7165 8.00244 10.3603 7.98726 10.9654 7.95176C10.9866 8.28513 10.998 8.63514 10.998 9.00244C10.998 9.36974 10.9866 9.71975 10.9654 10.0531C10.3603 10.0176 9.7165 10.0024 8.99805 10.0024C8.38619 10.0024 7.71373 10.048 7.03511 10.1194C7.01103 9.76619 6.99805 9.39415 6.99805 9.00244C6.99805 8.61073 7.01103 8.23869 7.03511 7.88552ZM5.3273 5.63515C5.60451 4.31995 6.02741 3.27856 6.48034 2.46887C5.08439 3.00715 3.90437 3.97993 3.10602 5.22144C3.51775 5.30734 4.04743 5.41266 4.639 5.5179C4.86212 5.55759 5.09247 5.59698 5.3273 5.63515ZM5.04937 7.61625C5.01599 8.05523 4.99805 8.51699 4.99805 9.00244C4.99805 9.48789 5.01599 9.94965 5.04937 10.3886C4.78639 10.4311 4.53156 10.4747 4.2887 10.5179C3.57266 10.6453 2.94497 10.7726 2.49594 10.8681C2.41206 10.8859 2.33435 10.9027 2.2634 10.9181C2.09056 10.3093 1.99805 9.66666 1.99805 9.00244C1.99805 8.33822 2.09056 7.69561 2.2634 7.08679C2.33435 7.10223 2.41206 7.11897 2.49594 7.13681C2.94497 7.23232 3.57266 7.3596 4.2887 7.48698C4.53156 7.53019 4.78639 7.57374 5.04937 7.61625ZM5.3273 12.3697C5.09247 12.4079 4.86212 12.4473 4.639 12.487C4.04743 12.5922 3.51775 12.6975 3.10602 12.7834C3.90437 14.025 5.08439 14.9977 6.48034 15.536C6.02741 14.7263 5.60451 13.6849 5.3273 12.3697ZM11.5158 15.536C11.9826 14.7015 12.4175 13.6208 12.6939 12.2478C13.3976 12.3611 14.1089 12.5202 14.9189 12.7382C14.1203 14.0013 12.9286 14.9912 11.5158 15.536ZM10.6938 12.041C10.1733 12.0139 9.6175 12.0024 8.99805 12.0024C8.48521 12.0024 7.91012 12.04 7.31553 12.1009C7.58129 13.2862 7.97646 14.1577 8.35283 14.7776C8.58143 15.1541 8.80649 15.4434 8.99804 15.6577C9.1896 15.4434 9.4147 15.1541 9.6433 14.7776C10.0259 14.1473 10.4281 13.2568 10.6938 12.041ZM12.9557 10.2643C13.8322 10.4028 14.7154 10.6048 15.7407 10.8895C15.9084 10.2892 15.998 9.65629 15.998 9.00244C15.998 8.34859 15.9084 7.71569 15.7407 7.11534C14.7154 7.40007 13.8322 7.60204 12.9557 7.74057C12.9833 8.1422 12.998 8.56259 12.998 9.00244C12.998 9.44229 12.9833 9.86269 12.9557 10.2643Z" fill="#BDBDBD"/>
</svg>
