<svg width="12" height="13" viewBox="0 0 12 13" fill="none" xmlns="http://www.w3.org/2000/svg">
<g clip-path="url(#clip0_3_574)">
<g opacity="0.5">
<path d="M1 3.96191C1 2.85734 1.89543 1.96191 3 1.96191H9C10.1046 1.96191 11 2.85734 11 3.96191V8.96191C11 10.0665 10.1046 10.9619 9 10.9619H3C1.89543 10.9619 1 10.0665 1 8.96191V3.96191Z" stroke="#888888" stroke-width="2"/>
<mask id="mask0_3_574" style="mask-type:luminance" maskUnits="userSpaceOnUse" x="1" y="1" width="10" height="10">
<path d="M1 3.96191C1 2.85734 1.89543 1.96191 3 1.96191H9C10.1046 1.96191 11 2.85734 11 3.96191V8.96191C11 10.0665 10.1046 10.9619 9 10.9619H3C1.89543 10.9619 1 10.0665 1 8.96191V3.96191Z" fill="#C4C4C4"/>
</mask>
<g mask="url(#mask0_3_574)">
<path d="M6.66509 7.06805L25.0382 -9.29119C25.7246 -9.90239 25.2923 -11.0381 24.3732 -11.0381H-12.373C-13.2921 -11.0381 -13.7244 -9.90239 -13.038 -9.29119L5.33511 7.06805C5.71419 7.40558 6.28601 7.40558 6.66509 7.06805Z" stroke="#888888" stroke-width="2"/>
</g>
</g>
</g>
<defs>
<clipPath id="clip0_3_574">
<rect width="12" height="12" fill="white" transform="translate(0 0.8125)"/>
</clipPath>
</defs>
</svg>
