<svg width="32" height="32" viewBox="0 0 32 32" fill="none" xmlns="http://www.w3.org/2000/svg">
<g clip-path="url(#clip0_31_3904)">
<mask id="mask0_31_3904" style="mask-type:luminance" maskUnits="userSpaceOnUse" x="0" y="0" width="32" height="32">
<path d="M0.47998 0.47998H31.5054V31.5054H0.47998V0.47998Z" fill="white"/>
</mask>
<g mask="url(#mask0_31_3904)">
<path d="M25.4545 21.7601C22.0509 21.7601 19.3891 19.8983 19.3891 17.5128C19.3891 15.1419 22.0509 13.2655 25.4545 13.2655C28.8582 13.2655 31.52 15.1419 31.52 17.5128C31.52 19.8983 28.8582 21.7601 25.4545 21.7601ZM25.4545 15.6946C24.3927 15.6946 23.3891 15.9564 22.6618 16.4074C22.1236 16.7419 21.8182 17.1346 21.8182 17.5128C21.8182 17.891 22.1236 18.2983 22.6618 18.6328C23.3891 19.0692 24.4073 19.331 25.4545 19.331C26.5163 19.331 27.52 19.0837 28.2473 18.6328C28.7854 18.2983 29.0909 17.891 29.0909 17.5128C29.0909 17.1492 28.7854 16.7419 28.2473 16.4074C27.52 15.9564 26.5018 15.6946 25.4545 15.6946ZM30.9527 29.8328C31.0816 29.7392 31.1909 29.6211 31.2742 29.4853C31.3575 29.3495 31.4132 29.1986 31.4382 29.0413C31.4632 28.8839 31.4569 28.7232 31.4198 28.5682C31.3827 28.4133 31.3154 28.2672 31.2218 28.1383C31.1282 28.0093 31.0101 27.9001 30.8743 27.8168C30.7385 27.7335 30.5876 27.6778 30.4303 27.6528C30.2729 27.6278 30.1122 27.634 29.9572 27.6712C29.8023 27.7083 29.6562 27.7756 29.5273 27.8692C28.2936 28.6646 26.8569 29.0876 25.3891 29.0876C23.9212 29.0876 22.4845 28.6646 21.2509 27.8692C20.9905 27.6821 20.6664 27.6061 20.35 27.6579C20.0336 27.7097 19.7507 27.8851 19.5636 28.1455C19.3765 28.4059 19.3005 28.73 19.3524 29.0464C19.4042 29.3628 19.5796 29.6457 19.84 29.8328C21.471 30.9606 23.4136 31.5505 25.3963 31.5201C27.4763 31.5201 29.4545 30.9237 30.9527 29.8328ZM30.9527 24.9164C31.2131 24.7274 31.3877 24.4427 31.4382 24.1249C31.4887 23.8071 31.4108 23.4823 31.2218 23.2219C31.1282 23.093 31.0101 22.9837 30.8743 22.9004C30.7385 22.8171 30.5876 22.7614 30.4303 22.7364C30.1125 22.6859 29.7876 22.7638 29.5273 22.9528C28.2936 23.7482 26.8569 24.1713 25.3891 24.1713C23.9212 24.1713 22.4845 23.7482 21.2509 22.9528C21.122 22.8602 20.976 22.7938 20.8215 22.7576C20.6669 22.7213 20.5067 22.7159 20.35 22.7415C20.1933 22.7672 20.0432 22.8235 19.9083 22.9071C19.7734 22.9908 19.6563 23.1002 19.5636 23.2292C19.3765 23.4896 19.3005 23.8136 19.3524 24.13C19.4042 24.4465 19.5796 24.7293 19.84 24.9164C21.471 26.0442 23.4136 26.6342 25.3963 26.6037C27.4763 26.6037 29.4545 26.0074 30.9527 24.9164ZM17.28 30.2983C17.28 30.1385 17.2483 29.9803 17.1867 29.8329C17.1251 29.6854 17.0349 29.5517 16.9213 29.4394C16.8076 29.3271 16.6728 29.2385 16.5246 29.1787C16.3765 29.1189 16.2179 29.0891 16.0582 29.091H7.76725C6.4813 29.091 5.2478 28.5812 4.33713 27.6732C3.42646 26.7653 2.91292 25.5333 2.90907 24.2474V19.6219C2.90437 18.4672 3.1641 17.3268 3.66835 16.288C4.17261 15.2493 4.908 14.3397 5.81816 13.6292L10.1382 10.2255C10.3749 10.0409 10.5344 9.77477 10.5855 9.47894C10.6366 9.18311 10.5756 8.87885 10.4145 8.62554L7.40362 3.91281C7.33745 3.81485 7.2997 3.70048 7.29457 3.58238C7.28943 3.46427 7.31711 3.34706 7.37453 3.24372C7.43103 3.13956 7.51534 3.05314 7.61806 2.99407C7.72079 2.935 7.8379 2.90561 7.95634 2.90918H22.9818C23.3309 2.90918 23.4909 3.1419 23.5636 3.24372C23.6073 3.34554 23.7091 3.60736 23.5345 3.89827L20.5527 8.62554C20.39 8.87717 20.3267 9.18031 20.3751 9.47603C20.4235 9.77174 20.5801 10.0389 20.8145 10.2255L22.56 11.6364C22.8107 11.839 23.1317 11.9336 23.4522 11.8995C23.7727 11.8654 24.0665 11.7054 24.2691 11.4546C24.4716 11.2039 24.5662 10.8829 24.5321 10.5624C24.498 10.2419 24.338 9.94807 24.0873 9.74554L23.1709 9.01827L25.5854 5.20736C25.8841 4.74218 26.0516 4.20497 26.0702 3.65247C26.0889 3.09997 25.9579 2.55269 25.6912 2.06846C25.4245 1.58424 25.032 1.18103 24.5551 0.901451C24.0782 0.621868 23.5346 0.476286 22.9818 0.480086H7.9418C7.38568 0.475468 6.83876 0.622044 6.35949 0.904149C5.88021 1.18625 5.4866 1.59328 5.22071 2.08174C4.95482 2.5702 4.82666 3.12172 4.84991 3.67737C4.87315 4.23302 5.04695 4.77191 5.35271 5.23645L7.7818 9.01827L4.31998 11.7383C3.12633 12.6805 2.16099 13.8802 1.49606 15.2479C0.831126 16.6155 0.483786 18.1157 0.47998 19.6364V24.2619C0.47998 26.1908 1.24621 28.0406 2.61011 29.4045C3.97401 30.7684 5.82386 31.5346 7.75271 31.5346H16.0582C16.7273 31.5346 17.28 30.9819 17.28 30.3128V30.2983ZM18.2982 9.26554C18.2982 9.107 18.2669 8.95001 18.2063 8.80354C18.1456 8.65706 18.0567 8.52398 17.9446 8.41187C17.8325 8.29976 17.6994 8.21084 17.5529 8.15017C17.4064 8.08949 17.2494 8.05827 17.0909 8.05827H13.8909C13.5688 8.05827 13.2598 8.18623 13.0321 8.414C12.8043 8.64177 12.6763 8.9507 12.6763 9.27281C12.6763 9.59493 12.8043 9.90385 13.0321 10.1316C13.2598 10.3594 13.5688 10.4874 13.8909 10.4874H17.0909C17.76 10.4874 18.2982 9.94918 18.2982 9.26554Z" fill="#365EDC"/>
</g>
</g>
<defs>
<clipPath id="clip0_31_3904">
<rect width="32" height="32" fill="white"/>
</clipPath>
</defs>
</svg>
