<svg width="32" height="32" viewBox="0 0 32 32" fill="none" xmlns="http://www.w3.org/2000/svg">
<g clip-path="url(#clip0_31_3931)">
<mask id="mask0_31_3931" style="mask-type:luminance" maskUnits="userSpaceOnUse" x="0" y="0" width="32" height="32">
<path d="M0 0H31.0255V31.0255H0V0Z" fill="white"/>
</mask>
<g mask="url(#mask0_31_3931)">
<path d="M15.4472 8.61091C13.9395 8.55861 12.4367 8.81066 11.0286 9.352C9.62043 9.89334 8.3358 10.7129 7.25139 11.7617C6.16699 12.8105 5.30504 14.0671 4.717 15.4563C4.12897 16.8456 3.82691 18.3392 3.82887 19.8478C3.83082 21.3564 4.13675 22.8492 4.72838 24.2369C5.32002 25.6247 6.18522 26.879 7.27234 27.925C8.35947 28.971 9.64621 29.7872 11.0558 30.3249C12.4653 30.8626 13.9687 31.1108 15.4763 31.0545C18.3825 30.9462 21.1333 29.7145 23.1497 27.6189C25.1661 25.5232 26.2908 22.7269 26.287 19.8187C26.2833 16.9105 25.1513 14.1171 23.1295 12.0267C21.1077 9.93624 18.3537 8.71173 15.4472 8.61091ZM15.4472 28.5964C13.1133 28.5925 10.8765 27.6617 9.22894 26.0086C7.58135 24.3556 6.65791 22.1157 6.66177 19.7818C6.66562 17.4479 7.59646 15.2111 9.24951 13.5635C10.9026 11.9159 13.1424 10.9925 15.4763 10.9964C16.6319 10.9983 17.7759 11.2278 18.8428 11.6718C19.9098 12.1158 20.8788 12.7656 21.6946 13.5841C22.5104 14.4026 23.157 15.3738 23.5975 16.4422C24.0379 17.5106 24.2637 18.6553 24.2618 19.8109C24.2599 20.9665 24.0303 22.1105 23.5863 23.1774C23.1423 24.2444 22.4925 25.2134 21.674 26.0292C20.8555 26.845 19.8843 27.4916 18.8159 27.9321C17.7475 28.3725 16.6029 28.5983 15.4472 28.5964ZM31.0109 1.20727C31.0109 1.87636 30.4872 2.42909 29.8181 2.42909H27.869C26.9559 2.43292 26.0813 2.79734 25.4357 3.443C24.79 4.08866 24.4256 4.96327 24.4218 5.87636C24.4218 6.19655 24.549 6.50363 24.7754 6.73003C25.0018 6.95644 25.3089 7.08364 25.629 7.08364C25.9492 7.08364 26.2563 6.95644 26.4827 6.73003C26.7091 6.50363 26.8363 6.19655 26.8363 5.87636C26.8363 5.55425 26.9643 5.24532 27.192 5.01755C27.4198 4.78978 27.7287 4.66182 28.0509 4.66182C28.373 4.66182 28.6819 4.78978 28.9097 5.01755C29.1374 5.24532 29.2654 5.55425 29.2654 5.87636C29.2654 6.84079 28.8823 7.76571 28.2003 8.44766C27.5184 9.12961 26.5935 9.51273 25.629 9.51273C24.6646 9.51273 23.7397 9.12961 23.0577 8.44766C22.3758 7.76571 21.9927 6.84079 21.9927 5.87636C21.9927 4.58182 22.4145 3.40364 23.1272 2.42909H16.669V5.30909C16.669 5.63121 16.5411 5.94013 16.3133 6.1679C16.0855 6.39568 15.7766 6.52364 15.4545 6.52364C15.1324 6.52364 14.8235 6.39568 14.5957 6.1679C14.3679 5.94013 14.2399 5.63121 14.2399 5.30909V2.42909H7.89813C8.6254 3.38909 9.03268 4.58182 9.03268 5.87636C9.03268 6.84079 8.64956 7.76571 7.96761 8.44766C7.28566 9.12961 6.36074 9.51273 5.39631 9.51273C4.43189 9.51273 3.50697 9.12961 2.82501 8.44766C2.14306 7.76571 1.75995 6.84079 1.75995 5.87636C1.75995 5.71782 1.79118 5.56083 1.85185 5.41436C1.91252 5.26789 2.00145 5.1348 2.11355 5.02269C2.22566 4.91059 2.35875 4.82166 2.50522 4.76099C2.65169 4.70032 2.80868 4.66909 2.96722 4.66909C3.12576 4.66909 3.28275 4.70032 3.42922 4.76099C3.5757 4.82166 3.70879 4.91059 3.82089 5.02269C3.933 5.1348 4.02192 5.26789 4.0826 5.41436C4.14327 5.56083 4.17449 5.71782 4.17449 5.87636C4.17449 6.19848 4.30245 6.50741 4.53023 6.73518C4.758 6.96295 5.06692 7.09091 5.38904 7.09091C5.71116 7.09091 6.02008 6.96295 6.24785 6.73518C6.47562 6.50741 6.60359 6.19848 6.60359 5.87636C6.60359 3.98545 5.06177 2.42909 3.15631 2.42909H1.20722C1.04772 2.42909 0.88979 2.39768 0.742435 2.33664C0.595079 2.2756 0.461189 2.18614 0.348408 2.07336C0.235627 1.96058 0.146164 1.82669 0.0851276 1.67933C0.0240909 1.53198 -0.00732422 1.37404 -0.00732422 1.21455C-0.00732422 1.05505 0.0240909 0.897115 0.0851276 0.749759C0.146164 0.602404 0.235627 0.468513 0.348408 0.355732C0.461189 0.242951 0.595079 0.153488 0.742435 0.0924518C0.88979 0.0314151 1.04772 -2.37668e-09 1.20722 0L29.8181 0C30.4872 0 31.0254 0.538182 31.0254 1.20727H31.0109Z" fill="#365EDC"/>
<path d="M18.8507 23.8691C18.5575 23.8725 18.2732 23.7691 18.0507 23.5782L15.8107 21.6436C15.3178 21.2177 14.9224 20.6907 14.6513 20.0984C14.3803 19.5061 14.2399 18.8623 14.2397 18.2109V14.1818C14.2397 13.8597 14.3677 13.5508 14.5955 13.323C14.8232 13.0952 15.1322 12.9673 15.4543 12.9673C15.7764 12.9673 16.0853 13.0952 16.3131 13.323C16.5409 13.5508 16.6688 13.8597 16.6688 14.1818V18.2109C16.6688 18.8218 16.9307 19.4036 17.3961 19.8109L19.6361 21.7455C19.8233 21.906 19.9568 22.12 20.0187 22.3587C20.0806 22.5974 20.068 22.8493 19.9824 23.0806C19.8969 23.3119 19.7426 23.5115 19.5402 23.6524C19.3379 23.7934 19.0972 23.869 18.8507 23.8691Z" fill="#365EDC"/>
</g>
</g>
<defs>
<clipPath id="clip0_31_3931">
<rect width="32" height="32" fill="white"/>
</clipPath>
</defs>
</svg>
