<svg width="32" height="32" viewBox="0 0 32 32" fill="none" xmlns="http://www.w3.org/2000/svg">
<g clip-path="url(#clip0_31_3969)">
<mask id="mask0_31_3969" style="mask-type:luminance" maskUnits="userSpaceOnUse" x="0" y="0" width="32" height="32">
<path d="M0 0H31.0255V31.0255H0V0Z" fill="white"/>
</mask>
<g mask="url(#mask0_31_3969)">
<path d="M8.77096 31.0252C8.29311 31.0261 7.81977 30.9327 7.37801 30.7505C6.93626 30.5683 6.53474 30.3009 6.19642 29.9634L3.0546 26.8216C2.3895 26.1552 2.00876 25.2569 1.99248 24.3156C1.9762 23.3742 2.32566 22.4633 2.96733 21.7743L3.06915 21.6725C1.07838 19.3017 -0.00887344 16.3028 5.45495e-05 13.207C5.45495e-05 9.68704 1.36733 6.37068 3.8546 3.86886C5.81214 1.89526 8.34477 0.5928 11.0888 0.14853C13.8328 -0.295741 16.6471 0.141036 19.1273 1.39613C19.4167 1.5408 19.6367 1.79447 19.739 2.10135C19.8412 2.40823 19.8174 2.74317 19.6728 3.0325C19.5281 3.32183 19.2744 3.54183 18.9676 3.64413C18.6607 3.74642 18.3257 3.72262 18.0364 3.57795C15.7446 2.38963 13.1021 2.06457 10.5906 2.66205C8.07917 3.25953 5.8661 4.73974 4.35495 6.83278C2.8438 8.92582 2.13524 11.4923 2.35845 14.0641C2.58167 16.636 3.72181 19.042 5.57096 20.8434C6.03642 21.3089 6.05096 22.0652 5.58551 22.5452L4.71278 23.447C4.50684 23.6767 4.39662 23.9765 4.40473 24.2848C4.41285 24.5932 4.53869 24.8867 4.75642 25.1052L7.89824 28.247C8.37824 28.7125 9.1346 28.7125 9.6146 28.247L17.4255 20.407C17.5382 20.2943 17.672 20.2049 17.8192 20.144C17.9665 20.083 18.1243 20.0516 18.2837 20.0516C18.4431 20.0516 18.6009 20.083 18.7481 20.144C18.8954 20.2049 19.0292 20.2943 19.1419 20.407C19.2546 20.5197 19.344 20.6535 19.405 20.8008C19.466 20.948 19.4973 21.1058 19.4973 21.2652C19.4973 21.4246 19.466 21.5824 19.405 21.7297C19.344 21.8769 19.2546 22.0107 19.1419 22.1234L11.3455 29.9634C11.0072 30.3009 10.6057 30.5683 10.1639 30.7505C9.72216 30.9327 9.24882 31.0261 8.77096 31.0252ZM9.09096 19.0398L19.0401 9.10523C19.1535 8.99296 19.2436 8.85931 19.3051 8.712C19.3665 8.56469 19.3982 8.40666 19.3982 8.24704C19.3982 8.08743 19.3665 7.92939 19.3051 7.78209C19.2436 7.63478 19.1535 7.50113 19.0401 7.38886C17.4689 5.98908 15.4222 5.24276 13.3188 5.3027C11.2155 5.36264 9.21455 6.2243 7.7257 7.71128C6.23686 9.19827 5.3727 11.1981 5.31013 13.3014C5.24757 15.4047 5.99132 17.4524 7.38915 19.0252C7.61532 19.2499 7.92122 19.3761 8.24006 19.3761C8.55889 19.3761 8.86479 19.2499 9.09096 19.0252V19.0398ZM16.3637 8.33432L8.3346 16.378C7.61314 15.2603 7.29646 13.9292 7.43732 12.6064C7.57818 11.2836 8.16807 10.0491 9.10871 9.10843C10.0494 8.16779 11.2839 7.57789 12.6067 7.43703C13.9295 7.29617 15.2606 7.61286 16.3782 8.33432H16.3637ZM27.3601 30.5016L29.4401 27.447H29.4546C30.4794 25.9146 31.0262 24.1124 31.0255 22.2689V4.65432C31.0255 3.416 30.5336 2.22839 29.658 1.35277C28.7823 0.477146 27.5947 -0.0147748 26.3564 -0.0147748C25.1181 -0.0147748 23.9305 0.477146 23.0549 1.35277C22.1792 2.22839 21.6873 3.416 21.6873 4.65432V22.2543C21.6873 24.1016 22.2401 25.8907 23.2582 27.4325L25.3528 30.487C25.4631 30.652 25.6124 30.7873 25.7875 30.8809C25.9625 30.9744 26.1579 31.0233 26.3564 31.0233C26.5549 31.0233 26.7503 30.9744 26.9254 30.8809C27.1004 30.7873 27.2497 30.652 27.3601 30.487V30.5016ZM24.1164 22.2689V4.65432C24.1164 4.06023 24.3524 3.49048 24.7725 3.0704C25.1926 2.65032 25.7623 2.41432 26.3564 2.41432C26.9505 2.41432 27.5203 2.65032 27.9403 3.0704C28.3604 3.49048 28.5964 4.06023 28.5964 4.65432V22.2543C28.5964 23.6216 28.2037 24.9452 27.4328 26.0798L26.3564 27.6507L25.2801 26.0798C24.5237 24.9452 24.1164 23.607 24.1164 22.2543V22.2689ZM9.10551 22.3416C8.70431 22.3416 8.31954 22.501 8.03585 22.7847C7.75216 23.0683 7.59278 23.4531 7.59278 23.8543C7.59278 24.2555 7.75216 24.6403 8.03585 24.924C8.31954 25.2077 8.70431 25.367 9.10551 25.367C9.50671 25.367 9.89148 25.2077 10.1752 24.924C10.4589 24.6403 10.6182 24.2555 10.6182 23.8543C10.6182 23.4531 10.4589 23.0683 10.1752 22.7847C9.89148 22.501 9.50671 22.3416 9.10551 22.3416ZM12.6546 18.778C12.4559 18.778 12.2592 18.8171 12.0757 18.8931C11.8922 18.9691 11.7254 19.0806 11.5849 19.221C11.4445 19.3615 11.333 19.5283 11.257 19.7118C11.181 19.8953 11.1419 20.092 11.1419 20.2907C11.1419 20.4893 11.181 20.686 11.257 20.8696C11.333 21.0531 11.4445 21.2199 11.5849 21.3603C11.7254 21.5008 11.8922 21.6122 12.0757 21.6883C12.2592 21.7643 12.4559 21.8034 12.6546 21.8034C13.0558 21.8034 13.4406 21.644 13.7243 21.3603C14.008 21.0767 14.1673 20.6919 14.1673 20.2907C14.1673 19.8895 14.008 19.5047 13.7243 19.221C13.4406 18.9373 13.0558 18.778 12.6546 18.778ZM16.291 15.1998C15.8878 15.1998 15.5012 15.3599 15.2162 15.645C14.9311 15.93 14.771 16.3166 14.771 16.7198C14.771 17.1229 14.9311 17.5095 15.2162 17.7946C15.5012 18.0796 15.8878 18.2398 16.291 18.2398C16.6941 18.2398 17.0807 18.0796 17.3658 17.7946C17.6508 17.5095 17.811 17.1229 17.811 16.7198C17.811 16.3166 17.6508 15.93 17.3658 15.645C17.0807 15.3599 16.6941 15.1998 16.291 15.1998Z" fill="#365EDC"/>
</g>
</g>
<defs>
<clipPath id="clip0_31_3969">
<rect width="32" height="32" fill="white"/>
</clipPath>
</defs>
</svg>
