<svg width="40" height="40" viewBox="0 0 40 40" fill="none" xmlns="http://www.w3.org/2000/svg">
<path d="M24.1667 10.8333C25.3953 11.073 26.6148 11.6149 27.5 12.5C28.3852 13.3851 28.927 14.6047 29.1667 15.8333M25 5C27.5525 5.28357 29.8495 6.51845 31.6667 8.33333C33.4838 10.1482 34.7132 12.4478 35 15M31.7107 34.9883C33.4537 35.1455 35.006 33.7038 34.999 31.9773V27.4612C35.0173 26.7228 34.7632 26.0035 34.2848 25.4402C32.9358 23.8512 28.3092 22.8347 26.4752 23.225C25.0455 23.5293 24.0453 24.9647 23.0675 25.9407C21.3437 24.9623 19.7552 23.7803 18.3333 22.426M14.017 16.908C14.9948 15.9322 16.4331 14.9339 16.738 13.5071C17.1285 11.6796 16.1136 7.08248 14.5355 5.72807C13.9805 5.25167 13.2708 4.99295 12.5388 5.00015H8.01352C6.28931 5.00177 4.85479 6.54825 5.01177 8.28198C5.00182 20.9127 13.3356 31.2798 25 34.1788" stroke="#365EDC" stroke-width="3" stroke-linecap="round" stroke-linejoin="round"/>
</svg>
