<svg width="32" height="32" viewBox="0 0 32 32" fill="none" xmlns="http://www.w3.org/2000/svg">
<mask id="mask0_31_4010" style="mask-type:luminance" maskUnits="userSpaceOnUse" x="0" y="0" width="32" height="32">
<path d="M0.47998 0.47998H31.5054V31.5054H0.47998V0.47998Z" fill="white"/>
</mask>
<g mask="url(#mask0_31_4010)">
<path d="M3.91262 5.71611C3.7982 5.60481 3.70699 5.47192 3.64427 5.32513C3.58154 5.17835 3.54855 5.02058 3.5472 4.86096C3.54584 4.70134 3.57616 4.54304 3.63639 4.39521C3.69661 4.24739 3.78556 4.11297 3.89808 3.99975L6.28353 1.55611C6.61909 1.21616 7.01882 0.946236 7.45952 0.762007C7.90023 0.577778 8.37314 0.48291 8.8508 0.48291C9.32847 0.48291 9.80138 0.577778 10.2421 0.762007C10.6828 0.946236 11.0825 1.21616 11.4181 1.55611L13.8617 3.9852C14.0893 4.2128 14.2172 4.5215 14.2172 4.84338C14.2172 5.16526 14.0893 5.47396 13.8617 5.70156C13.6341 5.92917 13.3254 6.05703 13.0035 6.05703C12.6817 6.05703 12.373 5.92917 12.1454 5.70156L9.70171 3.25793C9.59095 3.1471 9.45943 3.05918 9.31468 2.99919C9.16992 2.93921 9.01477 2.90834 8.85808 2.90834C8.70139 2.90834 8.54623 2.93921 8.40148 2.99919C8.25672 3.05918 8.12521 3.1471 8.01444 3.25793L5.62899 5.70156C5.51672 5.81503 5.38307 5.9051 5.23576 5.96658C5.08846 6.02805 4.93042 6.0597 4.77081 6.0597C4.61119 6.0597 4.45315 6.02805 4.30585 5.96658C4.15854 5.9051 4.02489 5.81503 3.91262 5.70156V5.71611ZM8.75626 5.27975C8.43607 5.27975 8.129 5.40694 7.90259 5.63335C7.67618 5.85976 7.54899 6.16683 7.54899 6.48702V10.2979C7.54899 10.6181 7.67618 10.9252 7.90259 11.1516C8.129 11.378 8.43607 11.5052 8.75626 11.5052C9.07645 11.5052 9.38352 11.378 9.60993 11.1516C9.83634 10.9252 9.96353 10.6181 9.96353 10.2979V6.48702C9.96546 6.32726 9.93565 6.1687 9.87584 6.02055C9.81603 5.87239 9.72741 5.73758 9.61511 5.62393C9.50282 5.51028 9.36908 5.42005 9.22165 5.35847C9.07422 5.29689 8.91603 5.26519 8.75626 5.2652V5.27975ZM17.2363 7.75247C17.2363 5.38156 19.8981 3.51975 23.3017 3.51975C26.7053 3.51975 29.3817 5.38156 29.3817 7.75247C29.3817 10.1379 26.7199 11.9997 23.3163 11.9997C19.9126 11.9997 17.2508 10.1379 17.2508 7.75247H17.2363ZM19.6653 7.75247C19.6653 8.13066 19.9708 8.53793 20.5235 8.87247C21.2363 9.30884 22.2544 9.57066 23.3017 9.57066C24.3635 9.57066 25.3672 9.32338 26.0944 8.87247C26.6326 8.53793 26.9381 8.13066 26.9381 7.75247C26.9381 7.38884 26.6326 6.98156 26.0944 6.64702C25.3672 6.19611 24.349 5.93429 23.3017 5.93429C22.2544 5.93429 21.2363 6.19611 20.5235 6.64702C19.9708 6.98156 19.6653 7.37429 19.6653 7.75247ZM27.3744 27.8688C26.1408 28.6643 24.7041 29.0873 23.2363 29.0873C21.7684 29.0873 20.3317 28.6643 19.0981 27.8688C18.8377 27.6817 18.5136 27.6057 18.1972 27.6576C17.8808 27.7094 17.5979 27.8848 17.4108 28.1452C17.2237 28.4056 17.1477 28.7296 17.1995 29.0461C17.2514 29.3625 17.4268 29.6454 17.6872 29.8325C19.3182 30.9603 21.2608 31.5502 23.2435 31.5197C25.3235 31.5197 27.3017 30.9234 28.7999 29.8325C29.0603 29.6434 29.2349 29.3587 29.2854 29.0409C29.3359 28.7231 29.258 28.3983 29.069 28.1379C28.88 27.8775 28.5952 27.7029 28.2774 27.6524C27.9597 27.602 27.6348 27.6798 27.3744 27.8688ZM27.3744 23.0107C26.1408 23.8061 24.7041 24.2291 23.2363 24.2291C21.7684 24.2291 20.3317 23.8061 19.0981 23.0107C18.8377 22.8236 18.5136 22.7476 18.1972 22.7994C17.8808 22.8512 17.5979 23.0266 17.4108 23.287C17.2237 23.5474 17.1477 23.8715 17.1995 24.1879C17.2514 24.5043 17.4268 24.7872 17.6872 24.9743C19.3182 26.1021 21.2608 26.692 23.2435 26.6616C25.3235 26.6616 27.3017 26.0797 28.7999 24.9743C29.0603 24.7853 29.2349 24.5005 29.2854 24.1827C29.3359 23.865 29.258 23.5401 29.069 23.2797C28.88 23.0194 28.5952 22.8447 28.2774 22.7943C27.9597 22.7438 27.6348 22.8216 27.3744 23.0107ZM27.3744 18.1088C26.1408 18.9043 24.7041 19.3273 23.2363 19.3273C21.7684 19.3273 20.3317 18.9043 19.0981 18.1088C18.8377 17.9217 18.5136 17.8457 18.1972 17.8976C17.8808 17.9494 17.5979 18.1248 17.4108 18.3852C17.2237 18.6456 17.1477 18.9696 17.1995 19.2861C17.2514 19.6025 17.4268 19.8854 17.6872 20.0725C19.3182 21.2003 21.2608 21.7902 23.2435 21.7597C25.3235 21.7597 27.3017 21.1634 28.7999 20.0725C29.0603 19.8834 29.2349 19.5987 29.2854 19.2809C29.3359 18.9631 29.258 18.6383 29.069 18.3779C28.88 18.1175 28.5952 17.9429 28.2774 17.8924C27.9597 17.842 27.6348 17.9198 27.3744 18.1088ZM27.3744 13.1925C26.1408 13.9879 24.7041 14.4109 23.2363 14.4109C21.7684 14.4109 20.3317 13.9879 19.0981 13.1925C18.8377 13.0054 18.5136 12.9294 18.1972 12.9812C17.8808 13.033 17.5979 13.2084 17.4108 13.4688C17.2237 13.7292 17.1477 14.0533 17.1995 14.3697C17.2514 14.6861 17.4268 14.969 17.6872 15.1561C19.3182 16.2839 21.2608 16.8738 23.2435 16.8434C25.3235 16.8434 27.3017 16.2616 28.7999 15.1561C28.9288 15.0625 29.0381 14.9444 29.1214 14.8086C29.2047 14.6728 29.2604 14.5219 29.2854 14.3646C29.3104 14.2072 29.3041 14.0465 29.267 13.8915C29.2299 13.7366 29.1626 13.5905 29.069 13.4616C28.9754 13.3326 28.8573 13.2234 28.7215 13.1401C28.5857 13.0568 28.4348 13.0011 28.2774 12.9761C28.1201 12.9511 27.9594 12.9573 27.8044 12.9945C27.6495 13.0316 27.5034 13.0989 27.3744 13.1925ZM14.8217 17.5707C14.8217 19.9561 12.1599 21.8179 8.75626 21.8179C5.35262 21.8179 2.69081 19.9561 2.69081 17.5707C2.69081 15.1997 5.35262 13.3379 8.75626 13.3379C12.1599 13.3379 14.8217 15.1997 14.8217 17.5707ZM12.3926 17.5707C12.3926 17.207 12.0872 16.7997 11.549 16.4652C10.8217 16.0143 9.80353 15.7525 8.75626 15.7525C7.70899 15.7525 6.69081 16.0143 5.97808 16.4652C5.42535 16.7997 5.1199 17.1925 5.1199 17.5707C5.1199 17.9488 5.42535 18.3561 5.97808 18.6907C6.69081 19.127 7.70899 19.3888 8.75626 19.3888C9.81808 19.3888 10.8217 19.1416 11.549 18.6907C12.0872 18.3561 12.3926 17.9488 12.3926 17.5707ZM12.829 27.8688C11.5954 28.6643 10.1586 29.0873 8.6908 29.0873C7.22297 29.0873 5.78625 28.6643 4.55262 27.8688C4.42369 27.7762 4.27777 27.7099 4.1232 27.6736C3.96863 27.6374 3.80843 27.6319 3.65175 27.6576C3.33533 27.7094 3.05245 27.8848 2.86535 28.1452C2.67825 28.4056 2.60226 28.7296 2.65409 29.0461C2.70592 29.3625 2.88132 29.6454 3.14171 29.8325C4.77271 30.9603 6.71537 31.5502 8.69808 31.5197C10.7781 31.5197 12.7563 30.9234 14.2544 29.8325C14.5148 29.6434 14.6895 29.3587 14.7399 29.0409C14.7904 28.7231 14.7126 28.3983 14.5235 28.1379C14.3345 27.8775 14.0498 27.7029 13.732 27.6524C13.4142 27.602 13.0894 27.6798 12.829 27.8688ZM12.829 23.0107C11.5954 23.8061 10.1586 24.2291 8.6908 24.2291C7.22297 24.2291 5.78625 23.8061 4.55262 23.0107C4.42369 22.918 4.27777 22.8517 4.1232 22.8154C3.96863 22.7792 3.80843 22.7737 3.65175 22.7994C3.33533 22.8512 3.05245 23.0266 2.86535 23.287C2.67825 23.5474 2.60226 23.8715 2.65409 24.1879C2.70592 24.5043 2.88132 24.7872 3.14171 24.9743C4.77271 26.1021 6.71537 26.692 8.69808 26.6616C10.7781 26.6616 12.7563 26.0797 14.2544 24.9743C14.5148 24.7853 14.6895 24.5005 14.7399 24.1827C14.7904 23.865 14.7126 23.5401 14.5235 23.2797C14.3345 23.0194 14.0498 22.8447 13.732 22.7943C13.4142 22.7438 13.0894 22.8216 12.829 23.0107Z" fill="#365EDC"/>
</g>
</svg>
