<svg width="32" height="32" viewBox="0 0 32 32" fill="none" xmlns="http://www.w3.org/2000/svg">
<g clip-path="url(#clip0_31_4053)">
<mask id="mask0_31_4053" style="mask-type:luminance" maskUnits="userSpaceOnUse" x="0" y="0" width="32" height="32">
<path d="M0.47998 0.47998H31.5054V31.5054H0.47998V0.47998Z" fill="white"/>
</mask>
<g mask="url(#mask0_31_4053)">
<path d="M17.0767 17.2798C17.2247 17.1411 17.3433 16.9741 17.4255 16.7887C17.5077 16.6033 17.5517 16.4033 17.555 16.2005C17.5583 15.9977 17.5208 15.7963 17.4448 15.6083C17.3687 15.4203 17.2556 15.2496 17.1122 15.1062C16.9688 14.9627 16.798 14.8496 16.61 14.7736C16.422 14.6975 16.2206 14.66 16.0178 14.6633C15.8151 14.6666 15.615 14.7106 15.4296 14.7928C15.2442 14.875 15.0772 14.9936 14.9385 15.1416C14.6701 15.4282 14.5236 15.8079 14.53 16.2005C14.5364 16.5931 14.6952 16.9678 14.9729 17.2455C15.2505 17.5231 15.6252 17.6819 16.0178 17.6883C16.4105 17.6947 16.7902 17.5482 17.0767 17.2798Z" fill="#365EDC"/>
<path d="M24.2329 31.5201H7.76746C5.84113 31.5163 3.99502 30.7483 2.63426 29.3848C1.27351 28.0214 0.509273 26.1737 0.509277 24.2474V15.5637C0.509277 13.6349 1.27551 11.785 2.63941 10.4211C4.00331 9.05725 5.85316 8.29102 7.782 8.29102H24.2184C26.1472 8.29102 27.9971 9.05725 29.361 10.4211C30.7249 11.785 31.4911 13.6349 31.4911 15.5637V24.2765C31.4872 26.2028 30.7193 28.0489 29.3558 29.4097C27.9923 30.7704 26.1447 31.5347 24.2184 31.5347L24.2329 31.5201ZM7.76746 10.7201C6.48788 10.7239 5.26181 11.234 4.35701 12.1388C3.45221 13.0436 2.9422 14.2696 2.93837 15.5492V24.2619C2.93837 25.5427 3.44715 26.771 4.35278 27.6766C5.25841 28.5822 6.4867 29.091 7.76746 29.091H24.2329C25.5137 29.091 26.742 28.5822 27.6476 27.6766C28.5532 26.771 29.062 25.5427 29.062 24.2619V15.5347C29.062 14.2539 28.5532 13.0256 27.6476 12.12C26.742 11.2143 25.5137 10.7056 24.2329 10.7056H7.76746V10.7201Z" fill="#365EDC"/>
<path d="M18.9675 23.3455H13.0329C11.2866 23.3416 9.61285 22.6462 8.37799 21.4113C7.14313 20.1765 6.44769 18.5027 6.44385 16.7564C6.44385 16.4362 6.57104 16.1291 6.79745 15.9027C7.02386 15.6763 7.33093 15.5491 7.65112 15.5491C7.97131 15.5491 8.27838 15.6763 8.50479 15.9027C8.7312 16.1291 8.85839 16.4362 8.85839 16.7564C8.85839 17.8635 9.29821 18.9253 10.0811 19.7082C10.864 20.4911 11.9258 20.9309 13.0329 20.9309H18.9675C20.0746 20.9309 21.1365 20.4911 21.9193 19.7082C22.7022 18.9253 23.142 17.8635 23.142 16.7564C23.142 16.4362 23.2692 16.1291 23.4956 15.9027C23.722 15.6763 24.0291 15.5491 24.3493 15.5491C24.6695 15.5491 24.9766 15.6763 25.203 15.9027C25.4294 16.1291 25.5566 16.4362 25.5566 16.7564C25.5566 20.3927 22.6038 23.3455 18.9675 23.3455ZM20.5384 5.86182C20.2182 5.86182 19.9111 5.73463 19.6847 5.50822C19.4583 5.28181 19.3311 4.97474 19.3311 4.65455C19.3311 3.69455 18.5457 2.9091 17.5857 2.9091H14.4148C13.4402 2.9091 12.6693 3.69455 12.6693 4.65455C12.6693 4.97667 12.5413 5.28559 12.3136 5.51336C12.0858 5.74114 11.7769 5.8691 11.4548 5.8691C11.1326 5.8691 10.8237 5.74114 10.5959 5.51336C10.3682 5.28559 10.2402 4.97667 10.2402 4.65455C10.2402 4.10512 10.3487 3.56108 10.5594 3.05365C10.7701 2.54623 11.0789 2.08538 11.468 1.69755C11.8572 1.30971 12.3191 1.00252 12.8273 0.79359C13.3355 0.584656 13.8799 0.478091 14.4293 0.480006H17.5711C18.6783 0.480006 19.7401 0.919823 20.523 1.7027C21.3059 2.48558 21.7457 3.54739 21.7457 4.65455C21.7457 5.32364 21.2075 5.86182 20.5384 5.86182Z" fill="#365EDC"/>
</g>
</g>
<defs>
<clipPath id="clip0_31_4053">
<rect width="32" height="32" fill="white"/>
</clipPath>
</defs>
</svg>
