<svg width="32" height="32" viewBox="0 0 32 32" fill="none" xmlns="http://www.w3.org/2000/svg">
<g clip-path="url(#clip0_31_4061)">
<mask id="mask0_31_4061" style="mask-type:luminance" maskUnits="userSpaceOnUse" x="0" y="0" width="32" height="32">
<path d="M0.47998 0.47998H31.5054V31.5054H0.47998V0.47998Z" fill="white"/>
</mask>
<g mask="url(#mask0_31_4061)">
<path d="M8.97458 14.5455C7.85906 14.5465 6.75465 14.7672 5.72441 15.1949C4.69417 15.6227 3.75828 16.2492 2.97016 17.0387C2.18204 17.8281 1.55714 18.7651 1.13113 19.7961C0.705125 20.8271 0.486353 21.9318 0.487308 23.0474C0.488263 24.1629 0.708927 25.2673 1.1367 26.2975C1.56447 27.3278 2.19098 28.2637 2.98045 29.0518C3.76991 29.8399 4.70688 30.4648 5.73785 30.8908C6.76882 31.3168 7.87361 31.5356 8.98913 31.5346C11.242 31.5327 13.4019 30.6359 14.9935 29.0415C16.5852 27.4471 17.4783 25.2857 17.4764 23.0328C17.4745 20.7799 16.5777 18.6201 14.9833 17.0284C13.3889 15.4367 11.2275 14.5436 8.97458 14.5455ZM8.97458 29.091C7.36592 29.091 5.82315 28.452 4.68566 27.3145C3.54816 26.177 2.90913 24.6342 2.90913 23.0255C2.90913 21.4169 3.54816 19.8741 4.68566 18.7366C5.82315 17.5991 7.36592 16.9601 8.97458 16.9601C10.5832 16.9601 12.126 17.5991 13.2635 18.7366C14.401 19.8741 15.04 21.4169 15.04 23.0255C15.04 24.6342 14.401 26.177 13.2635 27.3145C12.126 28.452 10.5832 29.091 8.97458 29.091ZM23.8837 23.0255C22.7572 23.0255 21.6769 23.473 20.8804 24.2695C20.0839 25.0661 19.6364 26.1464 19.6364 27.2728C19.6364 28.3993 20.0839 29.4796 20.8804 30.2761C21.6769 31.0726 22.7572 31.5201 23.8837 31.5201C25.0101 31.5201 26.0904 31.0726 26.8869 30.2761C27.6835 29.4796 28.1309 28.3993 28.1309 27.2728C28.1309 26.1464 27.6835 25.0661 26.8869 24.2695C26.0904 23.473 25.0101 23.0255 23.8837 23.0255ZM23.8837 29.091C23.4015 29.091 22.939 28.8994 22.598 28.5585C22.257 28.2175 22.0655 27.755 22.0655 27.2728C22.0655 26.7906 22.257 26.3281 22.598 25.9872C22.939 25.6462 23.4015 25.4546 23.8837 25.4546C24.3659 25.4546 24.8283 25.6462 25.1693 25.9872C25.5103 26.3281 25.7019 26.7906 25.7019 27.2728C25.7019 27.755 25.5103 28.2175 25.1693 28.5585C24.8283 28.8994 24.3659 29.091 23.8837 29.091ZM31.52 23.1419C31.52 23.464 31.3921 23.7729 31.1643 24.0007C30.9365 24.2285 30.6276 24.3564 30.3055 24.3564C29.9834 24.3564 29.6744 24.2285 29.4467 24.0007C29.2189 23.7729 29.0909 23.464 29.0909 23.1419C29.0887 22.2863 28.8878 21.4429 28.5042 20.6781C28.1205 19.9133 27.5645 19.248 26.88 18.7346C24.8695 17.2673 22.6672 16.083 20.3346 15.2146H16.5528C16.2306 15.2146 15.9217 15.0867 15.6939 14.8589C15.4662 14.6311 15.3382 14.3222 15.3382 14.0001C15.3382 13.678 15.4662 13.369 15.6939 13.1413C15.9217 12.9135 16.2306 12.7855 16.5528 12.7855H19.1128L18.0219 6.32736C17.9678 6.01102 18.0417 5.6862 18.2272 5.42433C18.4127 5.16246 18.6946 4.985 19.0109 4.93099C19.3273 4.87699 19.6521 4.95085 19.914 5.13634C20.1758 5.32183 20.3533 5.60375 20.4073 5.92008L21.6291 13.1201C23.2291 13.7601 24.7419 14.4874 26.1237 15.3164V12.2474C26.1237 11.9272 26.2509 11.6201 26.4773 11.3937C26.7037 11.1673 27.0108 11.0401 27.3309 11.0401C27.6511 11.0401 27.9582 11.1673 28.1846 11.3937C28.411 11.6201 28.5382 11.9272 28.5382 12.2474V16.9601C29.4651 17.7026 30.214 18.6432 30.73 19.7129C31.2459 20.7826 31.5159 21.9543 31.52 23.1419ZM2.90913 12.2328V7.76736C2.90913 5.83851 3.67536 3.98866 5.03926 2.62476C6.40316 1.26086 8.25301 0.494629 10.1819 0.494629H21.3819C21.704 0.494629 22.0129 0.62259 22.2407 0.850361C22.4684 1.07813 22.5964 1.38706 22.5964 1.70917C22.5964 2.03129 22.4684 2.34022 22.2407 2.56799C22.0129 2.79576 21.704 2.92372 21.3819 2.92372H10.1819C8.89842 2.92756 7.66865 3.4391 6.76112 4.34663C5.8536 5.25415 5.34205 6.48392 5.33822 7.76736V12.2619C5.33822 12.4214 5.3068 12.5793 5.24577 12.7267C5.18473 12.874 5.09527 13.0079 4.98248 13.1207C4.8697 13.2335 4.73581 13.323 4.58846 13.384C4.4411 13.445 4.28317 13.4764 4.12367 13.4764C3.96418 13.4764 3.80624 13.445 3.65889 13.384C3.51153 13.323 3.37764 13.2335 3.26486 13.1207C3.15208 13.0079 3.06261 12.874 3.00158 12.7267C2.94054 12.5793 2.90913 12.4214 2.90913 12.2619V12.2328ZM8.97458 6.54554C9.64367 6.54554 10.1819 7.08372 10.1819 7.75281V11.2728C10.1819 11.5949 10.0539 11.9039 9.82612 12.1316C9.59835 12.3594 9.28943 12.4874 8.96731 12.4874C8.64519 12.4874 8.33627 12.3594 8.1085 12.1316C7.88072 11.9039 7.75276 11.5949 7.75276 11.2728V7.75281C7.75276 7.08372 8.30549 6.54554 8.97458 6.54554ZM8.97458 26.6619C8.01016 26.6619 7.08523 26.2788 6.40328 25.5968C5.72133 24.9149 5.33822 23.99 5.33822 23.0255C5.33822 22.0611 5.72133 21.1362 6.40328 20.4542C7.08523 19.7723 8.01016 19.3892 8.97458 19.3892C9.939 19.3892 10.8639 19.7723 11.5459 20.4542C12.2278 21.1362 12.6109 22.0611 12.6109 23.0255C12.6109 23.99 12.2278 24.9149 11.5459 25.5968C10.8639 26.2788 9.939 26.6619 8.97458 26.6619ZM8.97458 21.8183C8.65246 21.8183 8.34354 21.9462 8.11577 22.174C7.888 22.4018 7.76004 22.7107 7.76004 23.0328C7.76004 23.3549 7.888 23.6639 8.11577 23.8916C8.34354 24.1194 8.65246 24.2474 8.97458 24.2474C9.2967 24.2474 9.60562 24.1194 9.83339 23.8916C10.0612 23.6639 10.1891 23.3549 10.1891 23.0328C10.1891 22.7107 10.0612 22.4018 9.83339 22.174C9.60562 21.9462 9.2967 21.8183 8.97458 21.8183ZM24 19.8837C24.002 19.724 23.9722 19.5654 23.9123 19.4172C23.8525 19.2691 23.7639 19.1343 23.6516 19.0206C23.5393 18.907 23.4056 18.8167 23.2582 18.7552C23.1107 18.6936 22.9525 18.6619 22.7928 18.6619H20.6109C20.2888 18.6619 19.9799 18.7899 19.7521 19.0176C19.5244 19.2454 19.3964 19.5543 19.3964 19.8764C19.3964 20.1986 19.5244 20.5075 19.7521 20.7353C19.9799 20.963 20.2888 21.091 20.6109 21.091H22.7928C23.4619 21.091 24 20.5528 24 19.8837ZM28.3055 8.5819C29.2946 7.18554 28.6837 6.15281 28.3928 5.67281C28.3346 5.57099 28.2473 5.44008 28.2473 5.3819C28.2473 5.3819 28.2473 5.29463 28.3637 5.09099C28.5238 4.81324 28.567 4.48326 28.4838 4.17366C28.4006 3.86405 28.1978 3.60018 27.92 3.44008C27.6423 3.27999 27.3123 3.23679 27.0027 3.31999C26.6931 3.40318 26.4292 3.60597 26.2691 3.88372C25.9703 4.33354 25.8146 4.86324 25.8224 5.40321C25.8302 5.94317 26.0011 6.46816 26.3128 6.90917L26.4 7.05463C26.3781 7.0948 26.3538 7.13365 26.3273 7.17099C26.2347 7.30088 26.1685 7.44775 26.1326 7.6032C26.0968 7.75865 26.0918 7.91965 26.1182 8.07701C26.1714 8.3948 26.3486 8.67844 26.6109 8.86554C26.8733 9.05264 27.1992 9.12786 27.517 9.07467C27.6743 9.04833 27.8249 8.99126 27.9602 8.90671C28.0955 8.82216 28.2128 8.71179 28.3055 8.5819Z" fill="#365EDC"/>
</g>
</g>
<defs>
<clipPath id="clip0_31_4061">
<rect width="32" height="32" fill="white"/>
</clipPath>
</defs>
</svg>
