<svg width="32" height="32" viewBox="0 0 32 32" fill="none" xmlns="http://www.w3.org/2000/svg">
<path d="M24.0002 27.2001H8.00017C7.43952 27.2011 6.88629 27.072 6.38404 26.8229C5.88179 26.5738 5.44423 26.2115 5.10581 25.7645C4.7674 25.3175 4.53738 24.798 4.43386 24.247C4.33034 23.696 4.35615 23.1285 4.50926 22.5892C4.87289 21.2219 6.45835 19.2146 8.29108 16.8874C9.33835 15.5783 10.4002 14.2401 11.2002 13.0619C12.2765 11.4619 12.3638 10.8801 12.3638 10.7346V8.291C12.3638 8.1315 12.3952 7.97357 12.4563 7.82621C12.5173 7.67886 12.6068 7.54497 12.7195 7.43218C12.8323 7.3194 12.9662 7.22994 13.1136 7.1689C13.2609 7.10787 13.4189 7.07645 13.5783 7.07645C13.7378 7.07645 13.8958 7.10787 14.0431 7.1689C14.1905 7.22994 14.3244 7.3194 14.4372 7.43218C14.5499 7.54497 14.6394 7.67886 14.7004 7.82621C14.7615 7.97357 14.7929 8.1315 14.7929 8.291V10.7055C14.7929 12.4655 13.0474 14.7783 10.2111 18.3855C8.74198 20.2328 7.0838 22.3128 6.83653 23.2292C6.78459 23.4093 6.7753 23.599 6.80938 23.7833C6.84346 23.9676 6.91999 24.1414 7.03289 24.291C7.1458 24.4406 7.29198 24.5619 7.45987 24.6452C7.62776 24.7285 7.81274 24.7716 8.00017 24.771H24.0002C24.1876 24.7716 24.3726 24.7285 24.5405 24.6452C24.7084 24.5619 24.8545 24.4406 24.9674 24.291C25.0803 24.1414 25.1569 23.9676 25.191 23.7833C25.225 23.599 25.2157 23.4093 25.1638 23.2292C24.9165 22.3274 23.2729 20.2474 21.8329 18.4146C18.9965 14.8074 17.2656 12.4801 17.2656 10.7055V8.30554C17.2656 7.98343 17.3936 7.6745 17.6214 7.44673C17.8491 7.21896 18.158 7.091 18.4802 7.091C18.8023 7.091 19.1112 7.21896 19.339 7.44673C19.5668 7.6745 19.6947 7.98343 19.6947 8.30554V10.7201C19.6947 10.8655 19.782 11.4619 20.8583 13.091C21.6583 14.2692 22.7202 15.6219 23.7383 16.931C25.5565 19.2292 27.1274 21.2365 27.5056 22.6037C27.6591 23.1442 27.6847 23.713 27.5804 24.2652C27.4761 24.8173 27.2448 25.3376 26.9047 25.7848C26.5646 26.2321 26.1252 26.5942 25.6211 26.8423C25.117 27.0905 24.562 27.2179 24.0002 27.2146V27.2001ZM20.2474 19.9274H12.0002C11.8407 19.9274 11.6827 19.9588 11.5354 20.0198C11.388 20.0809 11.2541 20.1703 11.1414 20.2831C11.0286 20.3959 10.9391 20.5298 10.8781 20.6771C10.817 20.8245 10.7856 20.9824 10.7856 21.1419C10.7856 21.3014 10.817 21.4593 10.8781 21.6067C10.9391 21.754 11.0286 21.8879 11.1414 22.0007C11.2541 22.1135 11.388 22.203 11.5354 22.264C11.6827 22.325 11.8407 22.3565 12.0002 22.3565H20.2474C20.5676 22.3565 20.8747 22.2293 21.1011 22.0029C21.3275 21.7764 21.4547 21.4694 21.4547 21.1492C21.4547 20.829 21.3275 20.5219 21.1011 20.2955C20.8747 20.0691 20.5676 19.9419 20.2474 19.9419V19.9274ZM20.902 2.90918H11.142C10.9825 2.90918 10.8246 2.94059 10.6772 3.00163C10.5298 3.06267 10.396 3.15213 10.2832 3.26491C10.1704 3.37769 10.0809 3.51158 10.0199 3.65894C9.95885 3.80629 9.92744 3.96423 9.92744 4.12373C9.92744 4.28322 9.95885 4.44116 10.0199 4.58851C10.0809 4.73587 10.1704 4.86976 10.2832 4.98254C10.396 5.09532 10.5298 5.18478 10.6772 5.24582C10.8246 5.30686 10.9825 5.33827 11.142 5.33827H20.902C21.0615 5.33827 21.2194 5.30686 21.3668 5.24582C21.5141 5.18478 21.648 5.09532 21.7608 4.98254C21.8736 4.86976 21.963 4.73587 22.0241 4.58851C22.0851 4.44116 22.1165 4.28322 22.1165 4.12373C22.1165 3.96423 22.0851 3.80629 22.0241 3.65894C21.963 3.51158 21.8736 3.37769 21.7608 3.26491C21.648 3.15213 21.5141 3.06267 21.3668 3.00163C21.2194 2.94059 21.0615 2.90918 20.902 2.90918Z" fill="#365EDC"/>
</svg>
