<svg width="35" height="35" viewBox="0 0 35 35" fill="none" xmlns="http://www.w3.org/2000/svg">
<path fill-rule="evenodd" clip-rule="evenodd" d="M16.049 0.00463867C7.67754 0.00463867 0.891113 6.79105 0.891113 15.1625C0.891113 23.534 7.67754 30.3203 16.049 30.3203C19.5519 30.3203 22.7771 29.1324 25.3439 27.137L31.7618 33.5549C32.5019 34.2949 33.7014 34.2949 34.4415 33.5549C35.1814 32.815 35.1814 31.6154 34.4415 30.8753L28.0235 24.4575C30.0188 21.8907 31.2068 18.6653 31.2068 15.1625C31.2068 6.79105 24.4204 0.00463867 16.049 0.00463867ZM4.68059 15.1625C4.68059 8.88392 9.7704 3.79411 16.049 3.79411C22.3277 3.79411 27.4173 8.88392 27.4173 15.1625C27.4173 21.441 22.3277 26.5309 16.049 26.5309C9.7704 26.5309 4.68059 21.441 4.68059 15.1625Z" fill="#888888"/>
</svg>
