<svg width="32" height="32" viewBox="0 0 32 32" fill="none" xmlns="http://www.w3.org/2000/svg">
<g clip-path="url(#clip0_31_4080)">
<mask id="mask0_31_4080" style="mask-type:luminance" maskUnits="userSpaceOnUse" x="0" y="0" width="32" height="32">
<path d="M0.47998 0.47998H31.5054V31.5054H0.47998V0.47998Z" fill="white"/>
</mask>
<g mask="url(#mask0_31_4080)">
<path d="M14.7927 7.99989V10.5453C14.7927 10.8655 14.9199 11.1726 15.1463 11.399C15.3727 11.6254 15.6798 11.7526 15.9999 11.7526C16.3201 11.7526 16.6272 11.6254 16.8536 11.399C17.08 11.1726 17.2072 10.8655 17.2072 10.5453V6.79262C17.2091 6.63286 17.1793 6.4743 17.1195 6.32615C17.0597 6.17799 16.9711 6.04318 16.8588 5.92953C16.7465 5.81588 16.6128 5.72565 16.4653 5.66407C16.3179 5.60249 16.1597 5.57079 15.9999 5.5708H14.7927C14.6332 5.5708 14.4752 5.60222 14.3279 5.66325C14.1805 5.72429 14.0466 5.81375 13.9339 5.92653C13.8211 6.03931 13.7316 6.1732 13.6706 6.32056C13.6095 6.46792 13.5781 6.62585 13.5781 6.78535C13.5781 6.94484 13.6095 7.10278 13.6706 7.25013C13.7316 7.39749 13.8211 7.53138 13.9339 7.64416C14.0466 7.75694 14.1805 7.8464 14.3279 7.90744C14.4752 7.96848 14.6332 7.99989 14.7927 7.99989Z" fill="#365EDC"/>
<path d="M15.9998 16.8435C18.1717 16.8435 20.2546 15.9807 21.7904 14.445C23.3261 12.9092 24.1889 10.8263 24.1889 8.65442C24.1889 6.48254 23.3261 4.39961 21.7904 2.86386C20.2546 1.32811 18.1717 0.465332 15.9998 0.465332C13.8279 0.465332 11.745 1.32811 10.2092 2.86386C8.67349 4.39961 7.81072 6.48254 7.81072 8.65442C7.81072 10.8263 8.67349 12.9092 10.2092 14.445C11.745 15.9807 13.8279 16.8435 15.9998 16.8435ZM15.9998 2.90897C17.5294 2.90897 18.9963 3.51659 20.0779 4.59816C21.1595 5.67974 21.7671 7.14667 21.7671 8.67624C21.7671 10.2058 21.1595 11.6727 20.0779 12.7543C18.9963 13.8359 17.5294 14.4435 15.9998 14.4435C14.4702 14.4435 13.0033 13.8359 11.9217 12.7543C10.8402 11.6727 10.2325 10.2058 10.2325 8.67624C10.2325 7.14667 10.8402 5.67974 11.9217 4.59816C13.0033 3.51659 14.4702 2.90897 15.9998 2.90897ZM31.1271 23.6217C30.7326 22.8874 30.0814 22.3241 29.2979 22.0397C28.5143 21.7553 27.6535 21.7696 26.8798 22.0799C25.7162 22.5162 24.2762 23.069 22.7198 23.5053C22.9006 22.6129 22.7372 21.6851 22.2624 20.9081C21.7876 20.1311 21.0365 19.5625 20.1598 19.3162C19.6071 19.1708 18.9962 19.1272 18.3707 19.2144C14.2253 19.7817 11.7525 18.3708 9.57072 17.1344C8.10163 16.3053 6.71981 15.5199 5.09072 15.5199C3.8121 15.5278 2.54377 15.749 1.33799 16.1744C1.02937 16.2709 0.771711 16.486 0.621682 16.7724C0.471653 17.0588 0.441548 17.3931 0.53799 17.7017C0.634433 18.0103 0.849522 18.268 1.13594 18.418C1.42236 18.568 1.75665 18.5981 2.06526 18.5017C2.06526 18.5017 3.27254 17.9344 5.09072 17.9344C6.07981 17.9344 7.08345 18.5162 8.36345 19.2435C10.2834 20.3344 12.8144 21.7599 16.5525 21.7599C17.2362 21.7599 17.9489 21.7162 18.7053 21.6144C18.9962 21.5708 19.2871 21.5853 19.5053 21.6435C19.7525 21.7162 20.0871 21.8908 20.2762 22.3126C20.4071 22.6326 20.4216 22.9235 20.2762 23.1999C20.1307 23.5344 19.8107 23.8108 19.3453 23.9853C18.6907 24.2181 17.7453 24.349 16.6689 24.3635C15.5662 24.3806 14.4659 24.2535 13.3962 23.9853C13.098 23.9332 12.791 23.995 12.5362 24.1585C12.2814 24.322 12.0973 24.5752 12.0205 24.868C11.9436 25.1609 11.9796 25.4719 12.1212 25.7394C12.2629 26.007 12.4999 26.2116 12.7853 26.3126C13.9489 26.6326 15.3453 26.7926 16.6689 26.7926C20.4718 26.658 24.2182 25.8299 27.7234 24.349C28.1598 24.2035 28.7416 24.2617 28.9889 24.7562C29.2216 25.1926 29.0471 25.7308 28.6107 25.9635C25.0412 28.0203 20.9922 29.099 16.8725 29.0908C12.2471 29.0908 7.99981 27.3017 5.23617 25.8181C3.12708 24.6544 1.57072 25.0326 1.39617 25.0762C1.23957 25.1148 1.09228 25.1843 0.963004 25.2808C0.833726 25.3772 0.725078 25.4986 0.643476 25.6377C0.561874 25.7768 0.508972 25.9308 0.487894 26.0907C0.466816 26.2506 0.477989 26.4131 0.520753 26.5686C0.563517 26.7241 0.637006 26.8695 0.736879 26.9961C0.836753 27.1228 0.960987 27.2281 1.10225 27.3059C1.24351 27.3837 1.39893 27.4325 1.55933 27.4492C1.71974 27.466 1.88187 27.4505 2.03617 27.4035C2.21072 27.4035 2.96708 27.3308 4.08708 27.9417C7.08345 29.5708 11.738 31.5199 16.8725 31.5199C23.3744 31.5199 27.6944 29.2072 29.7744 28.1017C30.5458 27.685 31.1228 26.9821 31.3813 26.1442C31.6397 25.3064 31.5589 24.4006 31.1562 23.6217H31.1271Z" fill="#365EDC"/>
</g>
</g>
<defs>
<clipPath id="clip0_31_4080">
<rect width="32" height="32" fill="white"/>
</clipPath>
</defs>
</svg>
