<svg width="32" height="32" viewBox="0 0 32 32" fill="none" xmlns="http://www.w3.org/2000/svg">
<g clip-path="url(#clip0_31_4087)">
<mask id="mask0_31_4087" style="mask-type:luminance" maskUnits="userSpaceOnUse" x="0" y="0" width="32" height="32">
<path d="M0.47998 0.47998H31.5054V31.5054H0.47998V0.47998Z" fill="white"/>
</mask>
<g mask="url(#mask0_31_4087)">
<path d="M25.5709 23.3309C24.5255 23.3309 23.5228 22.9156 22.7836 22.1764C22.0444 21.4371 21.6291 20.4345 21.6291 19.3891C21.6291 18.3436 22.0444 17.341 22.7836 16.6018C23.5228 15.8626 24.5255 15.4473 25.5709 15.4473C26.6163 15.4473 27.6189 15.8626 28.3582 16.6018C29.0974 17.341 29.5127 18.3436 29.5127 19.3891C29.5127 20.4345 29.0974 21.4371 28.3582 22.1764C27.6189 22.9156 26.6163 23.3309 25.5709 23.3309ZM25.5709 17.8763C25.1678 17.8763 24.7811 18.0365 24.4961 18.3215C24.211 18.6066 24.0509 18.9932 24.0509 19.3963C24.0509 19.7995 24.211 20.1861 24.4961 20.4711C24.7811 20.7562 25.1678 20.9163 25.5709 20.9163C25.974 20.9163 26.3606 20.7562 26.6457 20.4711C26.9307 20.1861 27.0909 19.7995 27.0909 19.3963C27.0909 18.9932 26.9307 18.6066 26.6457 18.3215C26.3606 18.0365 25.974 17.8763 25.5709 17.8763ZM15.6363 24C14.5909 24 13.5883 23.5847 12.8491 22.8454C12.1098 22.1062 11.6945 21.1036 11.6945 20.0582C11.6945 19.0127 12.1098 18.0101 12.8491 17.2709C13.5883 16.5316 14.5909 16.1163 15.6363 16.1163C16.6818 16.1163 17.6844 16.5316 18.4236 17.2709C19.1629 18.0101 19.5782 19.0127 19.5782 20.0582C19.5782 21.1036 19.1629 22.1062 18.4236 22.8454C17.6844 23.5847 16.6818 24 15.6363 24ZM15.6363 18.5454C15.2332 18.5454 14.8466 18.7056 14.5615 18.9906C14.2765 19.2757 14.1163 19.6623 14.1163 20.0654C14.1163 20.4686 14.2765 20.8552 14.5615 21.1402C14.8466 21.4253 15.2332 21.5854 15.6363 21.5854C16.0395 21.5854 16.4261 21.4253 16.7111 21.1402C16.9962 20.8552 17.1563 20.4686 17.1563 20.0654C17.1563 19.6623 16.9962 19.2757 16.7111 18.9906C16.4261 18.7056 16.0395 18.5454 15.6363 18.5454ZM12.48 30.2982C12.48 28.9891 13.5563 27.9418 14.88 27.9418H16.9745C17.2966 27.9418 17.6056 27.8138 17.8333 27.5861C18.0611 27.3583 18.1891 27.0494 18.1891 26.7273C18.1891 26.4051 18.0611 26.0962 17.8333 25.8684C17.6056 25.6407 17.2966 25.5127 16.9745 25.5127H14.88C14.2484 25.5108 13.6227 25.6335 13.0386 25.8739C12.4546 26.1143 11.9237 26.4675 11.4765 26.9134C11.0292 27.3594 10.6743 27.8892 10.4322 28.4725C10.1901 29.0558 10.0654 29.6811 10.0654 30.3127C10.0654 30.6329 10.1926 30.94 10.419 31.1664C10.6454 31.3928 10.9525 31.52 11.2727 31.52C11.5929 31.52 11.9 31.3928 12.1264 31.1664C12.3528 30.94 12.48 30.6329 12.48 30.3127V30.2982ZM5.81816 24C4.77273 24 3.77011 23.5847 3.03088 22.8454C2.29164 22.1062 1.87634 21.1036 1.87634 20.0582C1.87634 19.0127 2.29164 18.0101 3.03088 17.2709C3.77011 16.5316 4.77273 16.1163 5.81816 16.1163C6.8636 16.1163 7.86621 16.5316 8.60545 17.2709C9.34468 18.0101 9.75998 19.0127 9.75998 20.0582C9.75998 21.1036 9.34468 22.1062 8.60545 22.8454C7.86621 23.5847 6.8636 24 5.81816 24ZM5.81816 18.5454C5.41503 18.5454 5.02842 18.7056 4.74336 18.9906C4.4583 19.2757 4.29816 19.6623 4.29816 20.0654C4.29816 20.4686 4.4583 20.8552 4.74336 21.1402C5.02842 21.4253 5.41503 21.5854 5.81816 21.5854C6.22129 21.5854 6.60791 21.4253 6.89296 21.1402C7.17802 20.8552 7.33816 20.4686 7.33816 20.0654C7.33816 19.6623 7.17802 19.2757 6.89296 18.9906C6.60791 18.7056 6.22129 18.5454 5.81816 18.5454ZM2.90907 30.2982C2.90907 28.9891 3.98544 27.9418 5.30907 27.9418H7.75271C8.07482 27.9418 8.38375 27.8138 8.61152 27.5861C8.83929 27.3583 8.96725 27.0494 8.96725 26.7273C8.96725 26.4051 8.83929 26.0962 8.61152 25.8684C8.38375 25.6407 8.07482 25.5127 7.75271 25.5127H5.30907C4.67628 25.5089 4.04898 25.6302 3.46326 25.8697C2.87753 26.1092 2.34494 26.4622 1.89614 26.9083C1.44733 27.3544 1.09116 27.8848 0.848122 28.4691C0.605082 29.0534 0.479969 29.6799 0.47998 30.3127C0.47998 30.6348 0.607941 30.9437 0.835713 31.1715C1.06348 31.3993 1.37241 31.5273 1.69453 31.5273C2.01664 31.5273 2.32557 31.3993 2.55334 31.1715C2.78111 30.9437 2.90907 30.6348 2.90907 30.3127V30.2982ZM21.8763 13.9345C21.7174 13.9357 21.5597 13.9055 21.4124 13.8456C21.2652 13.7857 21.1312 13.6973 21.0182 13.5854L20.9163 13.4691C20.3345 12.8873 19.4327 12.7418 18.6763 13.1054C17.5747 13.6562 16.3589 13.9403 15.1273 13.9345H7.21453C5.48445 13.8541 3.85189 13.1102 2.65601 11.8574C1.46013 10.6046 0.792877 8.9392 0.792877 7.20725C0.792877 5.47531 1.46013 3.80995 2.65601 2.55715C3.85189 1.30436 5.48445 0.560449 7.21453 0.47998H16.3636C18.1497 0.47998 19.8627 1.18951 21.1257 2.45248C22.3886 3.71546 23.0982 5.42841 23.0982 7.21453V12.7273C23.0982 12.887 23.0665 13.0452 23.0049 13.1926C22.9433 13.3401 22.8531 13.4738 22.7394 13.5861C22.6258 13.6984 22.491 13.787 22.3428 13.8468C22.1947 13.9066 22.0361 13.9365 21.8763 13.9345ZM7.21453 2.90907C6.07265 2.90907 4.97754 3.36268 4.17011 4.17011C3.36268 4.97754 2.90907 6.07265 2.90907 7.21453C2.90907 8.3564 3.36268 9.45151 4.17011 10.2589C4.97754 11.0664 6.07265 11.52 7.21453 11.52H15.1273C16 11.52 16.8291 11.3163 17.6 10.9382C18.5476 10.4697 19.633 10.3612 20.6545 10.6327V7.21453C20.6546 6.07767 20.2049 4.98695 19.4038 4.18035C18.6026 3.37375 17.515 2.91675 16.3782 2.90907H7.21453ZM30.2982 31.52C30.1384 31.52 29.9802 31.4883 29.8328 31.4267C29.6853 31.3651 29.5516 31.2749 29.4393 31.1613C29.327 31.0476 29.2384 30.9128 29.1786 30.7646C29.1188 30.6165 29.089 30.4579 29.0909 30.2982C29.0909 28.5382 27.6363 27.0982 25.8618 27.0982H25.0473C23.2582 27.0982 21.8182 28.5382 21.8182 30.2982C21.8182 30.6203 21.6902 30.9292 21.4624 31.157C21.2347 31.3847 20.9257 31.5127 20.6036 31.5127C20.2815 31.5127 19.9726 31.3847 19.7448 31.157C19.517 30.9292 19.3891 30.6203 19.3891 30.2982C19.391 29.557 19.5388 28.8235 19.8242 28.1395C20.1096 27.4556 20.5269 26.8345 21.0523 26.3118C21.5777 25.7891 22.201 25.375 22.8864 25.0931C23.5719 24.8112 24.3061 24.6672 25.0473 24.6691H25.8618C26.6029 24.6672 27.3372 24.8112 28.0226 25.0931C28.7081 25.375 29.3313 25.7891 29.8567 26.3118C30.3821 26.8345 30.7994 27.4556 31.0848 28.1395C31.3702 28.8235 31.5181 29.557 31.52 30.2982C31.52 30.9673 30.9673 31.52 30.2982 31.52ZM5.33816 7.21453C5.33816 7.61573 5.49754 8.00049 5.78123 8.28419C6.06492 8.56788 6.44969 8.72725 6.85089 8.72725C7.25209 8.72725 7.63686 8.56788 7.92055 8.28419C8.20424 8.00049 8.36362 7.61573 8.36362 7.21453C8.36362 6.81333 8.20424 6.42856 7.92055 6.14487C7.63686 5.86118 7.25209 5.7018 6.85089 5.7018C6.44969 5.7018 6.06492 5.86118 5.78123 6.14487C5.49754 6.42856 5.33816 6.81333 5.33816 7.21453ZM10.1818 7.21453C10.1818 7.61573 10.3412 8.00049 10.6249 8.28419C10.9086 8.56788 11.2933 8.72725 11.6945 8.72725C12.0957 8.72725 12.4805 8.56788 12.7642 8.28419C13.0479 8.00049 13.2073 7.61573 13.2073 7.21453C13.2073 6.81333 13.0479 6.42856 12.7642 6.14487C12.4805 5.86118 12.0957 5.7018 11.6945 5.7018C11.2933 5.7018 10.9086 5.86118 10.6249 6.14487C10.3412 6.42856 10.1818 6.81333 10.1818 7.21453ZM15.0254 7.21453C15.0254 7.61766 15.1856 8.00427 15.4706 8.28933C15.7557 8.57438 16.1423 8.73453 16.5454 8.73453C16.9486 8.73453 17.3352 8.57438 17.6202 8.28933C17.9053 8.00427 18.0654 7.61766 18.0654 7.21453C18.0654 6.8114 17.9053 6.42478 17.6202 6.13972C17.3352 5.85467 16.9486 5.69453 16.5454 5.69453C16.1423 5.69453 15.7557 5.85467 15.4706 6.13972C15.1856 6.42478 15.0254 6.8114 15.0254 7.21453Z" fill="#365EDC"/>
</g>
</g>
<defs>
<clipPath id="clip0_31_4087">
<rect width="32" height="32" fill="white"/>
</clipPath>
</defs>
</svg>
