<svg width="32" height="32" viewBox="0 0 32 32" fill="none" xmlns="http://www.w3.org/2000/svg">
<mask id="mask0_31_4095" style="mask-type:luminance" maskUnits="userSpaceOnUse" x="0" y="0" width="32" height="32">
<path d="M0 0H31.0255V31.0255H0V0Z" fill="white"/>
</mask>
<g mask="url(#mask0_31_4095)">
<path d="M27.3891 19.9998C27.2293 19.9998 27.0711 19.9681 26.9237 19.9065C26.7763 19.845 26.6425 19.7547 26.5302 19.6411C26.4179 19.5274 26.3293 19.3926 26.2695 19.2445C26.2097 19.0963 26.1799 18.9378 26.1818 18.778V8.90163C26.1818 6.23982 24 4.058 21.3236 4.058H9.68727C8.40384 4.06183 7.17407 4.57338 6.26654 5.4809C5.35902 6.38843 4.84747 7.6182 4.84364 8.90163V18.7925C4.84364 19.1127 4.71644 19.4198 4.49003 19.6462C4.26363 19.8726 3.95655 19.9998 3.63636 19.9998C3.31617 19.9998 3.0091 19.8726 2.78269 19.6462C2.55629 19.4198 2.42909 19.1127 2.42909 18.7925V8.90163C2.42909 6.97279 3.19532 5.12294 4.55922 3.75904C5.92312 2.39514 7.77297 1.62891 9.70182 1.62891H21.3382C22.2932 1.62891 23.239 1.81702 24.1213 2.18251C25.0037 2.548 25.8054 3.0837 26.4808 3.75904C27.1561 4.43437 27.6918 5.23611 28.0573 6.11848C28.4228 7.00085 28.6109 7.94657 28.6109 8.90163V18.7925C28.6109 19.4471 28.0582 19.9998 27.3891 19.9998ZM31.0255 25.7598C31.0255 24.7954 30.6423 23.8705 29.9604 23.1885C29.2784 22.5066 28.3535 22.1235 27.3891 22.1235H3.63636C2.67194 22.1235 1.74702 22.5066 1.06507 23.1885C0.383116 23.8705 0 24.7954 0 25.7598C0 26.7242 0.383116 27.6492 1.06507 28.3311C1.74702 29.0131 2.67194 29.3962 3.63636 29.3962H27.3891C27.8666 29.3962 28.3395 29.3021 28.7807 29.1194C29.2218 28.9366 29.6227 28.6688 29.9604 28.3311C30.2981 27.9934 30.5659 27.5926 30.7486 27.1514C30.9314 26.7102 31.0255 26.2373 31.0255 25.7598ZM27.3891 24.538C27.7112 24.538 28.0201 24.666 28.2479 24.8937C28.4757 25.1215 28.6036 25.4304 28.6036 25.7525C28.6036 26.0747 28.4757 26.3836 28.2479 26.6114C28.0201 26.8391 27.7112 26.9671 27.3891 26.9671H3.63636C3.31425 26.9671 3.00532 26.8391 2.77755 26.6114C2.54978 26.3836 2.42182 26.0747 2.42182 25.7525C2.42182 25.4304 2.54978 25.1215 2.77755 24.8937C3.00532 24.666 3.31425 24.538 3.63636 24.538H27.3891ZM19.5782 9.70163C19.5782 8.68706 19.1751 7.71404 18.4577 6.99663C17.7403 6.27922 16.7673 5.87618 15.7527 5.87618C14.7382 5.87618 13.7651 6.27922 13.0477 6.99663C12.3303 7.71404 11.9273 8.68706 11.9273 9.70163C11.9273 10.7162 12.3303 11.6892 13.0477 12.4066C13.7651 13.1241 14.7382 13.5271 15.7527 13.5271C16.7673 13.5271 17.7403 13.1241 18.4577 12.4066C19.1751 11.6892 19.5782 10.7162 19.5782 9.70163ZM17.1491 9.70163C17.1491 10.072 17.002 10.4271 16.7401 10.689C16.4782 10.9509 16.1231 11.098 15.7527 11.098C15.3824 11.098 15.0272 10.9509 14.7653 10.689C14.5035 10.4271 14.3564 10.072 14.3564 9.70163C14.3564 9.3313 14.5035 8.97612 14.7653 8.71426C15.0272 8.45239 15.3824 8.30527 15.7527 8.30527C16.1231 8.30527 16.4782 8.45239 16.7401 8.71426C17.002 8.97612 17.1491 9.3313 17.1491 9.70163ZM19.7673 19.9562C19.9227 19.9172 20.0688 19.8478 20.1971 19.7518C20.3253 19.6558 20.4332 19.5353 20.5145 19.3972C20.5957 19.2591 20.6486 19.1062 20.6702 18.9475C20.6917 18.7887 20.6815 18.6273 20.64 18.4725C20.3661 17.4284 19.7533 16.5048 18.8977 15.8466C18.0421 15.1885 16.9922 14.8331 15.9127 14.8362H15.2291C14.1521 14.8363 13.1056 15.1932 12.2529 15.8511C11.4003 16.509 10.7896 17.4308 10.5164 18.4725C10.4763 18.6263 10.4668 18.7865 10.4886 18.9439C10.5104 19.1013 10.563 19.2529 10.6433 19.39C10.7237 19.5271 10.8303 19.647 10.957 19.7429C11.0837 19.8388 11.2281 19.9088 11.3818 19.9489C11.5356 19.989 11.6957 19.9985 11.8532 19.9767C12.0106 19.9549 12.1621 19.9023 12.2992 19.8219C12.4363 19.7416 12.5563 19.635 12.6522 19.5083C12.7481 19.3816 12.8181 19.2372 12.8582 19.0835C13.001 18.5633 13.3099 18.104 13.738 17.7758C14.166 17.4475 14.6897 17.2682 15.2291 17.2653H15.9127C17.0327 17.2653 18.0073 18.0216 18.2836 19.0835C18.3226 19.2389 18.392 19.385 18.488 19.5132C18.584 19.6415 18.7045 19.7494 18.8426 19.8307C18.9807 19.9119 19.1336 19.9648 19.2923 19.9864C19.4511 20.0079 19.6125 19.9977 19.7673 19.9562Z" fill="#365EDC"/>
</g>
</svg>
