<svg width="32" height="32" viewBox="0 0 32 32" fill="none" xmlns="http://www.w3.org/2000/svg">
<g clip-path="url(#clip0_31_4109)">
<mask id="mask0_31_4109" style="mask-type:luminance" maskUnits="userSpaceOnUse" x="0" y="0" width="32" height="32">
<path d="M0 0H31.0255V31.0255H0V0Z" fill="white"/>
</mask>
<g mask="url(#mask0_31_4109)">
<path d="M30.9527 22.7782L30.0799 16.2328C29.8776 14.7001 29.1892 13.2727 28.1158 12.1601C27.0425 11.0475 25.6407 10.3083 24.1163 10.0509L22.4727 9.76003V3.63639C22.4728 2.68197 22.0977 1.76575 21.4283 1.08545C20.7588 0.405147 19.8488 0.0152999 18.8945 2.90927e-05C18.415 -0.00188485 17.9399 0.0906547 17.4962 0.272364C17.0526 0.454073 16.649 0.721394 16.3086 1.05906C15.9683 1.39673 15.6977 1.79813 15.5125 2.24035C15.3273 2.68257 15.2309 3.15695 15.229 3.63639V9.77457L13.8327 10.0218C12.3181 10.2919 10.9285 11.0361 9.86448 12.1473C8.80042 13.2584 8.11694 14.6789 7.91268 16.2037L6.79268 24.4073C6.63147 25.5667 6.0571 26.6288 5.17521 27.3985C4.29331 28.1682 3.16319 28.5935 1.99268 28.5964H1.20722C0.885104 28.5964 0.576179 28.7244 0.348408 28.9521C0.120636 29.1799 -0.00732422 29.4888 -0.00732422 29.8109C-0.00732422 30.1331 0.120636 30.442 0.348408 30.6698C0.576179 30.8975 0.885104 31.0255 1.20722 31.0255H23.7527C24.7895 31.0245 25.814 30.8018 26.7577 30.3724C27.7014 29.943 28.5424 29.3167 29.2242 28.5357C29.9061 27.7547 30.413 26.8369 30.7111 25.8439C31.0093 24.8509 31.0916 23.8056 30.9527 22.7782ZM27.4036 26.9382C26.9487 27.4592 26.3875 27.8768 25.7578 28.1628C25.128 28.4489 24.4443 28.5967 23.7527 28.5964H7.40359C8.37301 27.5143 8.99614 26.1667 9.19268 24.7273L10.2981 16.5237C10.4344 15.5061 10.8914 14.5584 11.6028 13.8182C12.3143 13.078 13.2431 12.5838 14.2545 12.4073L16.6545 11.9709C17.2363 11.8691 17.6436 11.3746 17.6436 10.7928V3.63639C17.6436 2.98185 18.2254 2.42912 18.8945 2.42912C19.549 2.42912 20.0727 2.95276 20.0727 3.63639V10.7928C20.0727 11.3746 20.4945 11.8837 21.0763 11.9855L23.6945 12.4218C24.7133 12.5935 25.6502 13.0873 26.3676 13.8309C27.0849 14.5744 27.5449 15.5284 27.6799 16.5528L28.5672 23.0982C28.7563 24.4946 28.3345 25.8909 27.4181 26.9382H27.4036ZM25.5127 22.1673C25.6201 22.9762 25.5906 23.7973 25.4254 24.5964C25.3939 24.7521 25.332 24.9 25.2433 25.0318C25.1546 25.1635 25.0408 25.2765 24.9085 25.3643C24.7761 25.4521 24.6278 25.513 24.4719 25.5435C24.316 25.5739 24.1556 25.5734 23.9999 25.5418C23.8443 25.5103 23.6963 25.4485 23.5646 25.3598C23.4328 25.2711 23.3198 25.1573 23.232 25.0249C23.1442 24.8926 23.0833 24.7442 23.0529 24.5883C23.0224 24.4324 23.023 24.2721 23.0545 24.1164C23.1563 23.5782 23.1709 23.04 23.0981 22.4873L22.9672 21.4982C22.9229 21.18 23.0067 20.8571 23.2004 20.6007C23.3941 20.3443 23.6817 20.1753 23.9999 20.1309C24.3182 20.0866 24.6411 20.1705 24.8975 20.3641C25.1539 20.5578 25.3229 20.8454 25.3672 21.1637L25.5127 22.1673ZM15.8109 22.1673C15.923 22.9753 15.8984 23.7965 15.7381 24.5964C15.6745 24.9127 15.4878 25.1908 15.2191 25.3695C14.9504 25.5482 14.6217 25.6128 14.3054 25.5491C13.9891 25.4855 13.711 25.2988 13.5323 25.0301C13.3536 24.7614 13.289 24.4327 13.3527 24.1164C13.469 23.5928 13.4836 23.04 13.4109 22.4873L13.2654 21.4982C13.2444 21.3397 13.2548 21.1785 13.2961 21.024C13.3373 20.8695 13.4086 20.7246 13.5059 20.5977C13.6031 20.4707 13.7244 20.3641 13.8629 20.2841C14.0013 20.204 14.1541 20.152 14.3127 20.1309C14.4712 20.1099 14.6323 20.1203 14.7869 20.1616C14.9414 20.2029 15.0862 20.2742 15.2132 20.3714C15.3402 20.4687 15.4467 20.59 15.5268 20.7284C15.6069 20.8668 15.6589 21.0197 15.6799 21.1782L15.8109 22.1673ZM20.6545 22.1673C20.7667 22.9753 20.7421 23.7965 20.5818 24.5964C20.5181 24.9108 20.3322 25.187 20.0648 25.3643C19.7975 25.5416 19.4707 25.6055 19.1563 25.5418C18.8419 25.4782 18.5657 25.2923 18.3884 25.0249C18.2111 24.7576 18.1472 24.4308 18.2109 24.1164C18.3127 23.5782 18.3272 23.04 18.2545 22.4873L18.109 21.4982C18.0647 21.178 18.1493 20.8533 18.3444 20.5955C18.5394 20.3378 18.8289 20.168 19.149 20.1237C19.4692 20.0793 19.7939 20.1639 20.0517 20.359C20.3095 20.554 20.4792 20.8435 20.5236 21.1637L20.669 22.1673H20.6545ZM-5.14914e-05 4.30548C-5.14914e-05 3.90428 0.159325 3.51952 0.443016 3.23582C0.726707 2.95213 1.11148 2.79276 1.51268 2.79276C1.91388 2.79276 2.29864 2.95213 2.58234 3.23582C2.86603 3.51952 3.0254 3.90428 3.0254 4.30548C3.0254 4.70668 2.86603 5.09145 2.58234 5.37514C2.29864 5.65883 1.91388 5.81821 1.51268 5.81821C1.11148 5.81821 0.726707 5.65883 0.443016 5.37514C0.159325 5.09145 -5.14914e-05 4.70668 -5.14914e-05 4.30548ZM4.90177 8.05821C4.90177 7.8586 4.94108 7.66095 5.01747 7.47653C5.09386 7.29212 5.20582 7.12455 5.34696 6.98341C5.48811 6.84226 5.65567 6.7303 5.84009 6.65391C6.0245 6.57753 6.22216 6.53821 6.42177 6.53821C6.62138 6.53821 6.81903 6.57753 7.00345 6.65391C7.18786 6.7303 7.35542 6.84226 7.49657 6.98341C7.63771 7.12455 7.74968 7.29212 7.82606 7.47653C7.90245 7.66095 7.94177 7.8586 7.94177 8.05821C7.94177 8.46134 7.78162 8.84796 7.49657 9.13301C7.21151 9.41807 6.8249 9.57821 6.42177 9.57821C6.01864 9.57821 5.63202 9.41807 5.34696 9.13301C5.06191 8.84796 4.90177 8.46134 4.90177 8.05821ZM3.99995 17.4546C4.40115 17.4546 4.78592 17.614 5.06961 17.8976C5.3533 18.1813 5.51268 18.5661 5.51268 18.9673C5.51268 19.3685 5.3533 19.7533 5.06961 20.037C4.78592 20.3207 4.40115 20.48 3.99995 20.48C3.59875 20.48 3.21398 20.3207 2.93029 20.037C2.6466 19.7533 2.48722 19.3685 2.48722 18.9673C2.48722 18.5661 2.6466 18.1813 2.93029 17.8976C3.21398 17.614 3.59875 17.4546 3.99995 17.4546ZM3.0254 13.6291C3.0254 14.0303 2.86603 14.4151 2.58234 14.6988C2.29864 14.9825 1.91388 15.1418 1.51268 15.1418C1.11148 15.1418 0.726707 14.9825 0.443016 14.6988C0.159325 14.4151 -5.14914e-05 14.0303 -5.14914e-05 13.6291C-5.14914e-05 13.2279 0.159325 12.8432 0.443016 12.5595C0.726707 12.2758 1.11148 12.1164 1.51268 12.1164C1.91388 12.1164 2.29864 12.2758 2.58234 12.5595C2.86603 12.8432 3.0254 13.2279 3.0254 13.6291ZM1.51268 23.1418C1.10955 23.1418 0.722929 23.302 0.437873 23.587C0.152818 23.8721 -0.00732422 24.2587 -0.00732422 24.6618C-0.00732422 25.065 0.152818 25.4516 0.437873 25.7366C0.722929 26.0217 1.10955 26.1818 1.51268 26.1818C1.9158 26.1818 2.30242 26.0217 2.58748 25.7366C2.87253 25.4516 3.03268 25.065 3.03268 24.6618C3.03268 24.2587 2.87253 23.8721 2.58748 23.587C2.30242 23.302 1.9158 23.1418 1.51268 23.1418ZM25.2654 17.0909C25.2673 16.9312 25.2375 16.7726 25.1777 16.6245C25.1179 16.4763 25.0293 16.3415 24.917 16.2278C24.8047 16.1142 24.6709 16.024 24.5235 15.9624C24.3761 15.9008 24.2179 15.8691 24.0581 15.8691H13.8763C13.5542 15.8691 13.2453 15.9971 13.0175 16.2249C12.7897 16.4526 12.6618 16.7615 12.6618 17.0837C12.6618 17.4058 12.7897 17.7147 13.0175 17.9425C13.2453 18.1702 13.5542 18.2982 13.8763 18.2982H24.0581C24.7272 18.2982 25.2654 17.76 25.2654 17.0909Z" fill="#365EDC"/>
</g>
</g>
<defs>
<clipPath id="clip0_31_4109">
<rect width="32" height="32" fill="white"/>
</clipPath>
</defs>
</svg>
