<svg width="13" height="12" viewBox="0 0 13 12" fill="none" xmlns="http://www.w3.org/2000/svg">
<path fill-rule="evenodd" clip-rule="evenodd" d="M10.7979 10.8092C10.7817 10.9883 10.7116 11.1584 10.5973 11.2979C10.484 11.4365 10.3311 11.5382 10.1584 11.5895C9.98567 11.6408 9.80218 11.639 9.63127 11.585C9.45946 11.531 9.30835 11.4266 9.19681 11.2853C8.21635 10.505 6.68718 9.38179 6.68718 9.38179C6.68718 9.38179 5.58078 11.3321 5.38288 11.5319C5.31722 11.5868 5.24167 11.6282 5.15982 11.6516C5.07706 11.6759 4.9916 11.6822 4.90615 11.6714C4.82159 11.6597 4.74065 11.6309 4.66779 11.5859C4.59493 11.5418 4.53195 11.4824 4.48338 11.4122C4.47348 11.3816 4.46091 11.351 4.44742 11.3222L5.06805 8.21542L9.49363 3.86571L3.45796 7.3118C3.45796 7.3118 0.732443 6.49639 0.327666 6.33709C0.223323 6.28039 0.13697 6.1949 0.0794013 6.0905C0.0209334 5.9861 -0.00605682 5.86823 0.00113923 5.74943C0.00743577 5.63063 0.0470331 5.51633 0.116295 5.41913C0.185557 5.32193 0.280898 5.24632 0.390638 5.20132C0.966321 4.90792 11.1217 1.0271 11.4636 0.927201C11.8054 0.827301 12.7049 0.567199 12.6059 1.4429C12.507 2.3186 10.8969 10.3286 10.7979 10.8092Z" fill="white"/>
</svg>
