<svg width="14" height="13" viewBox="0 0 14 13" fill="none" xmlns="http://www.w3.org/2000/svg">
<path fill-rule="evenodd" clip-rule="evenodd" d="M9.8974 12.5125H3.60086C2.60691 12.4711 1.67052 12.0373 0.995889 11.3065C0.322159 10.5748 -0.0358407 9.60641 0.00283802 8.61191V4.71221C-0.0349412 3.71861 0.322166 2.74932 0.996795 2.01852C1.67142 1.28772 2.60781 0.8539 3.60086 0.8125H9.8974C10.8905 0.8539 11.8268 1.2877 12.5015 2.0194C13.1761 2.7502 13.5332 3.71859 13.4954 4.71309V8.61279C13.5332 9.60729 13.1761 10.5757 12.5015 11.3065C11.8268 12.0373 10.8905 12.4711 9.8974 12.5125ZM11.6964 4.642C11.7243 4.1362 11.5498 3.63937 11.2134 3.26047C10.8761 2.88247 10.4029 2.65211 9.8974 2.62151H3.60086C3.09534 2.65211 2.6222 2.88247 2.28489 3.26047C1.94757 3.63937 1.77396 4.1362 1.80185 4.642V8.68212C1.77396 9.18792 1.94757 9.68469 2.28489 10.0636C2.6222 10.4416 3.09534 10.672 3.60086 10.7026H9.8974C10.4029 10.672 10.8761 10.4416 11.2134 10.0636C11.5498 9.68469 11.7243 9.18792 11.6964 8.68212V4.642ZM5.39987 4.4008L8.9979 6.6625L5.39987 8.92239V4.4008Z" fill="white"/>
</svg>
