<svg width="18" height="16" viewBox="0 0 20 18" fill="none" xmlns="http://www.w3.org/2000/svg">
<g clip-path="url(#clip0_42_765)">
<path fill-rule="evenodd" clip-rule="evenodd" d="M4.5 16C5.88071 16 7 14.8807 7 13.5C7 12.1193 5.88071 11 4.5 11C3.11929 11 2 12.1193 2 13.5C2 14.8807 3.11929 16 4.5 16ZM4.5 18C6.98528 18 9 15.9853 9 13.5C9 11.0147 6.98528 9 4.5 9C2.01472 9 0 11.0147 0 13.5C0 15.9853 2.01472 18 4.5 18Z" fill="#BDBDBD"/>
<path fill-rule="evenodd" clip-rule="evenodd" d="M15.5 16C16.8807 16 18 14.8807 18 13.5C18 12.1193 16.8807 11 15.5 11C14.1193 11 13 12.1193 13 13.5C13 14.8807 14.1193 16 15.5 16ZM15.5 18C17.9853 18 20 15.9853 20 13.5C20 11.0147 17.9853 9 15.5 9C13.0147 9 11 11.0147 11 13.5C11 15.9853 13.0147 18 15.5 18Z" fill="#BDBDBD"/>
<path fill-rule="evenodd" clip-rule="evenodd" d="M12 14H8V12H12V14Z" fill="#BDBDBD"/>
<path fill-rule="evenodd" clip-rule="evenodd" d="M5 2C3.34315 2 2 3.34315 2 5V13H0V5C0 2.23858 2.23858 0 5 0H6C6.55228 0 7 0.447715 7 1C7 1.55228 6.55228 2 6 2H5Z" fill="#BDBDBD"/>
<path fill-rule="evenodd" clip-rule="evenodd" d="M15 2C16.6569 2 18 3.34315 18 5V13H20V5C20 2.23858 17.7614 0 15 0H14C13.4477 0 13 0.447715 13 1C13 1.55228 13.4477 2 14 2H15Z" fill="#BDBDBD"/>
</g>
<defs>
<clipPath id="clip0_42_765">
<rect width="20" height="18" fill="white"/>
</clipPath>
</defs>
</svg>
