<svg width="32" height="32" viewBox="0 0 32 32" fill="none" xmlns="http://www.w3.org/2000/svg">
<path d="M30.75 3.563H12.437C12.1055 3.563 11.7875 3.4313 11.5531 3.19688C11.3187 2.96246 11.187 2.64452 11.187 2.313C11.187 1.98148 11.3187 1.66354 11.5531 1.42912C11.7875 1.1947 12.1055 1.063 12.437 1.063H30.75C31.0815 1.063 31.3995 1.1947 31.6339 1.42912C31.8683 1.66354 32 1.98148 32 2.313C32 2.64452 31.8683 2.96246 31.6339 3.19688C31.3995 3.4313 31.0815 3.563 30.75 3.563ZM8.75 4.375C8.74868 3.21508 8.28732 2.10305 7.46713 1.28287C6.64695 0.462685 5.53492 0.00132335 4.375 0C3.21508 0.00132335 2.10305 0.462685 1.28287 1.28287C0.462685 2.10305 0.00132335 3.21508 0 4.375C0.00132335 5.53492 0.462685 6.64695 1.28287 7.46713C2.10305 8.28732 3.21508 8.74868 4.375 8.75C5.53492 8.74868 6.64695 8.28732 7.46713 7.46713C8.28732 6.64695 8.74868 5.53492 8.75 4.375ZM6.25 4.375C6.24947 4.87212 6.05176 5.34872 5.70024 5.70024C5.34872 6.05176 4.87212 6.24947 4.375 6.25C3.87788 6.24947 3.40128 6.05176 3.04976 5.70024C2.69824 5.34872 2.50053 4.87212 2.5 4.375C2.5 3.341 3.341 2.5 4.375 2.5C5.409 2.5 6.25 3.341 6.25 4.375ZM32 25.563C32 24.873 31.44 24.313 30.75 24.313H12.437C12.1055 24.313 11.7875 24.4447 11.5531 24.6791C11.3187 24.9135 11.187 25.2315 11.187 25.563C11.187 25.8945 11.3187 26.2125 11.5531 26.4469C11.7875 26.6813 12.1055 26.813 12.437 26.813H30.75C31.44 26.813 32 26.253 32 25.563ZM24.5 30.313C24.5 29.623 23.94 29.063 23.25 29.063H12.437C12.1055 29.063 11.7875 29.1947 11.5531 29.4291C11.3187 29.6635 11.187 29.9815 11.187 30.313C11.187 30.6445 11.3187 30.9625 11.5531 31.1969C11.7875 31.4313 12.1055 31.563 12.437 31.563H23.25C23.94 31.563 24.5 31.003 24.5 30.313ZM8.75 27.625C8.74868 26.4651 8.28732 25.3531 7.46713 24.5329C6.64695 23.7127 5.53492 23.2513 4.375 23.25C3.21508 23.2513 2.10305 23.7127 1.28287 24.5329C0.462685 25.3531 0.00132335 26.4651 0 27.625C0.00132335 28.7849 0.462685 29.8969 1.28287 30.7171C2.10305 31.5373 3.21508 31.9987 4.375 32C5.53492 31.9987 6.64695 31.5373 7.46713 30.7171C8.28732 29.8969 8.74868 28.7849 8.75 27.625ZM6.25 27.625C6.24947 28.1221 6.05176 28.5987 5.70024 28.9502C5.34872 29.3018 4.87212 29.4995 4.375 29.5C3.87788 29.4995 3.40128 29.3018 3.04976 28.9502C2.69824 28.5987 2.50053 28.1221 2.5 27.625C2.5 26.591 3.341 25.75 4.375 25.75C5.409 25.75 6.25 26.591 6.25 27.625ZM32 14C32 13.31 31.44 12.75 30.75 12.75H12.437C12.1055 12.75 11.7875 12.8817 11.5531 13.1161C11.3187 13.3505 11.187 13.6685 11.187 14C11.187 14.3315 11.3187 14.6495 11.5531 14.8839C11.7875 15.1183 12.1055 15.25 12.437 15.25H30.75C31.44 15.25 32 14.69 32 14ZM24.5 18.75C24.5 18.06 23.94 17.5 23.25 17.5H12.437C12.1055 17.5 11.7875 17.6317 11.5531 17.8661C11.3187 18.1005 11.187 18.4185 11.187 18.75C11.187 19.0815 11.3187 19.3995 11.5531 19.6339C11.7875 19.8683 12.1055 20 12.437 20H23.25C23.94 20 24.5 19.44 24.5 18.75ZM8.75 16.062C8.74868 14.9021 8.28732 13.7901 7.46713 12.9699C6.64695 12.1497 5.53492 11.6883 4.375 11.687C3.21474 11.6883 2.10241 12.15 1.28216 12.9706C0.461921 13.7912 0.000793945 14.9037 0 16.064C0.00132335 17.2239 0.462685 18.3359 1.28287 19.1561C2.10305 19.9763 3.21508 20.4377 4.375 20.439C5.53492 20.4377 6.64695 19.9763 7.46713 19.1561C8.28732 18.3359 8.74868 17.2239 8.75 16.064V16.062ZM6.25 16.062C6.24947 16.5591 6.05176 17.0357 5.70024 17.3872C5.34872 17.7388 4.87212 17.9365 4.375 17.937C3.87805 17.9365 3.4016 17.7389 3.05011 17.3876C2.69862 17.0363 2.50079 16.5599 2.5 16.063C2.5 15.03 3.341 14.188 4.375 14.188C5.409 14.188 6.25 15.03 6.25 16.064V16.062ZM24.5 7.062C24.5 6.372 23.94 5.812 23.25 5.812H12.437C12.1055 5.812 11.7875 5.9437 11.5531 6.17812C11.3187 6.41254 11.187 6.73048 11.187 7.062C11.187 7.39352 11.3187 7.71146 11.5531 7.94588C11.7875 8.1803 12.1055 8.312 12.437 8.312H23.25C23.94 8.312 24.5 7.752 24.5 7.062Z" fill="#365EDC"/>
</svg>
